<?xml version="1.0" encoding="utf-8"?>
<!-- Generator: Adobe Illustrator 23.0.1, SVG Export Plug-In . SVG Version: 6.00 Build 0)  -->
<svg version="1.1" id="Layer_1" xmlns="http://www.w3.org/2000/svg" xmlns:xlink="http://www.w3.org/1999/xlink" x="0px" y="0px"
	 viewBox="0 0 1024 234" style="enable-background:new 0 0 1024 234;" xml:space="preserve">
<style type="text/css">
	.st0{fill:#221F1F;}
	.st1{fill:#FFFFFF;}
	.st2{fill:#36B24A;}
	.st3{opacity:0.9;}
</style>
<g>
	<path class="st0" d="M21.2,218.9l35.6-47.4c0.3-0.3,0.3-0.9,0-1.3l-35.7-53.6h112.8v102.1H21.2V218.9z"/>
	<path class="st1" d="M132.8,117.8v100H23.4l34.3-45.7c0.5-0.8,0.5-1.7,0.1-2.5l-34.6-51.9h109.6 M135,115.6H19l36.9,55.3L19,220
		h116L135,115.6L135,115.6z"/>
</g>
<g>
	<path class="st0" d="M886.3,218.8V116.7h112.8l-35.8,54.9c-0.2,0.4-0.2,0.9,0,1.3l35.6,46.1H886.3V218.8z"/>
	<path class="st1" d="M997.2,117.8l-34.7,53.1c-0.5,0.8-0.4,1.7,0.1,2.5l34.2,44.4H887.4v-100H997.2 M1001.2,115.6h-116v104.3h116
		l-36.9-47.8L1001.2,115.6L1001.2,115.6z"/>
</g>
<polygon class="st2" points="200.5,170.1 190.4,156.4 176.4,166.3 171,150.1 154.7,155.3 154.6,138.1 137.4,138.1 142.6,121.7 
	126.2,116.4 136.2,102.4 122.4,92.2 136.2,82.1 126.2,68.1 142.4,62.7 137.3,46.3 154.3,46.1 154.5,29 170.8,34.2 176.2,17.9 
	190.2,27.8 200.3,14 210.5,27.8 224.5,17.8 229.9,34.1 246.2,28.9 246.3,46 263.5,46.1 258.3,62.5 274.7,67.9 264.6,81.8 278.4,92 
	264.7,102.2 274.7,116.1 258.4,121.5 263.6,137.9 246.5,138 246.4,155.2 230.1,150 224.7,166.2 210.7,156.3 "/>
<g>
	<path class="st0" d="M91.4,209.9c-0.4,0-0.9-0.3-0.9-0.9V83.6c0-0.4,0.3-0.9,0.9-0.9h837.4c0.4,0,0.9,0.3,0.9,0.9v125.5
		c0,0.4-0.3,0.9-0.9,0.9H91.4z"/>
	<path class="st1" d="M928.5,83.9v125H91.7v-125H928.5 M928.8,81.7H91.4c-1.1,0-1.9,0.9-1.9,1.9v125.5c0,1.1,0.9,1.9,1.9,1.9h837.4
		c1.1,0,1.9-0.9,1.9-1.9V83.7C930.6,82.6,929.8,81.7,928.8,81.7L928.8,81.7z"/>
</g>
<g>
	<path class="st1" d="M149.6,176.2c-4,0-7.1-1.3-9.3-3.8c-1.8-1.8-2.9-4.3-3.4-7.5c-0.1-0.9-0.2-1.7-0.2-2.4s0-1.2,0-1.4v-30.9
		c0-2.4,0.3-4.5,1.1-6.3c0.8-1.8,1.7-3.2,2.9-4.4s2.6-2.1,4.1-2.6c1.5-0.5,3-0.9,4.7-0.9c3.4,0,6.3,1.1,8.7,3.1c1,0.9,1.9,2.3,2.9,4
		c1,1.7,1.4,4.1,1.4,7c0,0.8-0.3,1.4-0.9,1.9s-1.2,0.9-1.9,0.9s-1.5-0.3-2.1-0.9s-0.9-1.2-0.9-1.9c0-1.9-0.3-3.6-0.9-4.8
		c-0.6-1.2-1.3-2.1-2.1-2.6c-0.8-0.5-1.6-1-2.4-1.1c-0.9-0.1-1.4-0.2-1.8-0.2c-1.9,0-3.6,0.6-4.9,1.8c-1.6,1.5-2.5,3.8-2.5,6.8v31.2
		v0.1c0,0,0,0.3,0,0.9c0,0.5,0,1.1,0.1,1.8c0.1,0.8,0.3,1.5,0.6,2.4c0.3,0.9,0.8,1.6,1.4,2.2c1.2,1.3,2.9,1.8,5.2,1.8
		c2.5,0,4.3-0.6,5.4-1.9c0.5-0.6,1-1.3,1.3-2.2c0.3-0.8,0.5-1.5,0.6-2.2c0.1-0.6,0.2-1.5,0.2-2.5v-0.1v-10.1h-5.5
		c-0.8,0-1.5-0.3-2.1-0.9c-0.5-0.5-0.9-1.2-0.9-2.1c0-0.8,0.3-1.4,0.9-1.9c0.5-0.5,1.2-0.9,2.1-0.9h11v15.5c0,0.2,0.1,0.6,0,1.3
		c0,0.6-0.1,1.5-0.3,2.4c-0.5,2.9-1.7,5.3-3.4,7.1C156.7,175,153.5,176.2,149.6,176.2z"/>
	<path class="st1" d="M193.5,173c0.1,0.8,0,1.4-0.4,2.1c-0.4,0.6-1,1-1.6,1.2H191c-0.5,0-1.1-0.2-1.6-0.5c-0.5-0.4-0.8-0.9-0.9-1.4
		l-2.2-10.3h-12.8l-2.2,10.1c-0.1,0.5-0.4,1.1-0.9,1.5c-0.5,0.4-1.1,0.5-1.7,0.5h-0.4c-0.6-0.1-1.2-0.5-1.6-1.2s-0.5-1.3-0.3-2.1
		l10.9-54.6c0-0.2,0.1-0.3,0.1-0.4v-0.1v0.1c0.1-0.2,0.2-0.4,0.4-0.5v-0.1h0.1v-0.1h0.1V117h0.1v-0.1h0.1c0.1-0.1,0.2-0.2,0.3-0.2
		s0.2-0.1,0.4-0.1v-0.1h0.1c0.1,0,0.2-0.1,0.3-0.1s0.2,0,0.3-0.1h0.1h0.1h0.1c0.1,0,0.2,0.1,0.3,0.1s0.2,0,0.3,0.1h0.1v0.1
		c0.2,0,0.3,0.1,0.4,0.1c0.1,0,0.2,0.1,0.3,0.2h0.1v0.1h0.1v0.1h0.1v0.1l0.1,0.1c0,0.1,0.1,0.2,0.2,0.3c0.1,0.1,0.1,0.2,0.2,0.3v0.1
		v0.1c0,0,0.1,0.2,0.1,0.4L193.5,173z M185.3,158.8l-5.5-26.7l-5.3,26.7H185.3z"/>
	<path class="st1" d="M232.5,172.6c0,0.8-0.2,1.4-0.8,1.9c-0.5,0.5-1.2,0.9-1.9,0.9c-0.8,0-1.4-0.3-1.9-0.9
		c-0.5-0.5-0.9-1.2-0.9-1.9l-0.1-41.7l-9,17.6c-0.2,0.8-0.8,1.3-1.3,1.6c-0.5,0.2-1,0.3-1.3,0.3c-0.2,0-0.5,0-0.6-0.1
		c-0.2,0-0.4-0.1-0.5-0.2c-0.6-0.3-1.2-0.9-1.4-1.6l-9-17.6l0.1,41.7c0,0.8-0.3,1.4-0.9,1.9c-0.5,0.5-1.2,0.9-1.9,0.9
		c-0.8,0-1.5-0.3-2.1-0.9c-0.5-0.5-0.9-1.2-0.9-1.9l-0.1-53.2v-0.1v-0.1v-0.1c0,0,0.1,0,0.1-0.1v0v-0.1c0-0.1,0.1-0.3,0.2-0.6
		l0.1-0.1V118l0.1-0.1v0c0,0,0.1,0,0.1-0.1c0.1-0.1,0.2-0.2,0.2-0.2s0.1-0.1,0.2-0.1l0.1-0.1c0,0,0-0.1,0.1-0.1h0.1v-0.1h0.1
		c0,0,0-0.1,0.1-0.1h0.1v-0.1h0.1h0.1c0,0,0-0.1,0.1-0.1h0.1c0,0,0,0,0.1,0h0.1l0.1-0.1h0.1h0.1h0.1c0,0,0-0.1,0.1-0.1h0.1h0.1h0.1
		h0.1h0.1h0.1h0.1h0.1h0.1h0.1h0.1l0.1,0.1c0.2,0,0.4,0,0.6,0.1l0.1,0.1c0,0,0,0.1,0.1,0.1l0.1,0.1c0,0,0.1,0,0.1,0.1
		c0.1,0.1,0.3,0.2,0.4,0.3c0,0,0,0.1,0.1,0.1v0.1l0.1,0.1v0.1c0,0,0.1,0,0.1,0.1l0.1,0.1v0.1l0.1,0.1l12,23.4l11.9-23.4v-0.1
		l0.1-0.1v-0.3h0.1l0,0l0.1-0.1c0,0,0-0.1,0.1-0.1v-0.1c0.2-0.2,0.3-0.3,0.4-0.4c0,0,0-0.1,0.1-0.1h0.1c0,0,0-0.1,0.1-0.1v-0.1h0.1
		h0.1c0,0,0-0.1,0.1-0.1c0,0,0.1-0.1,0.2-0.1c0.1,0,0.2,0,0.3-0.1h0.1h0.1c0,0,0-0.1,0.1-0.1h0.1h0.1h0.1h0.1h0.1h0.1h0.1h0.1h0.1
		h0.1v0.1h0.1h0.1h0.1h0.1v0.1h0.1l0.1,0.1h0.1l0.1,0.1h0.1v0.1h0.1v0.1h0.1l0.1,0.1c0,0,0.1,0,0.1,0.1h0.1l0.1,0.1
		c0.1,0,0.2,0.2,0.3,0.4c0,0,0.1,0,0.1,0.1l0.1,0.1v0.1l0.1,0.1l0.1,0.1c0.1,0.2,0.1,0.4,0.1,0.5v0.1h0.1v0.1v0.1v0.1v0.1v0.1v0.1
		L232.5,172.6z"/>
	<path class="st1" d="M264.1,170.6c0.5,0.5,0.9,1.2,0.9,2.1c0,0.8-0.3,1.4-0.9,1.9c-0.5,0.5-1.2,0.9-2.1,0.9h-20.9
		c-0.8,0-1.5-0.3-2.1-0.9c-0.5-0.5-0.9-1.2-0.9-1.9l-0.1-53.2c0-0.8,0.3-1.4,0.9-1.9c0.5-0.5,1.2-0.9,2.1-0.9h20.9
		c0.8,0,1.5,0.3,2.1,0.9c0.5,0.5,0.9,1.2,0.9,1.9c0,0.8-0.3,1.5-0.9,2.1c-0.5,0.5-1.2,0.9-2.1,0.9h-18.2v24.2h13.6
		c0.8,0,1.4,0.3,1.9,0.9c0.5,0.5,0.8,1.2,0.8,2.1c0,0.8-0.2,1.4-0.8,1.9c-0.5,0.5-1.2,0.9-1.9,0.9h-13.6V170h18.2
		C262.9,169.7,263.5,170,264.1,170.6z"/>
	<path class="st1" d="M321.4,175.2h-6.1H311c-0.8,0-1.4-0.3-1.9-0.9c-0.5-0.5-0.8-1.2-0.8-1.9l-0.1-53.2c0-0.8,0.2-1.4,0.8-1.9
		c0.5-0.5,1.2-0.9,1.9-0.9h4.3h6.1c1.6,0,3.1,0.3,4.7,0.9c1.5,0.5,2.9,1.4,4.1,2.6c1.2,1.2,2.2,2.6,2.9,4.4c0.8,1.8,1.2,3.9,1.2,6.3
		v30.4c0,2.5-0.3,4.5-1.1,6.4c-0.8,1.7-1.7,3.2-2.9,4.4c-1.2,1.2-2.6,2.1-4.1,2.6C324.5,175,322.9,175.2,321.4,175.2z M313.7,169.7
		h1.6h6.1c1.9,0,3.6-0.6,4.9-1.8c1.6-1.5,2.5-3.8,2.5-6.8v-30.4c0-2.9-0.9-5.2-2.5-6.8c-1.4-1.2-3-1.8-4.9-1.8h-6.1h-1.6V169.7z"/>
	<path class="st1" d="M365.4,170.4c0.5,0.5,0.9,1.2,0.9,2.1c0,0.8-0.3,1.4-0.9,1.9c-0.5,0.5-1.2,0.9-2.1,0.9h-20.9
		c-0.8,0-1.5-0.3-2.1-0.9c-0.5-0.5-0.9-1.2-0.9-1.9l-0.1-53.2c0-0.8,0.3-1.4,0.9-1.9c0.5-0.5,1.2-0.9,2.1-0.9h20.9
		c0.8,0,1.5,0.3,2.1,0.9c0.5,0.5,0.9,1.2,0.9,1.9c0,0.8-0.3,1.5-0.9,2.1c-0.5,0.5-1.2,0.9-2.1,0.9h-18.2v24.2h13.6
		c0.8,0,1.4,0.3,1.9,0.9s0.8,1.2,0.8,2.1c0,0.8-0.2,1.4-0.8,1.9s-1.2,0.9-1.9,0.9h-13.6v17.7h18.2
		C364.1,169.6,364.9,169.9,365.4,170.4z"/>
	<path class="st1" d="M396.3,116.5c0.8,0.1,1.4,0.5,1.8,1.2c0.4,0.6,0.5,1.4,0.4,2.1l-10.6,52.7c-0.1,0.6-0.5,1.2-1,1.6
		c-0.5,0.4-1.1,0.6-1.7,0.6h-0.1h-0.2c-0.6,0-1.2-0.2-1.7-0.6c-0.5-0.4-0.9-1-1-1.6l-10.7-52.7c-0.1-0.8,0-1.4,0.4-2.1
		c0.4-0.6,1-1.1,1.7-1.2c0.8-0.1,1.4,0,2.1,0.4c0.6,0.4,1.1,1.1,1.2,1.7l8.2,40l8.1-40c0.1-0.8,0.5-1.3,1.2-1.7
		C394.9,116.5,395.5,116.4,396.3,116.5z"/>
	<path class="st1" d="M414.4,175.4c-3.7,0-6.8-1.1-9.3-3.1c-1-0.9-1.9-2.2-2.9-3.8c-1-1.7-1.5-4-1.5-7c0-0.8,0.3-1.4,0.9-1.9
		c0.5-0.5,1.2-0.8,2.1-0.8c0.8,0,1.4,0.2,1.9,0.8c0.5,0.5,0.8,1.2,0.8,1.9c0,1.7,0.2,3.1,0.8,4.2c0.5,1.1,1.2,1.9,1.9,2.6
		c0.8,0.6,1.6,1,2.6,1.3c1,0.2,1.9,0.3,2.9,0.3c0.5,0,1.3-0.1,2.3-0.2c1-0.1,1.9-0.5,2.9-1.1c1-0.5,1.7-1.4,2.5-2.5
		c0.8-1.1,1.1-2.7,1.1-4.7s-0.3-3.7-0.9-5.1c-0.5-1.5-1.3-2.8-2.3-3.9c-1-1.2-2.1-2.3-3.4-3.2c-1.3-1-2.6-1.9-4-2.9
		c-1.3-0.9-2.6-1.8-3.8-2.8c-1.3-1-2.5-2.1-3.6-3.4c-2.5-2.9-3.8-6.3-3.8-10.1c0-0.2,0-0.6,0-1.3c0-0.6,0.1-1.4,0.3-2.2
		c0.4-2.7,1.5-5,3.1-6.7c2.4-2.5,5.5-3.7,9.5-3.7c4,0,7.1,1.2,9.4,3.7c0.8,0.9,1.4,1.9,1.9,3c0.4,1.2,0.8,2.4,0.9,3.8
		c0.1,1,0.1,1.7,0.1,2.4s-0.1,1.1-0.1,1.2c-0.1,0.6-0.3,1.3-0.5,1.8c-0.2,0.4-0.5,0.8-1,1.1c-0.3,0.3-1,0.4-1.6,0.3
		c-0.8-0.1-1.3-0.4-1.6-0.9c-0.3-0.4-0.5-0.9-0.6-1.4c-0.1-0.5-0.2-1.2-0.1-1.8c0.1-0.8,0.1-1.4,0-2.2c-0.1-0.5-0.2-1.2-0.4-1.9
		c-0.2-0.8-0.5-1.4-1.1-1.9c-1.1-1.3-2.8-1.8-5.2-1.8s-4.2,0.6-5.4,2.1c-0.5,0.5-1,1.2-1.3,1.9s-0.4,1.4-0.5,1.9
		c-0.1,0.8-0.2,1.4-0.1,2.2v0.2c0,1.3,0.2,2.5,0.6,3.6c0.4,1.1,1,2.1,1.7,2.9c0.8,0.9,1.7,1.7,2.8,2.6c1.1,0.9,2.3,1.8,3.7,2.8
		c1.5,1,3,2.1,4.4,3.2c1.4,1.1,2.8,2.5,4.1,4c2.8,3.5,4.3,7.6,4.3,12.4c0,2.4-0.4,4.5-1.2,6.3c-0.9,1.7-1.8,3.2-3.2,4.3
		c-1.3,1.1-2.8,1.9-4.5,2.5C417.9,175.1,416.2,175.4,414.4,175.4z"/>
	<path class="st1" d="M482.3,176c-4,0-7.1-1.3-9.4-3.8c-1.7-1.9-2.8-4.4-3.4-7.5c-0.1-1-0.2-1.7-0.2-2.5c0-0.6,0-1.2,0.1-1.4V130
		c0-2.4,0.3-4.5,1.1-6.3c0.8-1.8,1.7-3.2,2.9-4.4c1.2-1.2,2.6-2.1,4.1-2.6c1.5-0.5,3-0.9,4.7-0.9c1,0,2.3,0.2,3.9,0.5
		s3.2,1.2,4.9,2.6c0.5,0.4,1.1,1,1.6,1.6c0.5,0.6,1,1.4,1.4,2.4s0.8,1.9,1.1,3.1c0.3,1.2,0.4,2.5,0.4,3.9v31.5c0,0.2,0,0.6,0,1.3
		c0,0.6-0.1,1.4-0.2,2.4c-0.5,2.9-1.6,5.3-3.4,7.1C489.5,174.7,486.3,176,482.3,176z M474.9,161.1c0,0,0,0.3,0,0.9
		c0,0.5,0,1.2,0.1,1.9c0.1,0.8,0.3,1.5,0.6,2.4c0.3,0.9,0.8,1.6,1.4,2.2c1.2,1.3,2.9,1.8,5.2,1.8c2.4,0,4.2-0.6,5.4-1.9
		c0.5-0.6,1-1.3,1.3-2.1c0.3-0.8,0.5-1.5,0.6-2.2c0.1-0.6,0.2-1.3,0.2-1.7c0-0.4,0-0.8,0-0.8v-0.1v-31.5c0-1.9-0.3-3.6-1-4.7
		c-0.6-1.1-1.4-1.9-2.2-2.6c-0.9-0.5-1.7-1-2.6-1.1c-0.9-0.1-1.5-0.2-1.9-0.2c-1.9,0-3.6,0.6-4.9,1.8c-1.6,1.5-2.5,3.8-2.5,6.8v30.9
		L474.9,161.1z"/>
	<path class="st1" d="M525.3,117c0.5,0.5,0.9,1.2,0.9,1.9c0,0.8-0.3,1.5-0.9,2.1c-0.5,0.5-1.2,0.9-2.1,0.9h-16.2v24.2h11.7
		c0.8,0,1.4,0.3,1.9,0.9s0.8,1.2,0.8,2.1c0,0.8-0.2,1.4-0.8,1.9s-1.2,0.9-1.9,0.9h-11.7v20.6c0,0.8-0.3,1.4-0.9,1.9
		c-0.5,0.5-1.2,0.9-1.9,0.9c-0.8,0-1.5-0.3-2.1-0.9c-0.5-0.5-0.9-1.2-0.9-1.9l-0.1-53.2c0-0.8,0.3-1.4,0.9-1.9
		c0.5-0.5,1.2-0.9,2.1-0.9h18.9C524,116.2,524.8,116.5,525.3,117z"/>
	<path class="st1" d="M579.1,175c-3.9,0-7-1.3-9.3-3.8c-0.9-0.9-1.6-1.9-2.2-3.2c-0.5-1.3-1-2.7-1.2-4.2c-0.1-1-0.2-1.7-0.2-2.5
		c0-0.6,0-1.2,0-1.4v-30.4c0-2.4,0.3-4.5,1.1-6.3c0.8-1.8,1.7-3.2,2.9-4.4c1.2-1.2,2.6-2.1,4.1-2.6c1.5-0.5,3-0.9,4.5-0.9
		c1,0,2.3,0.2,3.9,0.5c1.6,0.3,3.2,1.2,4.8,2.6c1.1,0.9,2.1,2.2,3,3.9c1,1.7,1.5,4.1,1.5,7c0,0.8-0.3,1.5-0.9,2.1
		c-0.5,0.5-1.2,0.9-2.1,0.9c-0.8,0-1.5-0.3-2.1-0.9c-0.5-0.5-0.9-1.2-0.9-2.1c0-1.9-0.3-3.5-0.9-4.7c-0.6-1.1-1.3-1.9-2.2-2.5
		c-0.9-0.5-1.6-0.9-2.5-1.1c-0.9-0.1-1.4-0.2-1.9-0.2c-0.9,0-1.7,0.1-2.6,0.4s-1.5,0.8-2.1,1.3c-1.6,1.5-2.5,3.7-2.5,6.6v30.5v0.2
		c0,0,0,0.3,0,0.9s0,1.1,0.1,1.8c0.1,0.8,0.3,1.5,0.6,2.3c0.3,0.9,0.8,1.5,1.3,2.2c1.2,1.3,2.9,1.8,5.1,1.8c2.4,0,4.1-0.6,5.3-1.9
		c0.5-0.6,1-1.3,1.3-2.1c0.3-0.8,0.5-1.4,0.6-2.2c0.1-0.6,0.2-1.5,0.2-2.5c0-0.8,0.2-1.5,0.8-2.1c0.5-0.5,1.2-0.9,1.9-1
		c0.8,0,1.4,0.2,2.1,0.8c0.6,0.5,1,1.2,1,1.9c0,0.1,0,0.5,0,1.2s-0.1,1.5-0.3,2.6c-0.4,2.9-1.6,5.3-3.4,7.1
		C586.1,173.8,583,175,579.1,175z"/>
	<path class="st1" d="M610.4,175.7c-4,0-7.1-1.3-9.4-3.8c-1.7-1.9-2.8-4.4-3.4-7.5c-0.1-1-0.2-1.7-0.2-2.5c0-0.6,0-1.2,0.1-1.4
		v-30.8c0-2.4,0.3-4.5,1.1-6.3c0.8-1.8,1.7-3.2,2.9-4.4s2.6-2.1,4.1-2.6c1.5-0.5,3-0.9,4.7-0.9c1,0,2.3,0.2,3.9,0.5
		c1.6,0.3,3.2,1.2,4.9,2.6c0.5,0.4,1.1,1,1.6,1.6c0.5,0.6,1,1.4,1.4,2.4c0.4,1,0.8,1.9,1.1,3.1s0.4,2.5,0.4,3.9v31.5
		c0,0.2,0,0.6,0,1.3c0,0.6-0.1,1.4-0.2,2.4c-0.5,2.9-1.6,5.3-3.4,7.1C617.6,174.5,614.4,175.7,610.4,175.7z M603,160.9
		c0,0,0,0.3,0,0.9c0,0.5,0,1.2,0.1,1.9s0.3,1.5,0.6,2.4c0.3,0.9,0.8,1.6,1.4,2.2c1.2,1.3,2.9,1.8,5.2,1.8c2.4,0,4.2-0.6,5.4-1.9
		c0.5-0.6,1-1.3,1.3-2.1c0.3-0.8,0.5-1.5,0.6-2.2s0.2-1.3,0.2-1.7c0-0.4,0-0.8,0-0.8v-0.1v-31.5c0-1.9-0.3-3.6-1-4.7
		c-0.6-1.1-1.4-1.9-2.2-2.6c-0.9-0.5-1.7-1-2.6-1.1c-0.9-0.1-1.5-0.2-1.9-0.2c-1.9,0-3.6,0.6-4.9,1.8c-1.6,1.5-2.5,3.8-2.5,6.8v30.9
		v0H603z"/>
	<path class="st1" d="M653.9,174.8h-21c-0.8,0-1.4-0.3-1.9-0.9c-0.5-0.5-0.9-1.2-0.9-1.9l-0.1-53.2c0-0.8,0.3-1.4,0.9-1.9
		c0.5-0.5,1.2-0.9,1.9-0.9c0.8,0,1.4,0.3,1.9,0.9c0.5,0.5,0.8,1.2,0.8,1.9l0.1,50.4h18.3c0.8,0,1.4,0.3,1.9,0.9s0.9,1.2,0.9,2.1
		c0,0.8-0.3,1.4-0.9,1.9C655.3,174.6,654.6,174.8,653.9,174.8z"/>
	<path class="st1" d="M672.9,175.6c-4,0-7.1-1.3-9.4-3.8c-1.7-1.9-2.8-4.4-3.4-7.5c-0.1-1-0.2-1.7-0.2-2.5c0-0.6,0-1.2,0.1-1.4
		v-30.8c0-2.4,0.3-4.5,1.1-6.3c0.8-1.8,1.7-3.2,2.9-4.4s2.6-2.1,4.1-2.6c1.5-0.5,3-0.9,4.7-0.9c1,0,2.3,0.2,3.9,0.5
		c1.6,0.3,3.2,1.2,4.9,2.6c0.5,0.4,1.1,1,1.6,1.6c0.5,0.6,1,1.4,1.4,2.4c0.4,1,0.8,1.9,1.1,3.1s0.4,2.5,0.4,3.9v31.5
		c0,0.2,0,0.6,0,1.3c0,0.6-0.1,1.4-0.2,2.4c-0.5,2.9-1.6,5.3-3.4,7.1C680.1,174.3,676.9,175.6,672.9,175.6z M665.6,160.8
		c0,0,0,0.3,0,0.9c0,0.5,0,1.2,0.1,1.9s0.3,1.5,0.6,2.4c0.3,0.9,0.8,1.6,1.4,2.2c1.2,1.3,2.9,1.8,5.2,1.8c2.4,0,4.2-0.6,5.4-1.9
		c0.5-0.6,1-1.3,1.3-2.1c0.3-0.8,0.5-1.5,0.6-2.2s0.2-1.3,0.2-1.7c0-0.4,0-0.8,0-0.8v-0.2v-31.5c0-1.9-0.3-3.6-1-4.7
		c-0.6-1.1-1.4-1.9-2.2-2.6c-0.9-0.5-1.7-1-2.6-1.1c-0.9-0.1-1.5-0.2-1.9-0.2c-1.9,0-3.6,0.6-4.9,1.8c-1.6,1.5-2.5,3.8-2.5,6.8v30.9
		v0.1H665.6z"/>
	<path class="st1" d="M719.9,170.8c0.3,0.8,0.3,1.4,0.1,2.2c-0.2,0.8-0.8,1.2-1.5,1.5c-0.2,0.1-0.4,0.2-0.5,0.2c-0.2,0-0.3,0-0.5,0
		c-0.5,0-1.1-0.1-1.5-0.4c-0.4-0.2-0.8-0.6-1.1-1.3l-9.5-21.7H697v20.7c0,0.8-0.3,1.4-0.9,1.9c-0.5,0.5-1.2,0.8-2.1,0.8
		c-0.8,0-1.4-0.2-1.9-0.8c-0.5-0.5-0.9-1.2-0.9-1.9l-0.1-53.1c0-0.8,0.3-1.5,0.9-2.1c0.5-0.5,1.2-0.9,1.9-0.9h11.8
		c1.7,0,3.4,0.5,4.9,1.5c1.5,1,2.9,2.5,4.1,4.3c1.1,1.7,1.8,3.6,2.5,5.6c0.5,2.1,0.9,4.1,0.9,6.3s-0.3,4.2-0.9,6.3
		c-0.5,2.1-1.4,3.9-2.5,5.6c-1.3,2.1-2.7,3.5-4.2,4.3L719.9,170.8z M697,145.8h8.9c0.6,0,1.4-0.3,2.2-0.9c0.8-0.5,1.4-1.4,2.1-2.4
		c0.8-1.2,1.4-2.6,1.8-4.1c0.4-1.5,0.6-3.1,0.6-4.8c0-1.6-0.2-3.1-0.6-4.7c-0.4-1.5-1.1-2.9-1.8-4.1c-0.6-1.1-1.3-1.8-2.1-2.4
		c-0.8-0.5-1.5-0.9-2.2-0.9H697V145.8z"/>
	<path class="st1" d="M787.4,169.8c0.5,0.5,0.9,1.2,0.9,2.1c0,0.8-0.3,1.4-0.9,1.9c-0.5,0.5-1.2,0.9-2.1,0.9h-20.9
		c-0.8,0-1.5-0.3-2.1-0.9c-0.5-0.5-0.9-1.2-0.9-1.9l-0.1-53.2c0-0.8,0.3-1.4,0.9-1.9c0.5-0.5,1.2-0.9,2.1-0.9h20.9
		c0.8,0,1.4,0.3,2.1,0.9c0.5,0.5,0.9,1.2,0.9,1.9s-0.3,1.5-0.9,2.1c-0.5,0.5-1.2,0.9-2.1,0.9H767v24.2h13.6c0.8,0,1.4,0.3,1.9,0.9
		s0.8,1.2,0.8,2.1c0,0.8-0.2,1.4-0.8,1.9c-0.5,0.5-1.2,0.9-1.9,0.9H767v17.7h18.2C786.2,168.9,786.8,169.3,787.4,169.8z"/>
	<path class="st1" d="M819.4,172.8c-0.3,0.8-0.9,1.2-1.6,1.5c-0.2,0.1-0.5,0.1-1,0.1c-0.5,0-1.1-0.1-1.6-0.4
		c-0.5-0.3-0.9-0.8-1.1-1.3l-8-20.6l-7.9,20.7c-0.2,0.5-0.5,1-1,1.3c-0.4,0.3-1,0.4-1.6,0.4c-0.4,0-0.8,0-1-0.1
		c-0.8-0.2-1.3-0.8-1.6-1.4c-0.3-0.8-0.3-1.4-0.1-2.2l8.3-21.7l1.8-4.5l-9.4-24.3c-0.2-0.8-0.2-1.4,0-2.2c0.3-0.8,0.8-1.2,1.5-1.5
		c0.8-0.2,1.4-0.2,2.2,0c0.8,0.3,1.2,0.8,1.5,1.5l7.1,18.5l7.1-18.6c0.2-0.8,0.8-1.3,1.4-1.5c0.6-0.3,1.4-0.3,2.2,0
		c0.8,0.2,1.3,0.8,1.6,1.4c0.3,0.8,0.3,1.4,0.1,2.2l-9.4,24.3l10.3,26.3C819.7,171.4,819.7,172.2,819.4,172.8z"/>
	<path class="st1" d="M848.8,121.4c1.1,1.7,1.8,3.6,2.5,5.6c0.5,2.1,0.9,4.1,0.9,6.3c0,2.2-0.3,4.2-0.9,6.3
		c-0.5,2.1-1.4,3.9-2.5,5.6c-1.2,1.8-2.6,3.2-4.1,4.2c-1.5,1-3.1,1.5-4.9,1.5H831v20.7c0,0.8-0.2,1.4-0.8,1.9s-1.2,0.8-1.9,0.8
		c-0.8,0-1.4-0.2-1.9-0.8c-0.5-0.5-0.9-1.2-0.9-1.9l-0.1-53.1c0-1.1,0.4-1.9,1.4-2.5c0.3-0.3,0.9-0.4,1.4-0.4h11.6
		c1.7,0,3.4,0.5,4.9,1.5C846.2,118.2,847.7,119.6,848.8,121.4z M844.1,142.2c0.8-1.2,1.4-2.6,1.8-4.1s0.6-3.1,0.6-4.8
		c0-1.6-0.2-3.1-0.6-4.7c-0.4-1.5-1.1-2.9-1.8-4.1c-0.6-1.1-1.3-1.8-2.1-2.4c-0.8-0.5-1.5-0.9-2.2-0.9H831v24.2h8.9
		c0.6,0,1.4-0.3,2.2-0.9C842.8,144,843.5,143.3,844.1,142.2z"/>
	<path class="st1" d="M869.8,175.4c-4,0-7.1-1.3-9.4-3.8c-1.7-1.8-2.8-4.4-3.4-7.5c-0.1-1-0.2-1.7-0.2-2.5c0-0.6,0-1.2,0.1-1.4
		v-30.8c0-2.4,0.3-4.5,1.1-6.3c0.8-1.8,1.7-3.2,2.9-4.4c1.2-1.2,2.6-2.1,4.1-2.6c1.5-0.5,3-0.9,4.7-0.9c1,0,2.3,0.2,3.9,0.5
		c1.6,0.3,3.2,1.2,4.9,2.6c0.5,0.4,1.1,1,1.6,1.6c0.5,0.6,1,1.4,1.4,2.4c0.4,1,0.8,1.9,1.1,3.1c0.3,1.2,0.4,2.5,0.4,3.9v31.5
		c0,0.2,0,0.6,0,1.3c0,0.6-0.1,1.4-0.2,2.4c-0.5,2.9-1.6,5.3-3.4,7.1C877.1,174.1,873.8,175.3,869.8,175.4z M862.5,160.5
		c0,0,0,0.3,0,0.9s0,1.2,0.1,1.9c0.1,0.8,0.3,1.5,0.6,2.4s0.8,1.6,1.4,2.2c1.2,1.3,2.9,1.8,5.2,1.8c2.4,0,4.2-0.6,5.4-1.9
		c0.5-0.6,1-1.3,1.3-2.1s0.5-1.5,0.6-2.2c0.1-0.6,0.2-1.3,0.2-1.7s0-0.8,0-0.8v-0.1v-31.5c0-1.9-0.3-3.6-1-4.7s-1.4-1.9-2.2-2.6
		c-0.9-0.5-1.7-1-2.6-1.1c-0.9-0.1-1.5-0.2-1.9-0.2c-1.9,0-3.6,0.6-4.9,1.8c-1.6,1.5-2.5,3.8-2.5,6.8v30.9l0,0H862.5z"/>
</g>
<polygon class="st1" points="135,220 92.9,210.7 134.9,210.7 "/>
<polygon class="st1" points="885.2,220 927.2,210.7 885.3,210.7 "/>
<g class="st3">
	<g>
		<path class="st1" d="M183.8,67.4h-11.9v-1.6l6.3-7c1-1.1,1.5-1.9,1.9-2.6c0.3-0.6,0.5-1.3,0.5-2.1c0-1-0.3-1.7-0.9-2.4
			c-0.5-0.6-1.3-0.9-2.3-0.9c-1.2,0-2.1,0.3-2.7,1c-0.6,0.6-1,1.5-1,2.7h-2.3c0-1.6,0.5-3,1.6-4c1.1-1,2.5-1.5,4.3-1.5
			c1.7,0,3,0.4,4,1.3c1,0.9,1.5,2.1,1.5,3.6c0,1.7-1.1,3.9-3.4,6.4l-4.9,5.3h9.1L183.8,67.4z"/>
		<path class="st1" d="M198.6,59.8c0,2.7-0.4,4.7-1.4,6.1c-1,1.3-2.4,1.9-4.3,1.9s-3.4-0.6-4.3-1.9c-1-1.3-1.4-3.2-1.4-5.7v-3
			c0-2.7,0.4-4.7,1.4-6c1-1.3,2.4-1.9,4.3-1.9s3.4,0.6,4.3,1.8c1,1.3,1.4,3.1,1.4,5.7V59.8z M196.2,56.6c0-1.9-0.3-3.4-0.9-4.2
			c-0.5-0.9-1.4-1.3-2.6-1.3s-2.1,0.4-2.6,1.3c-0.5,0.9-0.9,2.3-0.9,4.1v3.7c0,1.9,0.3,3.4,0.9,4.3c0.5,1,1.4,1.4,2.6,1.4
			c1.2,0,1.9-0.4,2.5-1.3s0.9-2.3,0.9-4.1L196.2,56.6z"/>
		<path class="st1" d="M210.1,67.4h-2.3V52.1l-4.7,1.7v-2.1l6.6-2.5h0.3V67.4z"/>
		<path class="st1" d="M226.7,59.4c-0.4,0.5-1.1,1.1-1.7,1.4c-0.6,0.3-1.4,0.5-2.2,0.5c-1.1,0-1.9-0.2-2.7-0.8
			c-0.8-0.5-1.4-1.2-1.8-2.2c-0.4-1-0.6-1.9-0.6-3.1c0-1.2,0.2-2.3,0.6-3.2c0.4-1,1.1-1.7,1.9-2.3c0.9-0.5,1.8-0.8,2.9-0.8
			c1.8,0,3.2,0.6,4.2,2.1c1.1,1.3,1.5,3.1,1.5,5.5v0.6c0,3.6-0.6,6.1-2.1,7.7c-1.4,1.6-3.5,2.5-6.3,2.5h-0.4v-1.9h0.4
			c1.9,0,3.4-0.5,4.3-1.5C226.1,63,226.6,61.5,226.7,59.4z M223.2,59.4c0.8,0,1.5-0.2,2.2-0.8c0.6-0.5,1.1-1.1,1.4-1.7v-1
			c0-1.5-0.3-2.7-1-3.7c-0.6-1-1.5-1.4-2.5-1.4s-1.8,0.4-2.5,1.2c-0.6,0.8-0.9,1.8-0.9,3s0.3,2.3,0.9,3
			C221.3,59,222.2,59.4,223.2,59.4z"/>
	</g>
</g>
</svg>
