<?xml version="1.0" encoding="utf-8"?>
<!-- Generator: Adobe Illustrator 23.0.1, SVG Export Plug-In . SVG Version: 6.00 Build 0)  -->
<svg version="1.1" id="Layer_1" xmlns="http://www.w3.org/2000/svg" xmlns:xlink="http://www.w3.org/1999/xlink" x="0px" y="0px"
	 viewBox="0 0 1024 234" style="enable-background:new 0 0 1024 234;" xml:space="preserve">
<style type="text/css">
	.st0{fill:#221F1F;}
	.st1{fill:#FFFFFF;}
	.st2{fill:#36B24A;}
	.st3{opacity:0.9;}
</style>
<g>
	<path class="st0" d="M60.1,210.4L93,166.6c0.3-0.3,0.3-0.8,0-1.2L60,115.9h104.3v94.4H60.1z"/>
	<path class="st1" d="M163.3,116.9v92.4H62.2l31.7-42.2c0.5-0.7,0.5-1.6,0.1-2.3l-32-48H163.3 M165.3,114.9H58.1L92.2,166
		l-34.1,45.4h107.2V114.9L165.3,114.9z"/>
</g>
<g>
	<path class="st0" d="M859.7,210.3v-94.4H964l-33.1,50.7c-0.2,0.4-0.2,0.8,0,1.2l32.9,42.6H859.7z"/>
	<path class="st1" d="M962.2,116.9L930.1,166c-0.5,0.7-0.4,1.6,0.1,2.3l31.6,41H860.7v-92.4H962.2 M965.9,114.9H858.7v96.4h107.2
		l-34.1-44.2L965.9,114.9L965.9,114.9z"/>
</g>
<polygon class="st2" points="225.9,165.3 216.5,152.6 203.6,161.8 198.6,146.8 183.5,151.6 183.4,135.7 167.5,135.7 172.3,120.5 
	157.2,115.6 166.4,102.7 153.7,93.3 166.4,83.9 157.2,71 172.2,66 167.4,50.9 183.2,50.7 183.3,34.9 198.4,39.7 203.4,24.6 
	216.3,33.8 225.7,21 235.1,33.8 248,24.5 253,39.6 268.1,34.8 268.2,50.6 284.1,50.7 279.3,65.8 294.4,70.8 285.1,83.7 297.9,93.1 
	285.2,102.5 294.4,115.4 279.4,120.4 284.2,135.5 268.4,135.6 268.3,151.5 253.2,146.7 248.2,161.7 235.3,152.5 "/>
<g>
	<path class="st0" d="M125,202.1c-0.4,0-0.8-0.3-0.8-0.8v-116c0-0.4,0.3-0.8,0.8-0.8H899c0.4,0,0.8,0.3,0.8,0.8v116
		c0,0.4-0.3,0.8-0.8,0.8H125z"/>
	<path class="st1" d="M898.7,85.6v115.5H125.3V85.6H898.7 M899,83.6H125c-1,0-1.8,0.8-1.8,1.8v116c0,1,0.8,1.8,1.8,1.8H899
		c1,0,1.8-0.8,1.8-1.8v-116C900.7,84.4,899.9,83.6,899,83.6L899,83.6z"/>
</g>
<g>
	<path class="st1" d="M178.8,170.9c-3.7,0-6.6-1.2-8.6-3.5c-1.7-1.7-2.7-4-3.1-6.9c-0.1-0.8-0.2-1.6-0.2-2.2c0-0.6,0-1.1,0-1.3
		l0-28.6c0-2.2,0.3-4.2,1-5.8c0.7-1.7,1.6-3,2.7-4.1c1.1-1.1,2.4-1.9,3.8-2.4c1.4-0.5,2.8-0.8,4.3-0.8c3.1,0,5.8,1,8,2.9
		c0.9,0.8,1.8,2.1,2.7,3.7c0.9,1.6,1.3,3.8,1.3,6.5c0,0.7-0.3,1.3-0.8,1.8s-1.1,0.8-1.8,0.8c-0.7,0-1.4-0.3-1.9-0.8
		c-0.5-0.5-0.8-1.1-0.8-1.8c0-1.8-0.3-3.3-0.8-4.4c-0.6-1.1-1.2-1.9-1.9-2.4c-0.7-0.5-1.5-0.9-2.2-1c-0.8-0.1-1.3-0.2-1.7-0.2
		c-1.8,0-3.3,0.6-4.5,1.7c-1.5,1.4-2.3,3.5-2.3,6.3l0,28.8l0,0.1c0,0,0,0.3,0,0.8c0,0.5,0,1,0.1,1.7c0.1,0.7,0.3,1.4,0.6,2.2
		c0.3,0.8,0.7,1.5,1.3,2c1.1,1.2,2.7,1.7,4.8,1.7c2.3,0,4-0.6,5-1.8c0.5-0.6,0.9-1.2,1.2-2c0.3-0.7,0.5-1.4,0.6-2
		c0.1-0.6,0.2-1.4,0.2-2.3v-0.1l0-9.3l-5.1,0c-0.7,0-1.4-0.3-1.9-0.8c-0.5-0.5-0.8-1.1-0.8-1.9c0-0.7,0.3-1.3,0.8-1.8
		c0.5-0.5,1.1-0.8,1.9-0.8l10.2,0l0,14.3c0,0.2,0.1,0.6,0,1.2c0,0.6-0.1,1.4-0.3,2.2c-0.5,2.7-1.6,4.9-3.1,6.6
		C185.4,169.8,182.4,170.9,178.8,170.9z"/>
	<path class="st1" d="M219.4,168c0.1,0.7,0,1.3-0.4,1.9c-0.4,0.6-0.9,0.9-1.5,1.1l-0.4,0c-0.5,0-1-0.2-1.5-0.5
		c-0.5-0.4-0.7-0.8-0.8-1.3l-2-9.5l-11.8,0L199,169c-0.1,0.5-0.4,1-0.8,1.4c-0.5,0.4-1,0.5-1.6,0.5l-0.4,0c-0.6-0.1-1.1-0.5-1.5-1.1
		c-0.4-0.6-0.5-1.2-0.3-1.9l10.1-50.5c0-0.2,0.1-0.3,0.1-0.4v-0.1V117c0.1-0.2,0.2-0.4,0.4-0.5l0-0.1h0.1v-0.1h0.1v-0.1h0.1v-0.1
		h0.1c0.1-0.1,0.2-0.2,0.3-0.2c0.1,0,0.2-0.1,0.4-0.1l0-0.1h0.1c0.1,0,0.2-0.1,0.3-0.1c0.1,0,0.2,0,0.3-0.1h0.1l0.1,0h0.1
		c0.1,0,0.2,0.1,0.3,0.1c0.1,0,0.2,0,0.3,0.1h0.1l0,0.1c0.2,0,0.3,0.1,0.4,0.1c0.1,0,0.2,0.1,0.3,0.2h0.1v0.1h0.1v0.1h0.1v0.1
		l0.1,0.1c0,0.1,0.1,0.2,0.2,0.3c0.1,0.1,0.1,0.2,0.2,0.3v0.1v0.1c0,0,0.1,0.2,0.1,0.4L219.4,168z M211.8,154.8l-5.1-24.7l-4.9,24.7
		L211.8,154.8z"/>
	<path class="st1" d="M255.4,167.6c0,0.7-0.2,1.3-0.7,1.8c-0.5,0.5-1.1,0.8-1.8,0.8c-0.7,0-1.3-0.3-1.8-0.8
		c-0.5-0.5-0.8-1.1-0.8-1.8l-0.1-38.5l-8.3,16.3c-0.2,0.7-0.7,1.2-1.2,1.5c-0.5,0.2-0.9,0.3-1.2,0.3c-0.2,0-0.5,0-0.6-0.1
		c-0.2,0-0.4-0.1-0.5-0.2c-0.6-0.3-1.1-0.8-1.3-1.5l-8.3-16.3l0.1,38.5c0,0.7-0.3,1.3-0.8,1.8c-0.5,0.5-1.1,0.8-1.8,0.8
		c-0.7,0-1.4-0.3-1.9-0.8c-0.5-0.5-0.8-1.1-0.8-1.8l-0.1-49.2v-0.1l0-0.1v-0.1c0,0,0.1,0,0.1-0.1V118l0-0.1c0-0.1,0.1-0.3,0.2-0.6
		l0.1-0.1v-0.1l0.1-0.1V117c0,0,0.1,0,0.1-0.1c0.1-0.1,0.2-0.2,0.2-0.2c0,0,0.1-0.1,0.2-0.1l0.1-0.1c0,0,0-0.1,0.1-0.1h0.1l0-0.1
		h0.1c0,0,0-0.1,0.1-0.1h0.1v-0.1h0.1h0.1c0,0,0-0.1,0.1-0.1c0,0,0.1,0,0.1,0c0,0,0,0,0.1,0h0.1l0.1-0.1l0.1,0h0.1h0.1
		c0,0,0-0.1,0.1-0.1h0.1h0.1l0.1,0h0.1h0.1h0.1h0.1h0.1h0.1h0.1h0.1l0.1,0.1c0.2,0,0.4,0,0.6,0.1c0,0,0.1,0.1,0.1,0.1
		c0,0,0,0.1,0.1,0.1l0.1,0.1c0,0,0.1,0,0.1,0.1c0.1,0.1,0.3,0.2,0.4,0.3c0,0,0,0.1,0.1,0.1v0.1l0.1,0.1l0,0.1c0,0,0.1,0,0.1,0.1
		l0.1,0.1v0.1l0.1,0.1l11.1,21.6l11-21.6v-0.1l0.1-0.1V117h0.1V117l0.1-0.1c0,0,0-0.1,0.1-0.1v-0.1c0.2-0.2,0.3-0.3,0.4-0.4
		c0,0,0-0.1,0.1-0.1h0.1c0,0,0-0.1,0.1-0.1v-0.1h0.1h0.1c0,0,0-0.1,0.1-0.1c0,0,0.1-0.1,0.2-0.1c0.1,0,0.2,0,0.3-0.1h0.1h0.1
		c0,0,0-0.1,0.1-0.1l0.1,0h0.1h0.1h0.1h0.1h0.1l0.1,0h0.1h0.1h0.1v0.1h0.1h0.1h0.1h0.1l0,0.1l0.1,0l0.1,0.1h0.1l0.1,0.1h0.1v0.1h0.1
		v0.1h0.1l0.1,0.1c0,0,0.1,0,0.1,0.1h0.1l0.1,0.1c0.1,0,0.2,0.2,0.3,0.4c0,0,0.1,0,0.1,0.1l0.1,0.1v0.1l0.1,0.1l0.1,0.1
		c0.1,0.2,0.1,0.4,0.1,0.5v0.1h0.1l0,0.1v0.1v0.1v0.1l0,0.1v0.1L255.4,167.6z"/>
	<path class="st1" d="M284.6,165.7c0.5,0.5,0.8,1.1,0.8,1.9c0,0.7-0.3,1.3-0.8,1.8c-0.5,0.5-1.1,0.8-1.9,0.8l-19.3,0
		c-0.7,0-1.4-0.3-1.9-0.8c-0.5-0.5-0.8-1.1-0.8-1.8l-0.1-49.2c0-0.7,0.3-1.3,0.8-1.8c0.5-0.5,1.1-0.8,1.9-0.8l19.3,0
		c0.7,0,1.4,0.3,1.9,0.8c0.5,0.5,0.8,1.1,0.8,1.8c0,0.7-0.3,1.4-0.8,1.9c-0.5,0.5-1.1,0.8-1.9,0.8l-16.8,0l0,22.4l12.6,0
		c0.7,0,1.3,0.3,1.8,0.8c0.5,0.5,0.7,1.1,0.7,1.9c0,0.7-0.2,1.3-0.7,1.8c-0.5,0.5-1.1,0.8-1.8,0.8l-12.6,0l0,16.4l16.8,0
		C283.5,164.9,284.1,165.2,284.6,165.7z"/>
	<path class="st1" d="M337.6,170l-5.6,0l-4,0c-0.7,0-1.3-0.3-1.8-0.8c-0.5-0.5-0.7-1.1-0.7-1.8l-0.1-49.2c0-0.7,0.2-1.3,0.7-1.8
		c0.5-0.5,1.1-0.8,1.8-0.8l4,0l5.6,0c1.5,0,2.9,0.3,4.3,0.8c1.4,0.5,2.7,1.3,3.8,2.4c1.1,1.1,2,2.4,2.7,4.1c0.7,1.7,1.1,3.6,1.1,5.8
		l0,28.1c0,2.3-0.3,4.2-1,5.9c-0.7,1.6-1.6,3-2.7,4.1c-1.1,1.1-2.4,1.9-3.8,2.4C340.5,169.8,339,170,337.6,170z M330.5,164.9l1.5,0
		l5.6,0c1.8,0,3.3-0.6,4.5-1.7c1.5-1.4,2.3-3.5,2.3-6.3l0-28.1c0-2.7-0.8-4.8-2.3-6.3c-1.3-1.1-2.8-1.7-4.5-1.7l-5.6,0l-1.5,0
		L330.5,164.9z"/>
	<path class="st1" d="M378.3,165.6c0.5,0.5,0.8,1.1,0.8,1.9c0,0.7-0.3,1.3-0.8,1.8c-0.5,0.5-1.1,0.8-1.9,0.8l-19.3,0
		c-0.7,0-1.4-0.3-1.9-0.8c-0.5-0.5-0.8-1.1-0.8-1.8l-0.1-49.2c0-0.7,0.3-1.3,0.8-1.8c0.5-0.5,1.1-0.8,1.9-0.8l19.3,0
		c0.7,0,1.4,0.3,1.9,0.8c0.5,0.5,0.8,1.1,0.8,1.8c0,0.7-0.3,1.4-0.8,1.9s-1.1,0.8-1.9,0.8l-16.8,0l0,22.4l12.6,0
		c0.7,0,1.3,0.3,1.8,0.8c0.5,0.5,0.7,1.1,0.7,1.9c0,0.7-0.2,1.3-0.7,1.8c-0.5,0.5-1.1,0.8-1.8,0.8l-12.6,0l0,16.4l16.8,0
		C377.1,164.8,377.8,165.1,378.3,165.6z"/>
	<path class="st1" d="M406.8,115.7c0.7,0.1,1.3,0.5,1.7,1.1c0.4,0.6,0.5,1.3,0.4,1.9l-9.8,48.7c-0.1,0.6-0.5,1.1-0.9,1.5
		c-0.5,0.4-1,0.6-1.6,0.6l-0.1,0h-0.2c-0.6,0-1.1-0.2-1.6-0.6c-0.5-0.4-0.8-0.9-0.9-1.5l-9.9-48.7c-0.1-0.7,0-1.3,0.4-1.9
		c0.4-0.6,0.9-1,1.6-1.1c0.7-0.1,1.3,0,1.9,0.4c0.6,0.4,1,1,1.1,1.6l7.6,37l7.5-37c0.1-0.7,0.5-1.2,1.1-1.6
		C405.5,115.7,406.1,115.6,406.8,115.7z"/>
	<path class="st1" d="M423.6,170.2c-3.4,0-6.3-1-8.6-2.9c-0.9-0.8-1.8-2-2.7-3.5c-0.9-1.6-1.4-3.7-1.4-6.5c0-0.7,0.3-1.3,0.8-1.8
		c0.5-0.5,1.1-0.7,1.9-0.7c0.7,0,1.3,0.2,1.8,0.7c0.5,0.5,0.7,1.1,0.7,1.8c0,1.6,0.2,2.9,0.7,3.9c0.5,1,1.1,1.8,1.8,2.4
		c0.7,0.6,1.5,0.9,2.4,1.2c0.9,0.2,1.8,0.3,2.7,0.3c0.5,0,1.2-0.1,2.1-0.2c0.9-0.1,1.8-0.5,2.7-1c0.9-0.5,1.6-1.3,2.3-2.3
		c0.7-1,1-2.5,1-4.3c0-1.8-0.3-3.4-0.8-4.7c-0.5-1.4-1.2-2.6-2.1-3.6c-0.9-1.1-1.9-2.1-3.1-3c-1.2-0.9-2.4-1.8-3.7-2.7
		c-1.2-0.8-2.4-1.7-3.5-2.6c-1.2-0.9-2.3-1.9-3.3-3.1c-2.3-2.7-3.5-5.8-3.5-9.3c0-0.2,0-0.6,0-1.2c0-0.6,0.1-1.3,0.3-2
		c0.4-2.5,1.4-4.6,2.9-6.2c2.2-2.3,5.1-3.4,8.8-3.4c3.7,0,6.6,1.1,8.7,3.4c0.7,0.8,1.3,1.8,1.8,2.8c0.4,1.1,0.7,2.2,0.8,3.5
		c0.1,0.9,0.1,1.6,0.1,2.2c0,0.6-0.1,1-0.1,1.1c-0.1,0.6-0.3,1.2-0.5,1.7c-0.2,0.4-0.5,0.7-0.9,1c-0.3,0.3-0.9,0.4-1.5,0.3
		c-0.7-0.1-1.2-0.4-1.5-0.8c-0.3-0.4-0.5-0.8-0.6-1.3c-0.1-0.5-0.2-1.1-0.1-1.7c0.1-0.7,0.1-1.3,0-2c-0.1-0.5-0.2-1.1-0.4-1.8
		c-0.2-0.7-0.5-1.3-1-1.8c-1-1.2-2.6-1.7-4.8-1.7c-2.2,0-3.9,0.6-5,1.9c-0.5,0.5-0.9,1.1-1.2,1.8c-0.3,0.7-0.4,1.3-0.5,1.8
		c-0.1,0.7-0.2,1.3-0.1,2l0,0.2c0,1.2,0.2,2.3,0.6,3.3c0.4,1,0.9,1.9,1.6,2.7c0.7,0.8,1.6,1.6,2.6,2.4c1,0.8,2.1,1.7,3.4,2.6
		c1.4,0.9,2.8,1.9,4.1,3c1.3,1,2.6,2.3,3.8,3.7c2.6,3.2,4,7,4,11.5c0,2.2-0.4,4.2-1.1,5.8c-0.8,1.6-1.7,3-3,4
		c-1.2,1-2.6,1.8-4.2,2.3C426.8,169.9,425.2,170.2,423.6,170.2z"/>
	<path class="st1" d="M486.3,170.7c-3.7,0-6.6-1.2-8.7-3.5c-1.6-1.8-2.6-4.1-3.1-6.9c-0.1-0.9-0.2-1.6-0.2-2.3c0-0.6,0-1.1,0.1-1.3
		l0-28.5c0-2.2,0.3-4.2,1-5.8c0.7-1.7,1.6-3,2.7-4.1c1.1-1.1,2.4-1.9,3.8-2.4c1.4-0.5,2.8-0.8,4.3-0.8c0.9,0,2.1,0.2,3.6,0.5
		c1.5,0.3,3,1.1,4.5,2.4c0.5,0.4,1,0.9,1.5,1.5c0.5,0.6,0.9,1.3,1.3,2.2c0.4,0.9,0.7,1.8,1,2.9c0.3,1.1,0.4,2.3,0.4,3.6l0,29.1
		c0,0.2,0,0.6,0,1.2c0,0.6-0.1,1.3-0.2,2.2c-0.5,2.7-1.5,4.9-3.1,6.6C493,169.5,490,170.7,486.3,170.7z M479.5,157c0,0,0,0.3,0,0.8
		c0,0.5,0,1.1,0.1,1.8c0.1,0.7,0.3,1.4,0.6,2.2c0.3,0.8,0.7,1.5,1.3,2c1.1,1.2,2.7,1.7,4.8,1.7c2.2,0,3.9-0.6,5-1.8
		c0.5-0.6,0.9-1.2,1.2-1.9c0.3-0.7,0.5-1.4,0.6-2c0.1-0.6,0.2-1.2,0.2-1.6c0-0.4,0-0.7,0-0.7l0-0.1l0-29.1c0-1.8-0.3-3.3-0.9-4.3
		c-0.6-1-1.3-1.8-2-2.4c-0.8-0.5-1.6-0.9-2.4-1s-1.4-0.2-1.8-0.2c-1.8,0-3.3,0.6-4.5,1.7c-1.5,1.4-2.3,3.5-2.3,6.3l0,28.6L479.5,157
		z"/>
	<path class="st1" d="M526.1,116.2c0.5,0.5,0.8,1.1,0.8,1.8c0,0.7-0.3,1.4-0.8,1.9c-0.5,0.5-1.1,0.8-1.9,0.8l-15,0l0,22.4l10.8,0
		c0.7,0,1.3,0.3,1.8,0.8c0.5,0.5,0.7,1.1,0.7,1.9c0,0.7-0.2,1.3-0.7,1.8c-0.5,0.5-1.1,0.8-1.8,0.8l-10.8,0l0,19
		c0,0.7-0.3,1.3-0.8,1.8s-1.1,0.8-1.8,0.8c-0.7,0-1.4-0.3-1.9-0.8c-0.5-0.5-0.8-1.1-0.8-1.8l-0.1-49.2c0-0.7,0.3-1.3,0.8-1.8
		c0.5-0.5,1.1-0.8,1.9-0.8l17.5,0C524.9,115.5,525.6,115.7,526.1,116.2z"/>
	<path class="st1" d="M575.8,169.8c-3.6,0-6.5-1.2-8.6-3.5c-0.8-0.8-1.5-1.8-2-3c-0.5-1.2-0.9-2.5-1.1-3.9c-0.1-0.9-0.2-1.6-0.2-2.3
		c0-0.6,0-1.1,0-1.3l0-28.1c0-2.2,0.3-4.2,1-5.8c0.7-1.7,1.6-3,2.7-4.1s2.4-1.9,3.8-2.4c1.4-0.5,2.8-0.8,4.2-0.8
		c0.9,0,2.1,0.2,3.6,0.5c1.5,0.3,3,1.1,4.4,2.4c1,0.8,1.9,2,2.8,3.6c0.9,1.6,1.4,3.8,1.4,6.5c0,0.7-0.3,1.4-0.8,1.9
		c-0.5,0.5-1.1,0.8-1.9,0.8c-0.7,0-1.4-0.3-1.9-0.8c-0.5-0.5-0.8-1.1-0.8-1.9c0-1.8-0.3-3.2-0.8-4.3c-0.6-1-1.2-1.8-2-2.3
		c-0.8-0.5-1.5-0.8-2.3-1c-0.8-0.1-1.3-0.2-1.8-0.2c-0.8,0-1.6,0.1-2.4,0.4s-1.4,0.7-1.9,1.2c-1.5,1.4-2.3,3.4-2.3,6.1l0,28.2v0.2
		c0,0,0,0.3,0,0.8c0,0.5,0,1,0.1,1.7s0.3,1.4,0.6,2.1c0.3,0.8,0.7,1.4,1.2,2c1.1,1.2,2.7,1.7,4.7,1.7c2.2,0,3.8-0.6,4.9-1.8
		c0.5-0.6,0.9-1.2,1.2-1.9c0.3-0.7,0.5-1.3,0.6-2c0.1-0.6,0.2-1.4,0.2-2.3c0-0.7,0.2-1.4,0.7-1.9c0.5-0.5,1.1-0.8,1.8-0.9
		c0.7,0,1.3,0.2,1.9,0.7s0.9,1.1,0.9,1.8c0,0.1,0,0.5,0,1.1c0,0.6-0.1,1.4-0.3,2.4c-0.4,2.7-1.5,4.9-3.1,6.6
		C582.3,168.7,579.4,169.8,575.8,169.8z"/>
	<path class="st1" d="M604.7,170.5c-3.7,0-6.6-1.2-8.7-3.5c-1.6-1.8-2.6-4.1-3.1-6.9c-0.1-0.9-0.2-1.6-0.2-2.3c0-0.6,0-1.1,0.1-1.3
		l0-28.5c0-2.2,0.3-4.2,1-5.8c0.7-1.7,1.6-3,2.7-4.1c1.1-1.1,2.4-1.9,3.8-2.4c1.4-0.5,2.8-0.8,4.3-0.8c0.9,0,2.1,0.2,3.6,0.5
		c1.5,0.3,3,1.1,4.5,2.4c0.5,0.4,1,0.9,1.5,1.5c0.5,0.6,0.9,1.3,1.3,2.2c0.4,0.9,0.7,1.8,1,2.9c0.3,1.1,0.4,2.3,0.4,3.6l0,29.1
		c0,0.2,0,0.6,0,1.2c0,0.6-0.1,1.3-0.2,2.2c-0.5,2.7-1.5,4.9-3.1,6.6C611.4,169.3,608.4,170.5,604.7,170.5z M597.9,156.8
		c0,0,0,0.3,0,0.8c0,0.5,0,1.1,0.1,1.8c0.1,0.7,0.3,1.4,0.6,2.2c0.3,0.8,0.7,1.5,1.3,2c1.1,1.2,2.7,1.7,4.8,1.7c2.2,0,3.9-0.6,5-1.8
		c0.5-0.6,0.9-1.2,1.2-1.9c0.3-0.7,0.5-1.4,0.6-2c0.1-0.6,0.2-1.2,0.2-1.6c0-0.4,0-0.7,0-0.7v-0.1l0-29.1c0-1.8-0.3-3.3-0.9-4.3
		c-0.6-1-1.3-1.8-2-2.4c-0.8-0.5-1.6-0.9-2.4-1c-0.8-0.1-1.4-0.2-1.8-0.2c-1.8,0-3.3,0.6-4.5,1.7c-1.5,1.4-2.3,3.5-2.3,6.3l0,28.6
		V156.8z"/>
	<path class="st1" d="M644.9,169.6l-19.4,0c-0.7,0-1.3-0.3-1.8-0.8c-0.5-0.5-0.8-1.1-0.8-1.8l-0.1-49.2c0-0.7,0.3-1.3,0.8-1.8
		c0.5-0.5,1.1-0.8,1.8-0.8c0.7,0,1.3,0.3,1.8,0.8s0.7,1.1,0.7,1.8l0.1,46.6l16.9,0c0.7,0,1.3,0.3,1.8,0.8c0.5,0.5,0.8,1.1,0.8,1.9
		c0,0.7-0.3,1.3-0.8,1.8S645.6,169.6,644.9,169.6z"/>
	<path class="st1" d="M662.5,170.4c-3.7,0-6.6-1.2-8.7-3.5c-1.6-1.8-2.6-4.1-3.1-6.9c-0.1-0.9-0.2-1.6-0.2-2.3c0-0.6,0-1.1,0.1-1.3
		l0-28.5c0-2.2,0.3-4.2,1-5.8c0.7-1.7,1.6-3,2.7-4.1c1.1-1.1,2.4-1.9,3.8-2.4c1.4-0.5,2.8-0.8,4.3-0.8c0.9,0,2.1,0.2,3.6,0.5
		c1.5,0.3,3,1.1,4.5,2.4c0.5,0.4,1,0.9,1.5,1.5c0.5,0.6,0.9,1.3,1.3,2.2c0.4,0.9,0.7,1.8,1,2.9c0.3,1.1,0.4,2.3,0.4,3.6l0,29.1
		c0,0.2,0,0.6,0,1.2c0,0.6-0.1,1.3-0.2,2.2c-0.5,2.7-1.5,4.9-3.1,6.6C669.1,169.2,666.2,170.4,662.5,170.4z M655.7,156.7
		c0,0,0,0.3,0,0.8c0,0.5,0,1.1,0.1,1.8s0.3,1.4,0.6,2.2c0.3,0.8,0.7,1.5,1.3,2c1.1,1.2,2.7,1.7,4.8,1.7c2.2,0,3.9-0.6,5-1.8
		c0.5-0.6,0.9-1.2,1.2-1.9c0.3-0.7,0.5-1.4,0.6-2c0.1-0.6,0.2-1.2,0.2-1.6c0-0.4,0-0.7,0-0.7V157l0-29.1c0-1.8-0.3-3.3-0.9-4.3
		c-0.6-1-1.3-1.8-2-2.4c-0.8-0.5-1.6-0.9-2.4-1c-0.8-0.1-1.4-0.2-1.8-0.2c-1.8,0-3.3,0.6-4.5,1.7c-1.5,1.4-2.3,3.5-2.3,6.3l0,28.6
		V156.7z"/>
	<path class="st1" d="M705.9,165.9c0.3,0.7,0.3,1.3,0.1,2c-0.2,0.7-0.7,1.1-1.4,1.4c-0.2,0.1-0.4,0.2-0.5,0.2c-0.2,0-0.3,0-0.5,0
		c-0.5,0-1-0.1-1.4-0.4c-0.4-0.2-0.7-0.6-1-1.2l-8.8-20.1l-7.6,0l0,19.1c0,0.7-0.3,1.3-0.8,1.8c-0.5,0.5-1.1,0.7-1.9,0.7
		c-0.7,0-1.3-0.2-1.8-0.7c-0.5-0.5-0.8-1.1-0.8-1.8l-0.1-49.1c0-0.7,0.3-1.4,0.8-1.9c0.5-0.5,1.1-0.8,1.8-0.8l10.9,0
		c1.6,0,3.1,0.5,4.5,1.4c1.4,0.9,2.7,2.3,3.8,4c1,1.6,1.7,3.3,2.3,5.2c0.5,1.9,0.8,3.8,0.8,5.8c0,2-0.3,3.9-0.8,5.8
		c-0.5,1.9-1.3,3.6-2.3,5.2c-1.2,1.9-2.5,3.2-3.9,4L705.9,165.9z M684.8,142.8l8.2,0c0.6,0,1.3-0.3,2-0.8s1.3-1.3,1.9-2.2
		c0.7-1.1,1.3-2.4,1.7-3.8c0.4-1.4,0.6-2.9,0.6-4.4c0-1.5-0.2-2.9-0.6-4.3c-0.4-1.4-1-2.7-1.7-3.8c-0.6-1-1.2-1.7-1.9-2.2
		c-0.7-0.5-1.4-0.8-2-0.8l-8.2,0L684.8,142.8z"/>
	<path class="st1" d="M768.3,165c0.5,0.5,0.8,1.1,0.8,1.9c0,0.7-0.3,1.3-0.8,1.8c-0.5,0.5-1.1,0.8-1.9,0.8l-19.3,0
		c-0.7,0-1.4-0.3-1.9-0.8c-0.5-0.5-0.8-1.1-0.8-1.8l-0.1-49.2c0-0.7,0.3-1.3,0.8-1.8c0.5-0.5,1.1-0.8,1.9-0.8l19.3,0
		c0.7,0,1.3,0.3,1.9,0.8c0.5,0.5,0.8,1.1,0.8,1.8c0,0.7-0.3,1.4-0.8,1.9s-1.1,0.8-1.9,0.8l-16.8,0l0,22.4l12.6,0
		c0.7,0,1.3,0.3,1.8,0.8c0.5,0.5,0.7,1.1,0.7,1.9c0,0.7-0.2,1.3-0.7,1.8c-0.5,0.5-1.1,0.8-1.8,0.8l-12.6,0l0,16.4l16.8,0
		C767.2,164.2,767.8,164.5,768.3,165z"/>
	<path class="st1" d="M797.9,167.8c-0.3,0.7-0.8,1.1-1.5,1.4c-0.2,0.1-0.5,0.1-0.9,0.1c-0.5,0-1-0.1-1.5-0.4s-0.8-0.7-1-1.2l-7.4-19
		l-7.3,19.1c-0.2,0.5-0.5,0.9-0.9,1.2s-0.9,0.4-1.5,0.4c-0.4,0-0.7,0-0.9-0.1c-0.7-0.2-1.2-0.7-1.5-1.3c-0.3-0.7-0.3-1.3-0.1-2
		l7.7-20.1l1.7-4.2l-8.7-22.5c-0.2-0.7-0.2-1.3,0-2c0.3-0.7,0.7-1.1,1.4-1.4c0.7-0.2,1.3-0.2,2,0c0.7,0.3,1.1,0.7,1.4,1.4l6.6,17.1
		l6.6-17.2c0.2-0.7,0.7-1.2,1.3-1.4c0.6-0.3,1.3-0.3,2,0c0.7,0.2,1.2,0.7,1.5,1.3c0.3,0.7,0.3,1.3,0.1,2l-8.7,22.5l9.5,24.3
		C798.2,166.5,798.2,167.2,797.9,167.8z"/>
	<path class="st1" d="M825.1,120.3c1,1.6,1.7,3.3,2.3,5.2c0.5,1.9,0.8,3.8,0.8,5.8c0,2-0.3,3.9-0.8,5.8c-0.5,1.9-1.3,3.6-2.3,5.2
		c-1.1,1.7-2.4,3-3.8,3.9c-1.4,0.9-2.9,1.4-4.5,1.4l-8.2,0l0,19.1c0,0.7-0.2,1.3-0.7,1.8c-0.5,0.5-1.1,0.7-1.8,0.7
		c-0.7,0-1.3-0.2-1.8-0.7c-0.5-0.5-0.8-1.1-0.8-1.8l-0.1-49.1c0-1,0.4-1.8,1.3-2.3c0.3-0.3,0.8-0.4,1.3-0.4l10.7,0
		c1.6,0,3.1,0.5,4.5,1.4C822.7,117.3,824,118.6,825.1,120.3z M820.7,139.5c0.7-1.1,1.3-2.4,1.7-3.8c0.4-1.4,0.6-2.9,0.6-4.4
		c0-1.5-0.2-2.9-0.6-4.3c-0.4-1.4-1-2.7-1.7-3.8c-0.6-1-1.2-1.7-1.9-2.2c-0.7-0.5-1.4-0.8-2-0.8l-8.2,0l0,22.4l8.2,0
		c0.6,0,1.3-0.3,2-0.8C819.5,141.2,820.2,140.5,820.7,139.5z"/>
	<path class="st1" d="M844.5,170.2c-3.7,0-6.6-1.2-8.7-3.5c-1.6-1.7-2.6-4.1-3.1-6.9c-0.1-0.9-0.2-1.6-0.2-2.3c0-0.6,0-1.1,0.1-1.3
		l0-28.5c0-2.2,0.3-4.2,1-5.8c0.7-1.7,1.6-3,2.7-4.1c1.1-1.1,2.4-1.9,3.8-2.4c1.4-0.5,2.8-0.8,4.3-0.8c0.9,0,2.1,0.2,3.6,0.5
		c1.5,0.3,3,1.1,4.5,2.4c0.5,0.4,1,0.9,1.5,1.5c0.5,0.6,0.9,1.3,1.3,2.2c0.4,0.9,0.7,1.8,1,2.9c0.3,1.1,0.4,2.3,0.4,3.6l0,29.1
		c0,0.2,0,0.6,0,1.2c0,0.6-0.1,1.3-0.2,2.2c-0.5,2.7-1.5,4.9-3.1,6.6C851.2,169,848.2,170.1,844.5,170.2z M837.7,156.4
		c0,0,0,0.3,0,0.8c0,0.5,0,1.1,0.1,1.8s0.3,1.4,0.6,2.2c0.3,0.8,0.7,1.5,1.3,2c1.1,1.2,2.7,1.7,4.8,1.7c2.2,0,3.9-0.6,5-1.8
		c0.5-0.6,0.9-1.2,1.2-1.9c0.3-0.7,0.5-1.4,0.6-2c0.1-0.6,0.2-1.2,0.2-1.6c0-0.4,0-0.7,0-0.7v-0.1l0-29.1c0-1.8-0.3-3.3-0.9-4.3
		c-0.6-1-1.3-1.8-2-2.4c-0.8-0.5-1.6-0.9-2.4-1c-0.8-0.1-1.4-0.2-1.8-0.2c-1.8,0-3.3,0.6-4.5,1.7c-1.5,1.4-2.3,3.5-2.3,6.3l0,28.6
		V156.4z"/>
</g>
<polygon class="st1" points="165.3,211.4 126.4,202.8 165.2,202.8 "/>
<polygon class="st1" points="858.7,211.4 897.5,202.8 858.8,202.8 "/>
<g class="st3">
	<g>
		<path class="st1" d="M210.4,70.4l-11,0l0-1.5l5.8-6.5c0.9-1,1.4-1.8,1.8-2.4c0.3-0.6,0.5-1.2,0.5-1.9c0-0.9-0.3-1.6-0.8-2.2
			s-1.2-0.8-2.1-0.8c-1.1,0-1.9,0.3-2.5,0.9c-0.6,0.6-0.9,1.4-0.9,2.5l-2.1,0c0-1.5,0.5-2.8,1.5-3.7s2.3-1.4,4-1.4
			c1.6,0,2.8,0.4,3.7,1.2c0.9,0.8,1.4,1.9,1.4,3.3c0,1.6-1,3.6-3.1,5.9l-4.5,4.9l8.4,0L210.4,70.4z"/>
		<path class="st1" d="M224.1,63.3c0,2.5-0.4,4.3-1.3,5.6c-0.9,1.2-2.2,1.8-4,1.8c-1.8,0-3.1-0.6-4-1.8c-0.9-1.2-1.3-3-1.3-5.3
			l0-2.8c0-2.5,0.4-4.3,1.3-5.5c0.9-1.2,2.2-1.8,4-1.8c1.8,0,3.1,0.6,4,1.7c0.9,1.2,1.3,2.9,1.3,5.3L224.1,63.3z M221.9,60.4
			c0-1.8-0.3-3.1-0.8-3.9c-0.5-0.8-1.3-1.2-2.4-1.2c-1.1,0-1.9,0.4-2.4,1.2c-0.5,0.8-0.8,2.1-0.8,3.8l0,3.4c0,1.8,0.3,3.1,0.8,4
			c0.5,0.9,1.3,1.3,2.4,1.3c1.1,0,1.8-0.4,2.3-1.2c0.5-0.8,0.8-2.1,0.8-3.8L221.9,60.4z"/>
		<path class="st1" d="M234.7,70.4l-2.1,0l0-14.2l-4.3,1.6l0-1.9l6.1-2.3l0.3,0L234.7,70.4z"/>
		<path class="st1" d="M250.1,63c-0.4,0.5-1,1-1.6,1.3s-1.3,0.5-2,0.5c-1,0-1.8-0.2-2.5-0.7c-0.7-0.5-1.3-1.1-1.7-2
			s-0.6-1.8-0.6-2.9c0-1.1,0.2-2.1,0.6-3c0.4-0.9,1-1.6,1.8-2.1c0.8-0.5,1.7-0.7,2.7-0.7c1.7,0,3,0.6,3.9,1.9c1,1.2,1.4,2.9,1.4,5.1
			l0,0.6c0,3.3-0.6,5.6-1.9,7.1c-1.3,1.5-3.2,2.3-5.8,2.3l-0.4,0l0-1.8l0.4,0c1.8,0,3.1-0.5,4-1.4C249.5,66.3,250,64.9,250.1,63z
			 M246.8,63c0.7,0,1.4-0.2,2-0.7s1-1,1.3-1.6l0-0.9c0-1.4-0.3-2.5-0.9-3.4c-0.6-0.9-1.4-1.3-2.3-1.3c-0.9,0-1.7,0.4-2.3,1.1
			c-0.6,0.7-0.8,1.7-0.8,2.8c0,1.1,0.3,2.1,0.8,2.8C245.1,62.6,245.9,63,246.8,63z"/>
	</g>
</g>
</svg>
