<?xml version="1.0" encoding="utf-8"?>
<!-- Generator: Adobe Illustrator 24.0.1, SVG Export Plug-In . SVG Version: 6.00 Build 0)  -->
<svg version="1.1" id="Layer_1" xmlns="http://www.w3.org/2000/svg" xmlns:xlink="http://www.w3.org/1999/xlink" x="0px" y="0px"
	 viewBox="0 0 326.7 69.02" style="enable-background:new 0 0 326.7 69.02;" xml:space="preserve">
<style type="text/css">
	.st0{fill:#231F20;}
	.st1{fill:#422313;}
	.st2{fill:#623516;}
	.st3{fill:#7B461D;}
	.st4{fill:#97622D;}
	.st5{fill:#A97D4B;}
	.st6{fill:#C3996B;}
	.st7{fill:#D6B08B;}
	.st8{fill:#DCBEA3;}
	.st9{fill:#E6E7E8;}
	.st10{fill:none;stroke:#D1D3D4;stroke-width:0.729;stroke-miterlimit:10;}
	.st11{fill:none;stroke:#D1D3D4;stroke-width:0.729;stroke-miterlimit:10;stroke-dasharray:1.446,1.446;}
	.st12{fill:none;stroke:#D1D3D4;stroke-width:0.729;stroke-miterlimit:10;stroke-dasharray:1.4455,1.4455;}
	.st13{fill:#FFFFFF;}
	.st14{fill:none;stroke:#D1D3D4;stroke-width:0.729;stroke-miterlimit:10;stroke-dasharray:1.4392,1.4392;}
	.st15{fill:none;stroke:#D1D3D4;stroke-width:0.729;stroke-miterlimit:10;stroke-dasharray:1.4405,1.4405;}
	.st16{fill:#38B34A;}
	.st17{fill:#DCDDDE;stroke:#BCBEC0;stroke-width:0.729;stroke-miterlimit:10;stroke-dasharray:1.458;}
	.st18{fill:none;stroke:#D1D3D4;stroke-width:0.6943;stroke-miterlimit:10;}
	.st19{fill:none;stroke:#D1D3D4;stroke-width:0.6943;stroke-miterlimit:10;stroke-dasharray:1.3894,1.3894;}
	.st20{fill:none;stroke:#D1D3D4;stroke-width:0.6943;stroke-miterlimit:10;stroke-dasharray:1.3725,1.3725;}
	.st21{fill:none;stroke:#D1D3D4;stroke-width:0.6943;stroke-miterlimit:10;stroke-dasharray:1.3895,1.3895;}
	.st22{fill:none;stroke:#D1D3D4;stroke-width:0.6943;stroke-miterlimit:10;stroke-dasharray:1.3627,1.3627;}
	.st23{fill:#DCDDDE;stroke:#BCBEC0;stroke-width:0.6943;stroke-miterlimit:10;stroke-dasharray:1.3886;}
	.st24{opacity:0.9;}
	.st25{fill:#D1D3D4;}
	.st26{fill:#38B34A;stroke:#D1D3D4;stroke-miterlimit:10;}
	.st27{fill:none;stroke:#D1D3D4;stroke-width:0.5;stroke-miterlimit:10;}
</style>
<g>
	<g>
		<path class="st0" d="M1.36,68.72l11.86-15.78c0.08-0.1,0.08-0.24,0.01-0.34L1.32,34.76h37.54v33.96H1.36z"/>
		<path class="st13" d="M38.57,35.05v33.37H1.95l11.5-15.31c0.15-0.2,0.16-0.47,0.02-0.68L1.88,35.05H38.57 M39.16,34.46H0.77
			l12.21,18.3L0.77,69.01h38.39V34.46L39.16,34.46z"/>
	</g>
	<g>
		<path class="st0" d="M287.83,68.71V34.75h37.55L313.46,53c-0.07,0.1-0.06,0.24,0.01,0.34l11.85,15.37H287.83z"/>
		<path class="st13" d="M324.83,35.04l-11.62,17.79c-0.14,0.21-0.13,0.48,0.03,0.68l11.48,14.89h-36.6V35.04H324.83 M325.92,34.45
			h-38.39V69h38.39l-12.21-15.84L325.92,34.45L325.92,34.45z"/>
	</g>
	<polygon class="st16" points="60.59,52.51 57.22,47.95 52.6,51.26 50.81,45.88 45.4,47.6 45.35,41.93 39.67,41.9 41.38,36.48 
		35.99,34.7 39.29,30.08 34.71,26.72 39.28,23.34 35.97,18.73 41.35,16.93 39.63,11.52 45.3,11.48 45.33,5.8 50.75,7.51 52.53,2.12 
		57.15,5.42 60.51,0.84 63.89,5.41 68.5,2.09 70.3,7.48 75.71,5.75 75.75,11.43 81.43,11.46 79.72,16.87 85.11,18.66 81.81,23.28 
		86.39,26.64 81.82,30.01 85.14,34.62 79.75,36.42 81.48,41.83 75.8,41.88 75.77,47.56 70.36,45.85 68.57,51.24 63.95,47.94 	"/>
	<g>
		<path class="st0" d="M25.87,65.77c-0.81,0-1.48-0.66-1.48-1.48V25.01c0-0.81,0.66-1.48,1.48-1.48h274.95
			c0.81,0,1.48,0.66,1.48,1.48v39.28c0,0.81-0.66,1.48-1.48,1.48H25.87z"/>
		<path class="st13" d="M300.82,23.83c0.65,0,1.18,0.53,1.18,1.18v39.28c0,0.65-0.53,1.18-1.18,1.18H25.87
			c-0.65,0-1.18-0.53-1.18-1.18V25.02c0-0.65,0.53-1.18,1.18-1.18H300.82 M300.82,23.24H25.87c-0.98,0-1.77,0.79-1.77,1.77v39.28
			c0,0.98,0.79,1.77,1.77,1.77h274.95c0.98,0,1.77-0.79,1.77-1.77V25.02C302.59,24.04,301.8,23.24,300.82,23.24L300.82,23.24z"/>
	</g>
	<g>
		<path class="st13" d="M43.95,54.51c-1.32,0-2.35-0.41-3.09-1.25c-0.59-0.61-0.97-1.44-1.13-2.48c-0.04-0.3-0.06-0.56-0.07-0.78
			s-0.01-0.38,0.01-0.47l-0.02-10.25c0-0.8,0.12-1.5,0.38-2.09c0.25-0.59,0.58-1.08,0.98-1.47c0.4-0.38,0.85-0.67,1.36-0.85
			c0.51-0.18,1.02-0.28,1.54-0.28c1.12,0,2.07,0.35,2.85,1.04c0.33,0.3,0.65,0.74,0.96,1.32c0.31,0.58,0.46,1.36,0.46,2.34
			c0,0.24-0.09,0.46-0.27,0.64c-0.18,0.18-0.4,0.27-0.64,0.28c-0.26,0-0.48-0.09-0.67-0.27c-0.18-0.18-0.28-0.4-0.28-0.64
			c0-0.66-0.1-1.18-0.3-1.57c-0.2-0.38-0.43-0.67-0.69-0.86c-0.26-0.19-0.53-0.31-0.8-0.37c-0.27-0.05-0.48-0.08-0.61-0.08
			c-0.63,0-1.17,0.2-1.62,0.6c-0.54,0.51-0.81,1.26-0.81,2.25l0.02,10.33v0.03c0,0.02,0,0.11,0,0.27c0,0.17,0.02,0.37,0.05,0.61
			c0.04,0.24,0.1,0.51,0.2,0.78c0.1,0.28,0.25,0.52,0.46,0.73c0.38,0.42,0.96,0.63,1.73,0.62c0.82,0,1.42-0.22,1.8-0.66
			c0.19-0.21,0.34-0.44,0.44-0.71c0.1-0.26,0.18-0.51,0.22-0.73c0.04-0.23,0.06-0.5,0.06-0.81v-0.03l-0.01-3.32l-1.83,0
			c-0.26,0-0.48-0.09-0.67-0.27c-0.18-0.18-0.28-0.41-0.28-0.67c0-0.24,0.09-0.46,0.27-0.64c0.18-0.18,0.4-0.27,0.67-0.28l3.66-0.01
			l0.01,5.12c0.02,0.07,0.02,0.22,0.01,0.44c-0.01,0.23-0.04,0.49-0.09,0.78c-0.19,0.96-0.56,1.74-1.12,2.36
			C46.33,54.09,45.27,54.51,43.95,54.51z"/>
		<path class="st13" d="M58.51,53.44c0.05,0.24,0.01,0.47-0.13,0.67s-0.32,0.33-0.55,0.38h-0.16c-0.19,0-0.37-0.07-0.54-0.2
			c-0.17-0.13-0.27-0.29-0.3-0.48l-0.71-3.4l-4.24,0.01l-0.67,3.4c-0.03,0.19-0.13,0.35-0.3,0.48c-0.17,0.13-0.35,0.2-0.56,0.2H50.2
			c-0.23-0.05-0.41-0.18-0.54-0.38s-0.17-0.42-0.12-0.67l3.61-18.07c0.02-0.07,0.03-0.11,0.05-0.13v-0.03V35.2
			c0.03-0.09,0.08-0.15,0.13-0.18l0-0.05h0.03v-0.03h0.03v-0.03h0.03v-0.03h0.03c0.03-0.03,0.07-0.06,0.1-0.08
			c0.03-0.02,0.08-0.04,0.13-0.05v-0.03h0.03c0.03-0.02,0.07-0.03,0.12-0.03c0.04,0,0.08-0.01,0.12-0.03h0.03h0.05h0.03
			c0.03,0.02,0.07,0.03,0.12,0.03c0.04,0,0.08,0.01,0.12,0.03h0.03v0.03c0.07,0.02,0.12,0.03,0.16,0.05
			c0.03,0.02,0.07,0.04,0.1,0.08h0.03v0.03h0.03v0.03h0.03v0.03l0.03,0.05c0.02,0.03,0.04,0.07,0.07,0.09
			c0.03,0.03,0.05,0.06,0.07,0.09v0.03v0.03c0.02,0.02,0.03,0.06,0.03,0.13L58.51,53.44z M55.78,48.71l-1.82-8.84l-1.74,8.84
			L55.78,48.71z"/>
		<path class="st13" d="M71.4,53.32c0,0.24-0.09,0.46-0.26,0.64c-0.17,0.18-0.39,0.28-0.65,0.28c-0.24,0-0.46-0.09-0.64-0.27
			c-0.18-0.18-0.28-0.4-0.28-0.64l-0.02-13.78l-2.97,5.84c-0.09,0.24-0.23,0.42-0.44,0.52c-0.17,0.07-0.31,0.11-0.42,0.11
			c-0.09,0-0.16-0.01-0.22-0.03c-0.06-0.02-0.13-0.04-0.2-0.08c-0.23-0.1-0.38-0.28-0.47-0.52l-2.96-5.83l0.02,13.78
			c0,0.24-0.09,0.46-0.27,0.64c-0.18,0.18-0.4,0.28-0.64,0.28c-0.26,0-0.48-0.09-0.67-0.27c-0.18-0.18-0.28-0.4-0.28-0.64L60,35.71
			v-0.05v-0.03v-0.03c0.02,0,0.03-0.01,0.03-0.03v-0.03V35.5c0.02-0.03,0.04-0.1,0.08-0.21l0.03-0.03v-0.03l0.03-0.03v-0.03
			c0.02,0,0.03-0.01,0.03-0.03c0.03-0.03,0.06-0.06,0.07-0.08c0.01-0.02,0.03-0.03,0.07-0.05l0.03-0.03c0-0.02,0.01-0.03,0.03-0.03
			h0.03v-0.03h0.03c0-0.02,0.01-0.03,0.03-0.03h0.03V34.9h0.03h0.03c0-0.02,0.01-0.03,0.03-0.03c0.02,0,0.03,0,0.03-0.01
			s0.01-0.01,0.03-0.01h0.03l0.03-0.03h0.03h0.03h0.03c0-0.02,0.01-0.03,0.03-0.03h0.03h0.05h0.05h0.03h0.03l0.03,0h0.03h0.03h0.03
			h0.03h0.03l0.03,0.03c0.07,0,0.14,0.02,0.21,0.05c0.02,0.02,0.03,0.03,0.05,0.03c0,0.02,0.01,0.03,0.03,0.03l0.03,0.03
			c0.02,0,0.03,0.01,0.05,0.03c0.05,0.05,0.1,0.09,0.13,0.1c0,0.02,0.01,0.03,0.03,0.03v0.03l0.03,0.03v0.03
			c0.02,0,0.03,0.01,0.03,0.03l0.03,0.03v0.03l0.03,0.03l3.96,7.73l3.94-7.75v-0.03l0.03-0.03V35.2h0.03v-0.03l0.03-0.03
			c0-0.02,0.01-0.03,0.03-0.03V35.1c0.07-0.07,0.12-0.11,0.16-0.13c0-0.02,0.01-0.03,0.03-0.03h0.03c0-0.02,0.01-0.03,0.03-0.03
			v-0.03h0.03h0.03c0-0.02,0.01-0.03,0.03-0.03c0.02-0.02,0.04-0.03,0.07-0.03c0.03,0,0.06-0.01,0.09-0.03h0.03h0.03
			c0-0.02,0.01-0.03,0.03-0.03h0.03h0.03h0.03h0.03l0.05,0h0.05h0.05h0.03h0.03h0.03v0.03h0.03h0.03h0.03l0.03,0v0.03h0.05
			l0.03,0.03h0.03l0.03,0.03h0.05v0.03h0.03v0.03h0.03l0.03,0.03c0.02,0,0.03,0.01,0.03,0.03l0.03,0l0.03,0.03
			c0.03,0.02,0.07,0.06,0.1,0.13c0.02,0,0.03,0.01,0.03,0.03l0.03,0.03v0.03l0.03,0.03l0.03,0.03c0.04,0.07,0.05,0.13,0.05,0.18
			v0.03h0.03v0.05v0.03l0,0.03v0.03v0.03v0.05L71.4,53.32z"/>
		<path class="st13" d="M81.87,52.63c0.18,0.18,0.28,0.41,0.28,0.67c0,0.24-0.09,0.46-0.27,0.64c-0.18,0.18-0.41,0.28-0.67,0.28
			l-6.93,0.01c-0.26,0-0.48-0.09-0.67-0.27c-0.18-0.18-0.28-0.4-0.28-0.64l-0.03-17.62c0-0.24,0.09-0.46,0.27-0.64
			c0.18-0.18,0.41-0.27,0.67-0.28l6.93-0.01c0.26,0,0.48,0.09,0.67,0.27c0.18,0.18,0.28,0.4,0.28,0.64c0,0.26-0.09,0.48-0.27,0.67
			c-0.18,0.18-0.4,0.27-0.67,0.28l-6.01,0.01l0.01,8.03l4.52-0.01c0.26,0,0.48,0.09,0.65,0.27c0.17,0.18,0.26,0.4,0.26,0.67
			c0,0.24-0.09,0.46-0.26,0.64c-0.17,0.18-0.39,0.28-0.65,0.28l-4.52,0.01l0.01,5.86l6.01-0.01C81.47,52.36,81.69,52.45,81.87,52.63
			z"/>
		<path class="st13" d="M100.84,54.19l-2.01,0l-1.44,0c-0.26,0-0.48-0.09-0.65-0.27c-0.17-0.18-0.26-0.4-0.26-0.64l-0.03-17.62
			c0-0.24,0.09-0.46,0.26-0.64c0.17-0.18,0.39-0.28,0.65-0.28l1.44,0l2.01,0c0.52,0,1.04,0.09,1.54,0.27
			c0.51,0.18,0.96,0.47,1.36,0.85c0.4,0.38,0.73,0.87,0.98,1.46c0.25,0.59,0.38,1.29,0.38,2.09l0.01,10.07
			c0,0.82-0.12,1.52-0.38,2.11c-0.25,0.58-0.58,1.07-0.98,1.47c-0.4,0.39-0.85,0.68-1.36,0.86
			C101.88,54.09,101.37,54.19,100.84,54.19z M98.3,52.34h0.52l2.01,0c0.64,0,1.18-0.2,1.62-0.6c0.54-0.51,0.81-1.26,0.81-2.25
			l-0.01-10.07c0-0.96-0.27-1.71-0.81-2.25c-0.45-0.4-0.99-0.6-1.62-0.6l-2.01,0l-0.52,0L98.3,52.34z"/>
		<path class="st13" d="M115.42,52.58c0.18,0.18,0.28,0.4,0.28,0.67c0,0.24-0.09,0.46-0.27,0.64c-0.18,0.18-0.4,0.27-0.67,0.28
			l-6.93,0.01c-0.26,0-0.48-0.09-0.67-0.27c-0.18-0.18-0.28-0.4-0.28-0.64l-0.03-17.62c0-0.24,0.09-0.46,0.27-0.64
			c0.18-0.18,0.4-0.28,0.67-0.28l6.93-0.01c0.26,0,0.48,0.09,0.67,0.27c0.18,0.18,0.28,0.4,0.28,0.64c0,0.26-0.09,0.48-0.27,0.67
			c-0.18,0.18-0.41,0.27-0.67,0.28l-6.01,0.01l0.01,8.03l4.52-0.01c0.26,0,0.48,0.09,0.65,0.27c0.17,0.18,0.26,0.41,0.26,0.67
			c0,0.24-0.09,0.46-0.26,0.64c-0.17,0.18-0.39,0.28-0.65,0.28l-4.52,0.01l0.01,5.86l6.01-0.01
			C115.01,52.31,115.23,52.4,115.42,52.58z"/>
		<path class="st13" d="M125.63,34.72c0.26,0.05,0.46,0.19,0.6,0.4c0.14,0.22,0.18,0.45,0.13,0.69l-3.5,17.44
			c-0.05,0.21-0.17,0.38-0.34,0.52c-0.17,0.14-0.37,0.21-0.57,0.21h-0.05l-0.08,0c-0.21,0-0.4-0.07-0.57-0.21
			c-0.17-0.14-0.28-0.31-0.31-0.52l-3.56-17.44c-0.05-0.24-0.01-0.47,0.13-0.69c0.14-0.22,0.33-0.35,0.57-0.41
			c0.24-0.05,0.48-0.01,0.69,0.14c0.22,0.15,0.35,0.34,0.41,0.59l2.71,13.25l2.67-13.26c0.05-0.24,0.18-0.44,0.39-0.59
			C125.16,34.72,125.38,34.67,125.63,34.72z"/>
		<path class="st13" d="M131.67,54.25c-1.22,0-2.25-0.34-3.09-1.04c-0.33-0.28-0.66-0.7-0.98-1.27c-0.32-0.57-0.49-1.34-0.49-2.31
			c0-0.26,0.09-0.48,0.27-0.65c0.18-0.17,0.41-0.26,0.67-0.26c0.24,0,0.45,0.09,0.63,0.26c0.17,0.17,0.26,0.39,0.26,0.65
			c0,0.58,0.08,1.05,0.25,1.41c0.17,0.37,0.38,0.65,0.64,0.85c0.26,0.2,0.55,0.34,0.88,0.42c0.32,0.08,0.64,0.12,0.95,0.12
			c0.17,0,0.42-0.02,0.75-0.07c0.32-0.04,0.64-0.16,0.95-0.35s0.59-0.47,0.82-0.84c0.23-0.37,0.35-0.88,0.35-1.54
			c0-0.64-0.09-1.21-0.28-1.7c-0.18-0.49-0.44-0.92-0.76-1.31c-0.32-0.38-0.69-0.73-1.11-1.06c-0.42-0.32-0.86-0.65-1.33-0.98
			c-0.42-0.3-0.84-0.61-1.27-0.94c-0.43-0.33-0.82-0.7-1.17-1.1c-0.82-0.96-1.24-2.06-1.26-3.32c0-0.07,0-0.21,0.01-0.42
			c0.01-0.21,0.04-0.45,0.09-0.73c0.16-0.89,0.5-1.63,1.04-2.22c0.78-0.82,1.84-1.23,3.16-1.23c1.34,0,2.38,0.41,3.11,1.22
			c0.26,0.3,0.47,0.64,0.63,1.02c0.16,0.38,0.25,0.8,0.29,1.25c0.04,0.31,0.05,0.58,0.04,0.8c-0.01,0.22-0.02,0.34-0.04,0.38
			c-0.05,0.23-0.11,0.43-0.18,0.6c-0.09,0.14-0.19,0.26-0.31,0.37c-0.12,0.1-0.31,0.14-0.55,0.11c-0.24-0.03-0.42-0.13-0.52-0.27
			c-0.11-0.15-0.17-0.3-0.21-0.46c-0.05-0.19-0.06-0.39-0.03-0.6c0.03-0.24,0.03-0.48,0-0.71c-0.04-0.19-0.09-0.41-0.16-0.64
			c-0.07-0.24-0.18-0.45-0.34-0.64c-0.35-0.42-0.93-0.63-1.73-0.63c-0.8,0-1.4,0.23-1.8,0.68c-0.19,0.19-0.34,0.41-0.43,0.65
			c-0.1,0.24-0.16,0.46-0.2,0.65c-0.05,0.24-0.07,0.48-0.05,0.71v0.08c0,0.44,0.07,0.83,0.21,1.18c0.14,0.35,0.34,0.67,0.59,0.97
			c0.25,0.3,0.56,0.59,0.92,0.87c0.36,0.29,0.76,0.6,1.22,0.93c0.51,0.33,1,0.68,1.48,1.06c0.48,0.37,0.93,0.81,1.35,1.32
			c0.94,1.15,1.42,2.52,1.42,4.1c0,0.8-0.13,1.49-0.4,2.08c-0.27,0.58-0.63,1.06-1.07,1.44c-0.44,0.38-0.95,0.66-1.52,0.84
			C132.81,54.15,132.24,54.25,131.67,54.25z"/>
		<path class="st13" d="M154.13,54.42c-1.33,0-2.36-0.41-3.11-1.25c-0.58-0.63-0.94-1.45-1.1-2.48c-0.05-0.31-0.08-0.58-0.08-0.81
			c0-0.23,0.01-0.38,0.03-0.47l-0.02-10.22c0-0.8,0.12-1.5,0.38-2.09c0.25-0.59,0.58-1.09,0.98-1.48c0.4-0.39,0.85-0.68,1.36-0.86
			c0.51-0.18,1.02-0.28,1.54-0.28c0.31,0,0.74,0.06,1.28,0.18c0.54,0.12,1.07,0.41,1.6,0.86c0.17,0.16,0.35,0.34,0.52,0.55
			c0.17,0.21,0.33,0.47,0.47,0.77c0.14,0.31,0.26,0.65,0.35,1.03c0.1,0.38,0.15,0.82,0.15,1.31l0.02,10.41c0,0.07,0,0.21,0,0.43
			c0,0.22-0.03,0.48-0.08,0.77c-0.17,0.96-0.55,1.75-1.12,2.38C156.51,54,155.45,54.42,154.13,54.42z M151.69,49.51
			c0,0.02,0,0.11,0,0.29c0,0.17,0.02,0.38,0.05,0.63c0.04,0.24,0.1,0.51,0.2,0.78c0.1,0.28,0.25,0.52,0.46,0.73
			c0.38,0.42,0.96,0.63,1.73,0.62c0.78,0,1.39-0.22,1.8-0.66c0.19-0.21,0.34-0.44,0.44-0.69c0.1-0.25,0.18-0.49,0.22-0.72
			c0.04-0.23,0.07-0.42,0.07-0.58c0-0.16,0-0.24,0-0.26v-0.05l-0.02-10.43c0-0.66-0.11-1.18-0.32-1.56
			c-0.21-0.37-0.45-0.66-0.73-0.85c-0.28-0.19-0.56-0.31-0.85-0.37c-0.29-0.05-0.5-0.08-0.64-0.08c-0.65,0-1.18,0.2-1.62,0.6
			c-0.54,0.51-0.81,1.26-0.81,2.25l0.02,10.25V49.51z"/>
		<path class="st13" d="M168.36,34.91c0.18,0.18,0.28,0.4,0.28,0.64c0,0.26-0.09,0.48-0.27,0.67c-0.18,0.18-0.4,0.28-0.67,0.28
			l-5.36,0.01l0.01,8.03l3.87-0.01c0.26,0,0.48,0.09,0.65,0.27c0.17,0.18,0.26,0.4,0.26,0.67c0,0.24-0.09,0.46-0.26,0.64
			c-0.17,0.18-0.39,0.28-0.65,0.28l-3.87,0.01l0.01,6.8c0,0.24-0.09,0.46-0.27,0.64c-0.18,0.18-0.4,0.28-0.64,0.28
			c-0.26,0-0.48-0.09-0.67-0.27c-0.18-0.18-0.28-0.4-0.28-0.64l-0.03-17.62c0-0.24,0.09-0.46,0.27-0.64
			c0.18-0.18,0.4-0.27,0.67-0.28l6.27-0.01C167.96,34.63,168.18,34.72,168.36,34.91z"/>
		<path class="st13" d="M186.16,54.11c-1.31,0-2.34-0.41-3.09-1.25c-0.3-0.3-0.53-0.65-0.71-1.07c-0.17-0.42-0.31-0.88-0.39-1.39
			c-0.05-0.31-0.08-0.58-0.08-0.81c0-0.23,0-0.38,0-0.47l-0.01-10.07c0-0.8,0.12-1.5,0.38-2.09c0.25-0.59,0.58-1.08,0.98-1.47
			c0.4-0.38,0.85-0.67,1.36-0.85c0.51-0.18,1.01-0.28,1.52-0.28c0.31,0,0.75,0.06,1.29,0.18c0.55,0.12,1.08,0.41,1.58,0.86
			c0.35,0.3,0.68,0.73,1.01,1.31c0.32,0.57,0.49,1.35,0.49,2.33c0,0.26-0.09,0.48-0.27,0.67c-0.18,0.18-0.4,0.27-0.67,0.28
			c-0.26,0-0.48-0.09-0.67-0.27c-0.18-0.18-0.28-0.41-0.28-0.67c0-0.64-0.1-1.15-0.3-1.53c-0.2-0.37-0.44-0.65-0.72-0.84
			c-0.28-0.18-0.55-0.3-0.82-0.35c-0.27-0.05-0.48-0.08-0.64-0.08c-0.3,0-0.58,0.05-0.85,0.16c-0.27,0.11-0.5,0.25-0.69,0.45
			c-0.54,0.49-0.81,1.22-0.81,2.2l0.01,10.12v0.08c0,0.02,0,0.11,0,0.27c0,0.17,0.02,0.37,0.05,0.6c0.04,0.24,0.1,0.49,0.2,0.76
			c0.1,0.27,0.24,0.51,0.43,0.72c0.38,0.42,0.95,0.63,1.7,0.62c0.78,0,1.37-0.22,1.75-0.66c0.19-0.21,0.33-0.44,0.43-0.68
			c0.09-0.24,0.16-0.48,0.21-0.71c0.04-0.23,0.06-0.5,0.06-0.81c-0.02-0.26,0.06-0.49,0.23-0.68c0.17-0.19,0.39-0.3,0.65-0.31
			c0.24-0.02,0.47,0.06,0.67,0.23c0.2,0.17,0.31,0.38,0.33,0.63c0,0.04,0,0.17,0,0.39c0,0.23-0.03,0.51-0.1,0.86
			c-0.16,0.98-0.52,1.76-1.1,2.36C188.51,53.69,187.47,54.11,186.16,54.11z"/>
		<path class="st13" d="M196.54,54.36c-1.32,0-2.36-0.41-3.11-1.25c-0.58-0.63-0.94-1.45-1.1-2.48c-0.05-0.31-0.08-0.58-0.08-0.81
			c0-0.23,0.01-0.38,0.03-0.47l-0.02-10.22c0-0.8,0.12-1.5,0.38-2.09c0.25-0.59,0.58-1.09,0.98-1.48c0.4-0.39,0.85-0.68,1.36-0.86
			c0.51-0.18,1.02-0.28,1.54-0.28c0.31,0,0.74,0.06,1.28,0.18c0.54,0.12,1.07,0.41,1.6,0.86c0.17,0.16,0.35,0.34,0.52,0.55
			c0.17,0.21,0.33,0.47,0.47,0.77c0.14,0.3,0.26,0.65,0.36,1.03c0.1,0.38,0.15,0.82,0.15,1.31l0.02,10.41c0,0.07,0,0.21,0,0.43
			c0,0.22-0.03,0.48-0.08,0.77c-0.17,0.96-0.55,1.75-1.12,2.38C198.92,53.94,197.86,54.35,196.54,54.36z M194.1,49.44
			c0,0.02,0,0.11,0,0.29c0,0.17,0.02,0.38,0.05,0.63c0.04,0.24,0.1,0.51,0.2,0.78c0.09,0.28,0.25,0.52,0.46,0.73
			c0.39,0.42,0.96,0.63,1.73,0.62c0.78,0,1.39-0.22,1.8-0.66c0.19-0.21,0.34-0.44,0.44-0.69c0.1-0.25,0.18-0.49,0.22-0.72
			c0.04-0.23,0.06-0.42,0.06-0.58c0-0.16,0-0.24,0-0.26v-0.05l-0.02-10.43c0-0.66-0.11-1.18-0.32-1.56
			c-0.21-0.37-0.45-0.66-0.73-0.85s-0.56-0.31-0.85-0.37c-0.29-0.05-0.5-0.08-0.64-0.08c-0.64,0-1.18,0.2-1.62,0.6
			c-0.54,0.51-0.81,1.26-0.81,2.25l0.02,10.25V49.44z"/>
		<path class="st13" d="M210.92,54.02l-6.95,0.01c-0.24,0-0.46-0.09-0.64-0.27c-0.18-0.18-0.28-0.4-0.28-0.64l-0.03-17.62
			c0-0.24,0.09-0.46,0.27-0.64c0.18-0.18,0.4-0.27,0.64-0.28c0.26,0,0.48,0.09,0.65,0.27c0.17,0.18,0.26,0.4,0.26,0.64l0.02,16.68
			l6.04-0.01c0.24,0,0.46,0.09,0.64,0.27c0.18,0.18,0.28,0.41,0.28,0.67c0,0.24-0.09,0.46-0.27,0.64
			C211.38,53.93,211.16,54.02,210.92,54.02z"/>
		<path class="st13" d="M217.22,54.33c-1.32,0-2.36-0.42-3.11-1.25c-0.58-0.63-0.94-1.45-1.1-2.48c-0.05-0.31-0.08-0.58-0.08-0.81
			c0-0.23,0.01-0.38,0.03-0.47l-0.02-10.22c0-0.8,0.12-1.5,0.38-2.09c0.25-0.59,0.58-1.09,0.98-1.48c0.4-0.39,0.85-0.68,1.36-0.86
			c0.51-0.18,1.02-0.28,1.54-0.28c0.31,0,0.74,0.06,1.28,0.18c0.54,0.12,1.07,0.41,1.6,0.86c0.17,0.16,0.35,0.34,0.52,0.55
			c0.17,0.21,0.33,0.47,0.47,0.77c0.14,0.31,0.26,0.65,0.36,1.03c0.1,0.38,0.15,0.82,0.15,1.31l0.02,10.41c0,0.07,0,0.21,0,0.43
			c0,0.22-0.03,0.48-0.08,0.77c-0.17,0.96-0.55,1.75-1.12,2.38C219.6,53.9,218.55,54.32,217.22,54.33z M214.78,49.41
			c0,0.02,0,0.11,0,0.29c0,0.17,0.02,0.38,0.05,0.63c0.04,0.24,0.1,0.51,0.2,0.78c0.09,0.28,0.25,0.52,0.46,0.73
			c0.39,0.42,0.96,0.63,1.73,0.63c0.78,0,1.39-0.22,1.8-0.66c0.19-0.21,0.34-0.44,0.44-0.69c0.1-0.25,0.18-0.49,0.22-0.72
			c0.04-0.23,0.06-0.42,0.06-0.58c0-0.16,0-0.24,0-0.26v-0.05l-0.02-10.43c0-0.66-0.11-1.18-0.32-1.56
			c-0.21-0.37-0.45-0.66-0.73-0.85c-0.28-0.19-0.56-0.31-0.85-0.37c-0.29-0.05-0.5-0.08-0.64-0.08c-0.64,0-1.18,0.2-1.62,0.6
			c-0.54,0.51-0.81,1.26-0.81,2.25l0.02,10.25V49.41z"/>
		<path class="st13" d="M232.78,52.71c0.11,0.24,0.11,0.48,0.03,0.72c-0.09,0.24-0.25,0.4-0.5,0.48c-0.07,0.04-0.13,0.06-0.2,0.07
			c-0.06,0.01-0.12,0.01-0.17,0.01c-0.19,0-0.36-0.04-0.51-0.13c-0.15-0.09-0.27-0.23-0.35-0.42l-3.15-7.19l-2.72,0l0.01,6.82
			c0,0.26-0.09,0.48-0.27,0.65c-0.18,0.17-0.41,0.26-0.67,0.26c-0.24,0-0.46-0.09-0.64-0.26c-0.18-0.17-0.28-0.39-0.28-0.65
			l-0.03-17.6c0-0.26,0.09-0.48,0.27-0.67c0.18-0.18,0.4-0.28,0.64-0.28l3.9-0.01c0.56,0,1.09,0.17,1.61,0.51
			c0.51,0.34,0.97,0.81,1.37,1.42c0.35,0.56,0.62,1.18,0.81,1.86c0.19,0.68,0.29,1.37,0.29,2.07c0,0.72-0.09,1.41-0.28,2.09
			c-0.19,0.68-0.46,1.3-0.81,1.86c-0.43,0.66-0.9,1.14-1.41,1.44L232.78,52.71z M225.21,44.43l2.96,0c0.23,0,0.47-0.1,0.72-0.29
			c0.25-0.19,0.48-0.45,0.69-0.79c0.26-0.4,0.47-0.86,0.61-1.37c0.15-0.51,0.22-1.04,0.22-1.58c0-0.52-0.08-1.04-0.22-1.56
			c-0.15-0.51-0.36-0.97-0.62-1.37c-0.21-0.35-0.44-0.61-0.69-0.8c-0.25-0.18-0.49-0.27-0.72-0.27l-2.95,0L225.21,44.43z"/>
		<path class="st13" d="M255.14,52.37c0.18,0.18,0.28,0.41,0.28,0.67c0,0.24-0.09,0.46-0.27,0.64c-0.18,0.18-0.4,0.28-0.67,0.28
			l-6.93,0.01c-0.26,0-0.48-0.09-0.67-0.27c-0.18-0.18-0.27-0.4-0.28-0.64l-0.03-17.62c0-0.24,0.09-0.46,0.27-0.64
			c0.18-0.18,0.41-0.28,0.67-0.28l6.93-0.01c0.26,0,0.48,0.09,0.67,0.27c0.18,0.18,0.28,0.4,0.28,0.64c0,0.26-0.09,0.48-0.27,0.67
			c-0.18,0.18-0.41,0.27-0.67,0.28l-6.01,0.01l0.01,8.03l4.52-0.01c0.26,0,0.48,0.09,0.65,0.27c0.17,0.18,0.26,0.4,0.26,0.67
			c0,0.24-0.09,0.46-0.26,0.64c-0.17,0.18-0.39,0.28-0.65,0.28l-4.52,0.01l0.01,5.86l6.01-0.01
			C254.74,52.1,254.96,52.19,255.14,52.37z"/>
		<path class="st13" d="M265.72,53.4c-0.1,0.24-0.28,0.4-0.52,0.49c-0.07,0.03-0.17,0.05-0.31,0.05c-0.19,0-0.37-0.05-0.52-0.14
			c-0.16-0.1-0.27-0.24-0.34-0.43l-2.65-6.82l-2.6,6.83c-0.07,0.19-0.18,0.34-0.34,0.43c-0.16,0.1-0.33,0.14-0.52,0.15
			c-0.14,0-0.24-0.02-0.31-0.05c-0.24-0.09-0.42-0.25-0.52-0.48c-0.11-0.24-0.11-0.47-0.03-0.72l2.76-7.2l0.6-1.52l-3.12-8.05
			c-0.09-0.24-0.08-0.48,0.01-0.72c0.1-0.24,0.27-0.4,0.51-0.48c0.24-0.09,0.48-0.08,0.72,0.01c0.24,0.1,0.4,0.27,0.48,0.51
			l2.36,6.14l2.37-6.15c0.09-0.24,0.24-0.41,0.47-0.51c0.23-0.1,0.46-0.1,0.71-0.01c0.24,0.09,0.42,0.25,0.52,0.48
			c0.1,0.24,0.11,0.48,0.03,0.72l-3.1,8.06l3.39,8.7C265.84,52.93,265.83,53.17,265.72,53.4z"/>
		<path class="st13" d="M275.47,36.38c0.35,0.56,0.62,1.18,0.81,1.86c0.19,0.68,0.29,1.37,0.29,2.07c0,0.72-0.09,1.41-0.28,2.09
			c-0.19,0.68-0.46,1.3-0.81,1.86c-0.4,0.61-0.86,1.08-1.37,1.41c-0.51,0.33-1.05,0.5-1.61,0.5l-2.95,0l0.01,6.85
			c0,0.26-0.09,0.48-0.26,0.65c-0.17,0.17-0.39,0.26-0.65,0.26c-0.24,0-0.46-0.09-0.64-0.26c-0.18-0.17-0.27-0.39-0.28-0.65
			l-0.03-17.6c0-0.37,0.16-0.64,0.47-0.81c0.12-0.1,0.28-0.16,0.47-0.16l3.84-0.01c0.56,0,1.09,0.17,1.61,0.51
			C274.61,35.29,275.07,35.77,275.47,36.38z M273.92,43.26c0.26-0.4,0.46-0.86,0.6-1.37c0.14-0.51,0.21-1.04,0.21-1.58
			c0-0.52-0.07-1.04-0.21-1.56c-0.14-0.51-0.34-0.97-0.6-1.37c-0.21-0.35-0.44-0.61-0.69-0.8c-0.25-0.18-0.49-0.27-0.72-0.27
			l-2.95,0l0.01,8.03l2.95,0c0.23,0,0.47-0.09,0.72-0.28C273.48,43.87,273.71,43.61,273.92,43.26z"/>
		<path class="st13" d="M282.43,54.23c-1.33,0-2.36-0.41-3.11-1.25c-0.58-0.63-0.94-1.45-1.1-2.48c-0.05-0.31-0.08-0.58-0.08-0.81
			c0-0.23,0.01-0.38,0.03-0.47l-0.02-10.22c0-0.8,0.12-1.5,0.38-2.09c0.25-0.59,0.58-1.09,0.98-1.48c0.4-0.39,0.85-0.68,1.36-0.86
			c0.51-0.18,1.02-0.28,1.54-0.28c0.31,0,0.74,0.06,1.28,0.18c0.54,0.12,1.07,0.41,1.6,0.86c0.17,0.16,0.35,0.34,0.52,0.55
			c0.17,0.21,0.33,0.47,0.47,0.77c0.14,0.31,0.26,0.65,0.35,1.03c0.1,0.38,0.15,0.82,0.15,1.31l0.02,10.41c0,0.07,0,0.21,0,0.43
			c0,0.22-0.03,0.48-0.08,0.77c-0.17,0.96-0.55,1.75-1.12,2.38C284.81,53.8,283.75,54.22,282.43,54.23z M279.99,49.31
			c0,0.02,0,0.11,0,0.29c0,0.17,0.02,0.38,0.05,0.63c0.03,0.24,0.1,0.51,0.2,0.78s0.25,0.52,0.46,0.73
			c0.38,0.42,0.96,0.63,1.73,0.62c0.78,0,1.39-0.22,1.8-0.66c0.19-0.21,0.34-0.44,0.44-0.69c0.1-0.25,0.18-0.49,0.22-0.72
			c0.04-0.23,0.06-0.42,0.06-0.58c0-0.16,0-0.24,0-0.26v-0.05l-0.02-10.43c0-0.66-0.11-1.18-0.32-1.56
			c-0.21-0.37-0.45-0.66-0.73-0.85c-0.28-0.19-0.56-0.31-0.85-0.37c-0.29-0.05-0.5-0.08-0.64-0.08c-0.65,0-1.19,0.2-1.62,0.6
			c-0.54,0.51-0.81,1.26-0.81,2.25l0.02,10.25V49.31z"/>
	</g>
	<polygon class="st13" points="39.16,69.02 25.33,65.96 39.11,65.96 	"/>
	<polygon class="st13" points="287.53,69.02 301.4,65.96 287.59,65.96 	"/>
	<g class="st24">
		<g>
			<path class="st13" d="M52.34,14.5c0-0.48-0.21-0.72-0.62-0.72c-0.23,0-0.4,0.08-0.51,0.25c-0.11,0.16-0.17,0.42-0.18,0.76
				l-1.46,0c0.03-0.75,0.26-1.32,0.68-1.7c0.42-0.38,0.95-0.57,1.59-0.57c0.67,0,1.18,0.17,1.52,0.5s0.51,0.78,0.51,1.32
				c0,0.6-0.23,1.19-0.69,1.76c-0.46,0.57-1.01,1.06-1.65,1.46l2.44,0l0,1.21l-4.41,0.01l0-1.12C51.42,16.33,52.34,15.28,52.34,14.5
				z"/>
			<path class="st13" d="M54.93,15.68c0-0.96,0.19-1.72,0.58-2.29c0.39-0.56,1.01-0.85,1.87-0.85c0.85,0,1.47,0.28,1.87,0.84
				s0.59,1.32,0.59,2.29c0,0.97-0.19,1.74-0.59,2.3c-0.39,0.57-1.01,0.85-1.87,0.85c-0.86,0-1.48-0.28-1.87-0.85
				C55.13,17.42,54.93,16.65,54.93,15.68z M58.36,15.68c0-0.55-0.07-0.98-0.2-1.27c-0.13-0.29-0.39-0.44-0.78-0.44
				c-0.39,0-0.65,0.15-0.79,0.45c-0.13,0.3-0.2,0.72-0.2,1.27c0,0.55,0.07,0.98,0.2,1.28c0.13,0.3,0.4,0.45,0.79,0.45
				c0.38,0,0.64-0.15,0.77-0.45C58.3,16.66,58.36,16.23,58.36,15.68z"/>
			<path class="st13" d="M63.63,14.48c0-0.48-0.21-0.72-0.62-0.72c-0.23,0-0.4,0.08-0.51,0.25c-0.11,0.16-0.17,0.42-0.18,0.76
				l-1.46,0c0.03-0.75,0.26-1.32,0.68-1.7c0.42-0.38,0.95-0.57,1.59-0.57c0.67,0,1.18,0.17,1.52,0.51c0.34,0.34,0.51,0.78,0.51,1.32
				c0,0.6-0.23,1.19-0.69,1.76c-0.46,0.58-1.01,1.06-1.65,1.46l2.44,0l0,1.21l-4.41,0.01l0-1.12C62.7,16.32,63.63,15.26,63.63,14.48
				z"/>
			<path class="st13" d="M66.22,15.67c0-0.96,0.19-1.72,0.58-2.29c0.39-0.56,1.01-0.85,1.87-0.85c0.85,0,1.47,0.28,1.87,0.84
				s0.59,1.33,0.59,2.29c0,0.97-0.19,1.74-0.59,2.3c-0.39,0.57-1.01,0.85-1.87,0.85c-0.86,0-1.48-0.28-1.87-0.85
				C66.42,17.4,66.22,16.63,66.22,15.67z M69.65,15.66c0-0.55-0.07-0.98-0.2-1.27c-0.13-0.29-0.39-0.44-0.78-0.44
				c-0.39,0-0.65,0.15-0.79,0.45c-0.13,0.3-0.2,0.72-0.2,1.27c0,0.55,0.07,0.98,0.2,1.28c0.13,0.3,0.4,0.45,0.79,0.45
				c0.38,0,0.64-0.15,0.77-0.45C69.58,16.64,69.65,16.22,69.65,15.66z"/>
		</g>
	</g>
</g>
</svg>
