<?xml version="1.0" encoding="utf-8"?>
<!-- Generator: Adobe Illustrator 24.1.2, SVG Export Plug-In . SVG Version: 6.00 Build 0)  -->
<svg version="1.1" id="Layer_1" xmlns="http://www.w3.org/2000/svg" xmlns:xlink="http://www.w3.org/1999/xlink" x="0px" y="0px"
	 viewBox="0 0 326.7 91.1" style="enable-background:new 0 0 326.7 91.1;" xml:space="preserve">
<style type="text/css">
	.st0{enable-background:new    ;}
	.st1{fill:#38B34A;}
	.st2{fill:#221F1F;}
	.st3{fill:#FFFFFF;}
	.st4{fill:#36B24A;}
	.st5{opacity:0.9;}
</style>
<g class="st0">
	<path class="st1" d="M134.2,72.7c0.9,0.5,1.6,1.2,2.1,2.1c0.5,0.9,0.8,1.9,0.8,3c0,1.1-0.3,2.1-0.8,3c-0.5,0.9-1.2,1.6-2.1,2.1
		c-0.9,0.5-1.8,0.7-2.9,0.7c-1.1,0-2-0.2-2.9-0.7c-0.9-0.5-1.6-1.2-2.1-2.1c-0.5-0.9-0.8-1.9-0.8-3c0-1.1,0.3-2.1,0.8-3
		c0.5-0.9,1.2-1.6,2.1-2.1c0.9-0.5,1.8-0.7,2.9-0.7C132.3,72,133.3,72.2,134.2,72.7z M129.1,75.4c-0.5,0.6-0.8,1.4-0.8,2.4
		c0,1,0.3,1.8,0.8,2.4c0.5,0.6,1.2,0.9,2.1,0.9c0.9,0,1.6-0.3,2.1-0.9c0.5-0.6,0.8-1.4,0.8-2.4c0-1-0.3-1.8-0.8-2.4
		s-1.2-0.9-2.1-0.9C130.4,74.5,129.7,74.8,129.1,75.4z"/>
</g>
<g class="st0">
	<path class="st1" d="M151.2,83.5h-2.7l-4.6-7v7h-2.7V72.1h2.7l4.6,7v-7h2.7V83.5z"/>
	<path class="st1" d="M158.8,81.4h3.7v2.1H156V72.1h2.7V81.4z"/>
</g>
<g class="st0">
	<path class="st1" d="M169.9,72.1v11.4h-2.7V72.1H169.9z"/>
	<path class="st1" d="M184.9,83.5h-2.7l-4.6-7v7h-2.7V72.1h2.7l4.6,7v-7h2.7V83.5z"/>
</g>
<g class="st0">
	<path class="st1" d="M193.6,74.3v2.4h3.8v2.1h-3.8v2.5h4.3v2.2h-7.1V72.1h7.1v2.2H193.6z"/>
</g>
<g>
	<path class="st2" d="M1.2,68.5l11.9-15.8c0.1-0.1,0.1-0.2,0-0.3L1.2,34.5h37.5v34H1.2z"/>
	<path class="st3" d="M38.4,34.8v33.4H1.8l11.5-15.3c0.2-0.2,0.2-0.5,0-0.7L1.7,34.8H38.4 M39,34.2H0.6l12.2,18.3L0.6,68.8H39V34.2
		L39,34.2z"/>
</g>
<g>
	<path class="st2" d="M287.7,68.5v-34h37.6l-11.9,18.2c-0.1,0.1-0.1,0.2,0,0.3l11.8,15.4H287.7z"/>
	<path class="st3" d="M324.7,34.8l-11.6,17.8c-0.1,0.2-0.1,0.5,0,0.7l11.5,14.9H288V34.8H324.7 M325.8,34.2h-38.4v34.5h38.4
		l-12.2-15.8L325.8,34.2L325.8,34.2z"/>
</g>
<polygon class="st4" points="60.5,52.3 57.1,47.7 52.5,51 50.7,45.7 45.3,47.4 45.2,41.7 39.5,41.7 41.3,36.3 35.9,34.5 39.2,29.9 
	34.6,26.5 39.1,23.1 35.8,18.5 41.2,16.7 39.5,11.3 45.2,11.3 45.2,5.6 50.6,7.3 52.4,1.9 57,5.2 60.4,0.6 63.8,5.2 68.4,1.9 
	70.2,7.3 75.6,5.5 75.6,11.2 81.3,11.2 79.6,16.6 85,18.4 81.7,23.1 86.3,26.4 81.7,29.8 85,34.4 79.6,36.2 81.3,41.6 75.7,41.7 
	75.6,47.3 70.2,45.6 68.4,51 63.8,47.7 "/>
<g>
	<path class="st2" d="M25.7,65.5c-0.8,0-1.5-0.7-1.5-1.5V24.8c0-0.8,0.7-1.5,1.5-1.5h274.9c0.8,0,1.5,0.7,1.5,1.5v39.3
		c0,0.8-0.7,1.5-1.5,1.5H25.7z"/>
	<path class="st3" d="M300.7,23.6c0.7,0,1.2,0.5,1.2,1.2v39.3c0,0.7-0.5,1.2-1.2,1.2H25.7c-0.7,0-1.2-0.5-1.2-1.2V24.8
		c0-0.7,0.5-1.2,1.2-1.2H300.7 M300.7,23H25.7c-1,0-1.8,0.8-1.8,1.8v39.3c0,1,0.8,1.8,1.8,1.8h274.9c1,0,1.8-0.8,1.8-1.8V24.8
		C302.5,23.8,301.7,23,300.7,23L300.7,23z"/>
</g>
<g>
	<path class="st3" d="M43.8,54.3c-1.3,0-2.4-0.4-3.1-1.2c-0.6-0.6-1-1.4-1.1-2.5c0-0.3-0.1-0.6-0.1-0.8s0-0.4,0-0.5l0-10.2
		c0-0.8,0.1-1.5,0.4-2.1c0.3-0.6,0.6-1.1,1-1.5c0.4-0.4,0.9-0.7,1.4-0.9c0.5-0.2,1-0.3,1.5-0.3c1.1,0,2.1,0.3,2.9,1
		c0.3,0.3,0.7,0.7,1,1.3c0.3,0.6,0.5,1.4,0.5,2.3c0,0.2-0.1,0.5-0.3,0.6c-0.2,0.2-0.4,0.3-0.6,0.3c-0.3,0-0.5-0.1-0.7-0.3
		c-0.2-0.2-0.3-0.4-0.3-0.6c0-0.7-0.1-1.2-0.3-1.6c-0.2-0.4-0.4-0.7-0.7-0.9c-0.3-0.2-0.5-0.3-0.8-0.4c-0.3-0.1-0.5-0.1-0.6-0.1
		c-0.6,0-1.2,0.2-1.6,0.6c-0.5,0.5-0.8,1.3-0.8,2.3l0,10.3v0c0,0,0,0.1,0,0.3c0,0.2,0,0.4,0.1,0.6c0,0.2,0.1,0.5,0.2,0.8
		c0.1,0.3,0.2,0.5,0.5,0.7c0.4,0.4,1,0.6,1.7,0.6c0.8,0,1.4-0.2,1.8-0.7c0.2-0.2,0.3-0.4,0.4-0.7c0.1-0.3,0.2-0.5,0.2-0.7
		c0-0.2,0.1-0.5,0.1-0.8v0l0-3.3l-1.8,0c-0.3,0-0.5-0.1-0.7-0.3c-0.2-0.2-0.3-0.4-0.3-0.7c0-0.2,0.1-0.5,0.3-0.6
		c0.2-0.2,0.4-0.3,0.7-0.3l3.7,0l0,5.1c0,0.1,0,0.2,0,0.4c0,0.2,0,0.5-0.1,0.8c-0.2,1-0.6,1.7-1.1,2.4
		C46.2,53.9,45.1,54.3,43.8,54.3z"/>
	<path class="st3" d="M58.4,53.2c0.1,0.2,0,0.5-0.1,0.7c-0.1,0.2-0.3,0.3-0.5,0.4h-0.2c-0.2,0-0.4-0.1-0.5-0.2
		c-0.2-0.1-0.3-0.3-0.3-0.5L56,50.2l-4.2,0l-0.7,3.4c0,0.2-0.1,0.4-0.3,0.5c-0.2,0.1-0.4,0.2-0.6,0.2h-0.2c-0.2-0.1-0.4-0.2-0.5-0.4
		s-0.2-0.4-0.1-0.7L53,35.2c0-0.1,0-0.1,0.1-0.1v0v0c0-0.1,0.1-0.1,0.1-0.2l0-0.1h0v0h0v0h0v0h0c0,0,0.1-0.1,0.1-0.1
		c0,0,0.1,0,0.1-0.1v0h0c0,0,0.1,0,0.1,0c0,0,0.1,0,0.1,0h0h0.1h0c0,0,0.1,0,0.1,0c0,0,0.1,0,0.1,0h0v0c0.1,0,0.1,0,0.2,0.1
		c0,0,0.1,0,0.1,0.1h0v0h0v0h0v0l0,0.1c0,0,0,0.1,0.1,0.1c0,0,0,0.1,0.1,0.1v0v0c0,0,0,0.1,0,0.1L58.4,53.2z M55.7,48.5l-1.8-8.8
		l-1.7,8.8L55.7,48.5z"/>
	<path class="st3" d="M71.3,53.1c0,0.2-0.1,0.5-0.3,0.6c-0.2,0.2-0.4,0.3-0.7,0.3c-0.2,0-0.5-0.1-0.6-0.3c-0.2-0.2-0.3-0.4-0.3-0.6
		l0-13.8l-3,5.8c-0.1,0.2-0.2,0.4-0.4,0.5c-0.2,0.1-0.3,0.1-0.4,0.1c-0.1,0-0.2,0-0.2,0c-0.1,0-0.1,0-0.2-0.1
		c-0.2-0.1-0.4-0.3-0.5-0.5l-3-5.8l0,13.8c0,0.2-0.1,0.5-0.3,0.6c-0.2,0.2-0.4,0.3-0.6,0.3c-0.3,0-0.5-0.1-0.7-0.3
		c-0.2-0.2-0.3-0.4-0.3-0.6l0-17.6v-0.1v0v0c0,0,0,0,0,0v0v-0.1c0,0,0-0.1,0.1-0.2l0,0v0l0,0v0c0,0,0,0,0,0c0,0,0.1-0.1,0.1-0.1
		c0,0,0,0,0.1-0.1l0,0c0,0,0,0,0,0h0v0h0c0,0,0,0,0,0h0v0h0h0c0,0,0,0,0,0c0,0,0,0,0,0s0,0,0,0h0l0,0h0h0h0c0,0,0,0,0,0h0h0.1h0.1h0
		h0l0,0h0h0h0h0h0l0,0c0.1,0,0.1,0,0.2,0.1c0,0,0,0,0.1,0c0,0,0,0,0,0l0,0c0,0,0,0,0.1,0c0.1,0.1,0.1,0.1,0.1,0.1c0,0,0,0,0,0v0l0,0
		v0c0,0,0,0,0,0l0,0v0l0,0l4,7.7l3.9-7.7v0l0,0v0h0v0l0,0c0,0,0,0,0,0v0c0.1-0.1,0.1-0.1,0.2-0.1c0,0,0,0,0,0h0c0,0,0,0,0,0v0h0h0
		c0,0,0,0,0,0c0,0,0,0,0.1,0c0,0,0.1,0,0.1,0h0h0c0,0,0,0,0,0h0h0h0h0l0.1,0h0.1h0.1h0h0h0v0h0h0h0l0,0v0h0.1l0,0h0l0,0h0.1v0h0v0h0
		l0,0c0,0,0,0,0,0l0,0l0,0c0,0,0.1,0.1,0.1,0.1c0,0,0,0,0,0l0,0v0l0,0l0,0c0,0.1,0.1,0.1,0.1,0.2v0h0v0.1v0l0,0v0v0v0.1L71.3,53.1z"
		/>
	<path class="st3" d="M81.7,52.4c0.2,0.2,0.3,0.4,0.3,0.7c0,0.2-0.1,0.5-0.3,0.6c-0.2,0.2-0.4,0.3-0.7,0.3l-6.9,0
		c-0.3,0-0.5-0.1-0.7-0.3c-0.2-0.2-0.3-0.4-0.3-0.6l0-17.6c0-0.2,0.1-0.5,0.3-0.6c0.2-0.2,0.4-0.3,0.7-0.3l6.9,0
		c0.3,0,0.5,0.1,0.7,0.3c0.2,0.2,0.3,0.4,0.3,0.6c0,0.3-0.1,0.5-0.3,0.7c-0.2,0.2-0.4,0.3-0.7,0.3l-6,0l0,8l4.5,0
		c0.3,0,0.5,0.1,0.7,0.3c0.2,0.2,0.3,0.4,0.3,0.7c0,0.2-0.1,0.5-0.3,0.6c-0.2,0.2-0.4,0.3-0.7,0.3l-4.5,0l0,5.9l6,0
		C81.3,52.1,81.6,52.2,81.7,52.4z"/>
	<path class="st3" d="M100.7,54l-2,0l-1.4,0c-0.3,0-0.5-0.1-0.7-0.3c-0.2-0.2-0.3-0.4-0.3-0.6l0-17.6c0-0.2,0.1-0.5,0.3-0.6
		c0.2-0.2,0.4-0.3,0.7-0.3l1.4,0l2,0c0.5,0,1,0.1,1.5,0.3c0.5,0.2,1,0.5,1.4,0.8s0.7,0.9,1,1.5c0.3,0.6,0.4,1.3,0.4,2.1l0,10.1
		c0,0.8-0.1,1.5-0.4,2.1c-0.3,0.6-0.6,1.1-1,1.5c-0.4,0.4-0.9,0.7-1.4,0.9C101.7,53.9,101.2,54,100.7,54z M98.2,52.1h0.5l2,0
		c0.6,0,1.2-0.2,1.6-0.6c0.5-0.5,0.8-1.3,0.8-2.3l0-10.1c0-1-0.3-1.7-0.8-2.2c-0.5-0.4-1-0.6-1.6-0.6l-2,0l-0.5,0L98.2,52.1z"/>
	<path class="st3" d="M115.3,52.4c0.2,0.2,0.3,0.4,0.3,0.7c0,0.2-0.1,0.5-0.3,0.6c-0.2,0.2-0.4,0.3-0.7,0.3l-6.9,0
		c-0.3,0-0.5-0.1-0.7-0.3c-0.2-0.2-0.3-0.4-0.3-0.6l0-17.6c0-0.2,0.1-0.5,0.3-0.6c0.2-0.2,0.4-0.3,0.7-0.3l6.9,0
		c0.3,0,0.5,0.1,0.7,0.3c0.2,0.2,0.3,0.4,0.3,0.6c0,0.3-0.1,0.5-0.3,0.7c-0.2,0.2-0.4,0.3-0.7,0.3l-6,0l0,8l4.5,0
		c0.3,0,0.5,0.1,0.7,0.3c0.2,0.2,0.3,0.4,0.3,0.7c0,0.2-0.1,0.5-0.3,0.6c-0.2,0.2-0.4,0.3-0.7,0.3l-4.5,0l0,5.9l6,0
		C114.9,52.1,115.1,52.2,115.3,52.4z"/>
	<path class="st3" d="M125.5,34.5c0.3,0.1,0.5,0.2,0.6,0.4c0.1,0.2,0.2,0.4,0.1,0.7L122.7,53c-0.1,0.2-0.2,0.4-0.3,0.5
		c-0.2,0.1-0.4,0.2-0.6,0.2h-0.1l-0.1,0c-0.2,0-0.4-0.1-0.6-0.2c-0.2-0.1-0.3-0.3-0.3-0.5l-3.6-17.4c-0.1-0.2,0-0.5,0.1-0.7
		c0.1-0.2,0.3-0.4,0.6-0.4c0.2-0.1,0.5,0,0.7,0.1c0.2,0.1,0.4,0.3,0.4,0.6l2.7,13.3l2.7-13.3c0.1-0.2,0.2-0.4,0.4-0.6
		C125,34.5,125.3,34.4,125.5,34.5z"/>
	<path class="st3" d="M131.5,54c-1.2,0-2.2-0.3-3.1-1c-0.3-0.3-0.7-0.7-1-1.3c-0.3-0.6-0.5-1.3-0.5-2.3c0-0.3,0.1-0.5,0.3-0.7
		c0.2-0.2,0.4-0.3,0.7-0.3c0.2,0,0.5,0.1,0.6,0.3c0.2,0.2,0.3,0.4,0.3,0.7c0,0.6,0.1,1,0.3,1.4c0.2,0.4,0.4,0.6,0.6,0.8
		c0.3,0.2,0.6,0.3,0.9,0.4c0.3,0.1,0.6,0.1,1,0.1c0.2,0,0.4,0,0.7-0.1c0.3,0,0.6-0.2,1-0.4c0.3-0.2,0.6-0.5,0.8-0.8
		c0.2-0.4,0.4-0.9,0.3-1.5c0-0.6-0.1-1.2-0.3-1.7c-0.2-0.5-0.4-0.9-0.8-1.3c-0.3-0.4-0.7-0.7-1.1-1.1c-0.4-0.3-0.9-0.6-1.3-1
		c-0.4-0.3-0.8-0.6-1.3-0.9c-0.4-0.3-0.8-0.7-1.2-1.1c-0.8-1-1.2-2.1-1.3-3.3c0-0.1,0-0.2,0-0.4c0-0.2,0-0.5,0.1-0.7
		c0.2-0.9,0.5-1.6,1-2.2c0.8-0.8,1.8-1.2,3.2-1.2c1.3,0,2.4,0.4,3.1,1.2c0.3,0.3,0.5,0.6,0.6,1c0.2,0.4,0.3,0.8,0.3,1.3
		c0,0.3,0,0.6,0,0.8c0,0.2,0,0.3,0,0.4c-0.1,0.2-0.1,0.4-0.2,0.6c-0.1,0.1-0.2,0.3-0.3,0.4c-0.1,0.1-0.3,0.1-0.5,0.1
		c-0.2,0-0.4-0.1-0.5-0.3c-0.1-0.1-0.2-0.3-0.2-0.5c-0.1-0.2-0.1-0.4,0-0.6c0-0.2,0-0.5,0-0.7c0-0.2-0.1-0.4-0.2-0.6
		c-0.1-0.2-0.2-0.4-0.3-0.6c-0.3-0.4-0.9-0.6-1.7-0.6c-0.8,0-1.4,0.2-1.8,0.7c-0.2,0.2-0.3,0.4-0.4,0.7c-0.1,0.2-0.2,0.5-0.2,0.7
		c-0.1,0.2-0.1,0.5-0.1,0.7V39c0,0.4,0.1,0.8,0.2,1.2c0.1,0.3,0.3,0.7,0.6,1c0.3,0.3,0.6,0.6,0.9,0.9c0.4,0.3,0.8,0.6,1.2,0.9
		c0.5,0.3,1,0.7,1.5,1.1c0.5,0.4,0.9,0.8,1.3,1.3c0.9,1.1,1.4,2.5,1.4,4.1c0,0.8-0.1,1.5-0.4,2.1c-0.3,0.6-0.6,1.1-1.1,1.4
		c-0.4,0.4-0.9,0.7-1.5,0.8C132.7,53.9,132.1,54,131.5,54z"/>
	<path class="st3" d="M154,54.2c-1.3,0-2.4-0.4-3.1-1.3c-0.6-0.6-0.9-1.5-1.1-2.5c-0.1-0.3-0.1-0.6-0.1-0.8c0-0.2,0-0.4,0-0.5
		l0-10.2c0-0.8,0.1-1.5,0.4-2.1c0.3-0.6,0.6-1.1,1-1.5c0.4-0.4,0.9-0.7,1.4-0.9c0.5-0.2,1-0.3,1.5-0.3c0.3,0,0.7,0.1,1.3,0.2
		c0.5,0.1,1.1,0.4,1.6,0.9c0.2,0.2,0.3,0.3,0.5,0.5c0.2,0.2,0.3,0.5,0.5,0.8c0.1,0.3,0.3,0.6,0.4,1c0.1,0.4,0.1,0.8,0.1,1.3l0,10.4
		c0,0.1,0,0.2,0,0.4c0,0.2,0,0.5-0.1,0.8c-0.2,1-0.5,1.8-1.1,2.4C156.4,53.8,155.3,54.2,154,54.2z M151.6,49.3c0,0,0,0.1,0,0.3
		c0,0.2,0,0.4,0.1,0.6c0,0.2,0.1,0.5,0.2,0.8c0.1,0.3,0.2,0.5,0.5,0.7c0.4,0.4,1,0.6,1.7,0.6c0.8,0,1.4-0.2,1.8-0.7
		c0.2-0.2,0.3-0.4,0.4-0.7c0.1-0.3,0.2-0.5,0.2-0.7c0-0.2,0.1-0.4,0.1-0.6c0-0.2,0-0.2,0-0.3v-0.1l0-10.4c0-0.7-0.1-1.2-0.3-1.6
		c-0.2-0.4-0.5-0.7-0.7-0.8c-0.3-0.2-0.6-0.3-0.9-0.4c-0.3-0.1-0.5-0.1-0.6-0.1c-0.6,0-1.2,0.2-1.6,0.6c-0.5,0.5-0.8,1.3-0.8,2.3
		L151.6,49.3L151.6,49.3z"/>
	<path class="st3" d="M168.2,34.7c0.2,0.2,0.3,0.4,0.3,0.6c0,0.3-0.1,0.5-0.3,0.7s-0.4,0.3-0.7,0.3l-5.4,0l0,8l3.9,0
		c0.3,0,0.5,0.1,0.7,0.3c0.2,0.2,0.3,0.4,0.3,0.7c0,0.2-0.1,0.5-0.3,0.6c-0.2,0.2-0.4,0.3-0.7,0.3l-3.9,0l0,6.8
		c0,0.2-0.1,0.5-0.3,0.6c-0.2,0.2-0.4,0.3-0.6,0.3c-0.3,0-0.5-0.1-0.7-0.3c-0.2-0.2-0.3-0.4-0.3-0.6l0-17.6c0-0.2,0.1-0.5,0.3-0.6
		c0.2-0.2,0.4-0.3,0.7-0.3l6.3,0C167.8,34.4,168,34.5,168.2,34.7z"/>
	<path class="st3" d="M186,53.9c-1.3,0-2.3-0.4-3.1-1.2c-0.3-0.3-0.5-0.7-0.7-1.1c-0.2-0.4-0.3-0.9-0.4-1.4
		c-0.1-0.3-0.1-0.6-0.1-0.8c0-0.2,0-0.4,0-0.5l0-10.1c0-0.8,0.1-1.5,0.4-2.1c0.3-0.6,0.6-1.1,1-1.5c0.4-0.4,0.9-0.7,1.4-0.9
		c0.5-0.2,1-0.3,1.5-0.3c0.3,0,0.7,0.1,1.3,0.2c0.5,0.1,1.1,0.4,1.6,0.9c0.3,0.3,0.7,0.7,1,1.3c0.3,0.6,0.5,1.3,0.5,2.3
		c0,0.3-0.1,0.5-0.3,0.7c-0.2,0.2-0.4,0.3-0.7,0.3c-0.3,0-0.5-0.1-0.7-0.3c-0.2-0.2-0.3-0.4-0.3-0.7c0-0.6-0.1-1.2-0.3-1.5
		c-0.2-0.4-0.4-0.7-0.7-0.8c-0.3-0.2-0.6-0.3-0.8-0.4c-0.3-0.1-0.5-0.1-0.6-0.1c-0.3,0-0.6,0.1-0.9,0.2c-0.3,0.1-0.5,0.3-0.7,0.4
		c-0.5,0.5-0.8,1.2-0.8,2.2l0,10.1V49c0,0,0,0.1,0,0.3c0,0.2,0,0.4,0.1,0.6c0,0.2,0.1,0.5,0.2,0.8c0.1,0.3,0.2,0.5,0.4,0.7
		c0.4,0.4,1,0.6,1.7,0.6c0.8,0,1.4-0.2,1.8-0.7c0.2-0.2,0.3-0.4,0.4-0.7c0.1-0.2,0.2-0.5,0.2-0.7c0-0.2,0.1-0.5,0.1-0.8
		c0-0.3,0.1-0.5,0.2-0.7c0.2-0.2,0.4-0.3,0.7-0.3c0.2,0,0.5,0.1,0.7,0.2c0.2,0.2,0.3,0.4,0.3,0.6c0,0,0,0.2,0,0.4
		c0,0.2,0,0.5-0.1,0.9c-0.2,1-0.5,1.8-1.1,2.4C188.4,53.5,187.3,53.9,186,53.9z"/>
	<path class="st3" d="M196.4,54.1c-1.3,0-2.4-0.4-3.1-1.2c-0.6-0.6-0.9-1.5-1.1-2.5c-0.1-0.3-0.1-0.6-0.1-0.8c0-0.2,0-0.4,0-0.5
		l0-10.2c0-0.8,0.1-1.5,0.4-2.1c0.3-0.6,0.6-1.1,1-1.5c0.4-0.4,0.9-0.7,1.4-0.9c0.5-0.2,1-0.3,1.5-0.3c0.3,0,0.7,0.1,1.3,0.2
		c0.5,0.1,1.1,0.4,1.6,0.9c0.2,0.2,0.3,0.3,0.5,0.5c0.2,0.2,0.3,0.5,0.5,0.8c0.1,0.3,0.3,0.6,0.4,1c0.1,0.4,0.1,0.8,0.1,1.3l0,10.4
		c0,0.1,0,0.2,0,0.4c0,0.2,0,0.5-0.1,0.8c-0.2,1-0.5,1.8-1.1,2.4C198.8,53.7,197.7,54.1,196.4,54.1z M194,49.2c0,0,0,0.1,0,0.3
		c0,0.2,0,0.4,0.1,0.6c0,0.2,0.1,0.5,0.2,0.8c0.1,0.3,0.2,0.5,0.5,0.7c0.4,0.4,1,0.6,1.7,0.6c0.8,0,1.4-0.2,1.8-0.7
		c0.2-0.2,0.3-0.4,0.4-0.7c0.1-0.3,0.2-0.5,0.2-0.7c0-0.2,0.1-0.4,0.1-0.6c0-0.2,0-0.2,0-0.3v-0.1l0-10.4c0-0.7-0.1-1.2-0.3-1.6
		c-0.2-0.4-0.5-0.7-0.7-0.8c-0.3-0.2-0.6-0.3-0.9-0.4c-0.3-0.1-0.5-0.1-0.6-0.1c-0.6,0-1.2,0.2-1.6,0.6c-0.5,0.5-0.8,1.3-0.8,2.2
		L194,49.2L194,49.2z"/>
	<path class="st3" d="M210.8,53.8l-7,0c-0.2,0-0.5-0.1-0.6-0.3c-0.2-0.2-0.3-0.4-0.3-0.6l0-17.6c0-0.2,0.1-0.5,0.3-0.6
		c0.2-0.2,0.4-0.3,0.6-0.3c0.3,0,0.5,0.1,0.7,0.3c0.2,0.2,0.3,0.4,0.3,0.6l0,16.7l6,0c0.2,0,0.5,0.1,0.6,0.3
		c0.2,0.2,0.3,0.4,0.3,0.7c0,0.2-0.1,0.5-0.3,0.6C211.2,53.7,211,53.8,210.8,53.8z"/>
	<path class="st3" d="M217.1,54.1c-1.3,0-2.4-0.4-3.1-1.3c-0.6-0.6-0.9-1.5-1.1-2.5c-0.1-0.3-0.1-0.6-0.1-0.8c0-0.2,0-0.4,0-0.5
		l0-10.2c0-0.8,0.1-1.5,0.4-2.1c0.3-0.6,0.6-1.1,1-1.5c0.4-0.4,0.9-0.7,1.4-0.9c0.5-0.2,1-0.3,1.5-0.3c0.3,0,0.7,0.1,1.3,0.2
		c0.5,0.1,1.1,0.4,1.6,0.9c0.2,0.2,0.3,0.3,0.5,0.5c0.2,0.2,0.3,0.5,0.5,0.8c0.1,0.3,0.3,0.6,0.4,1c0.1,0.4,0.1,0.8,0.1,1.3l0,10.4
		c0,0.1,0,0.2,0,0.4c0,0.2,0,0.5-0.1,0.8c-0.2,1-0.5,1.8-1.1,2.4C219.5,53.7,218.4,54.1,217.1,54.1z M214.7,49.2c0,0,0,0.1,0,0.3
		c0,0.2,0,0.4,0.1,0.6c0,0.2,0.1,0.5,0.2,0.8c0.1,0.3,0.2,0.5,0.5,0.7c0.4,0.4,1,0.6,1.7,0.6c0.8,0,1.4-0.2,1.8-0.7
		c0.2-0.2,0.3-0.4,0.4-0.7c0.1-0.3,0.2-0.5,0.2-0.7c0-0.2,0.1-0.4,0.1-0.6c0-0.2,0-0.2,0-0.3v-0.1l0-10.4c0-0.7-0.1-1.2-0.3-1.6
		c-0.2-0.4-0.5-0.7-0.7-0.8c-0.3-0.2-0.6-0.3-0.9-0.4c-0.3-0.1-0.5-0.1-0.6-0.1c-0.6,0-1.2,0.2-1.6,0.6c-0.5,0.5-0.8,1.3-0.8,2.3
		L214.7,49.2L214.7,49.2z"/>
	<path class="st3" d="M232.6,52.5c0.1,0.2,0.1,0.5,0,0.7c-0.1,0.2-0.3,0.4-0.5,0.5c-0.1,0-0.1,0.1-0.2,0.1c-0.1,0-0.1,0-0.2,0
		c-0.2,0-0.4,0-0.5-0.1c-0.1-0.1-0.3-0.2-0.4-0.4l-3.1-7.2l-2.7,0l0,6.8c0,0.3-0.1,0.5-0.3,0.7c-0.2,0.2-0.4,0.3-0.7,0.3
		c-0.2,0-0.5-0.1-0.6-0.3c-0.2-0.2-0.3-0.4-0.3-0.7l0-17.6c0-0.3,0.1-0.5,0.3-0.7s0.4-0.3,0.6-0.3l3.9,0c0.6,0,1.1,0.2,1.6,0.5
		c0.5,0.3,1,0.8,1.4,1.4c0.3,0.6,0.6,1.2,0.8,1.9c0.2,0.7,0.3,1.4,0.3,2.1c0,0.7-0.1,1.4-0.3,2.1c-0.2,0.7-0.5,1.3-0.8,1.9
		c-0.4,0.7-0.9,1.1-1.4,1.4L232.6,52.5z M225.1,44.2l3,0c0.2,0,0.5-0.1,0.7-0.3c0.3-0.2,0.5-0.5,0.7-0.8c0.3-0.4,0.5-0.9,0.6-1.4
		c0.1-0.5,0.2-1,0.2-1.6c0-0.5-0.1-1-0.2-1.6c-0.1-0.5-0.4-1-0.6-1.4c-0.2-0.3-0.4-0.6-0.7-0.8c-0.3-0.2-0.5-0.3-0.7-0.3l-3,0
		L225.1,44.2z"/>
	<path class="st3" d="M255,52.1c0.2,0.2,0.3,0.4,0.3,0.7c0,0.2-0.1,0.5-0.3,0.6c-0.2,0.2-0.4,0.3-0.7,0.3l-6.9,0
		c-0.3,0-0.5-0.1-0.7-0.3c-0.2-0.2-0.3-0.4-0.3-0.6l0-17.6c0-0.2,0.1-0.5,0.3-0.6c0.2-0.2,0.4-0.3,0.7-0.3l6.9,0
		c0.3,0,0.5,0.1,0.7,0.3c0.2,0.2,0.3,0.4,0.3,0.6c0,0.3-0.1,0.5-0.3,0.7c-0.2,0.2-0.4,0.3-0.7,0.3l-6,0l0,8l4.5,0
		c0.3,0,0.5,0.1,0.7,0.3c0.2,0.2,0.3,0.4,0.3,0.7c0,0.2-0.1,0.5-0.3,0.6c-0.2,0.2-0.4,0.3-0.7,0.3l-4.5,0l0,5.9l6,0
		C254.6,51.9,254.8,52,255,52.1z"/>
	<path class="st3" d="M265.6,53.2c-0.1,0.2-0.3,0.4-0.5,0.5c-0.1,0-0.2,0.1-0.3,0.1c-0.2,0-0.4,0-0.5-0.1c-0.2-0.1-0.3-0.2-0.3-0.4
		l-2.7-6.8l-2.6,6.8c-0.1,0.2-0.2,0.3-0.3,0.4c-0.2,0.1-0.3,0.1-0.5,0.1c-0.1,0-0.2,0-0.3-0.1c-0.2-0.1-0.4-0.2-0.5-0.5
		c-0.1-0.2-0.1-0.5,0-0.7l2.8-7.2l0.6-1.5l-3.1-8c-0.1-0.2-0.1-0.5,0-0.7c0.1-0.2,0.3-0.4,0.5-0.5c0.2-0.1,0.5-0.1,0.7,0
		c0.2,0.1,0.4,0.3,0.5,0.5l2.4,6.1l2.4-6.1c0.1-0.2,0.2-0.4,0.5-0.5c0.2-0.1,0.5-0.1,0.7,0c0.2,0.1,0.4,0.2,0.5,0.5
		c0.1,0.2,0.1,0.5,0,0.7l-3.1,8.1l3.4,8.7C265.7,52.7,265.7,52.9,265.6,53.2z"/>
	<path class="st3" d="M275.3,36.2c0.3,0.6,0.6,1.2,0.8,1.9c0.2,0.7,0.3,1.4,0.3,2.1c0,0.7-0.1,1.4-0.3,2.1c-0.2,0.7-0.5,1.3-0.8,1.9
		c-0.4,0.6-0.9,1.1-1.4,1.4c-0.5,0.3-1,0.5-1.6,0.5l-3,0l0,6.9c0,0.3-0.1,0.5-0.3,0.7c-0.2,0.2-0.4,0.3-0.7,0.3
		c-0.2,0-0.5-0.1-0.6-0.3c-0.2-0.2-0.3-0.4-0.3-0.7l0-17.6c0-0.4,0.2-0.6,0.5-0.8c0.1-0.1,0.3-0.2,0.5-0.2l3.8,0
		c0.6,0,1.1,0.2,1.6,0.5C274.5,35.1,274.9,35.5,275.3,36.2z M273.8,43c0.3-0.4,0.5-0.9,0.6-1.4c0.1-0.5,0.2-1,0.2-1.6
		c0-0.5-0.1-1-0.2-1.6c-0.1-0.5-0.3-1-0.6-1.4c-0.2-0.3-0.4-0.6-0.7-0.8c-0.3-0.2-0.5-0.3-0.7-0.3l-3,0l0,8l3,0
		c0.2,0,0.5-0.1,0.7-0.3C273.3,43.6,273.6,43.4,273.8,43z"/>
	<path class="st3" d="M282.3,54c-1.3,0-2.4-0.4-3.1-1.2c-0.6-0.6-0.9-1.5-1.1-2.5c-0.1-0.3-0.1-0.6-0.1-0.8c0-0.2,0-0.4,0-0.5
		l0-10.2c0-0.8,0.1-1.5,0.4-2.1c0.3-0.6,0.6-1.1,1-1.5c0.4-0.4,0.9-0.7,1.4-0.9c0.5-0.2,1-0.3,1.5-0.3c0.3,0,0.7,0.1,1.3,0.2
		c0.5,0.1,1.1,0.4,1.6,0.9c0.2,0.2,0.3,0.3,0.5,0.5c0.2,0.2,0.3,0.5,0.5,0.8c0.1,0.3,0.3,0.6,0.4,1c0.1,0.4,0.1,0.8,0.1,1.3l0,10.4
		c0,0.1,0,0.2,0,0.4c0,0.2,0,0.5-0.1,0.8c-0.2,1-0.5,1.8-1.1,2.4C284.7,53.6,283.6,54,282.3,54z M279.9,49.1c0,0,0,0.1,0,0.3
		c0,0.2,0,0.4,0.1,0.6c0,0.2,0.1,0.5,0.2,0.8s0.2,0.5,0.5,0.7c0.4,0.4,1,0.6,1.7,0.6c0.8,0,1.4-0.2,1.8-0.7c0.2-0.2,0.3-0.4,0.4-0.7
		c0.1-0.3,0.2-0.5,0.2-0.7c0-0.2,0.1-0.4,0.1-0.6c0-0.2,0-0.2,0-0.3v-0.1l0-10.4c0-0.7-0.1-1.2-0.3-1.6c-0.2-0.4-0.5-0.7-0.7-0.8
		c-0.3-0.2-0.6-0.3-0.8-0.4c-0.3-0.1-0.5-0.1-0.6-0.1c-0.6,0-1.2,0.2-1.6,0.6c-0.5,0.5-0.8,1.3-0.8,2.3L279.9,49.1L279.9,49.1z"/>
</g>
<polygon class="st3" points="39,68.8 25.2,65.7 39,65.7 "/>
<polygon class="st3" points="287.4,68.8 301.3,65.7 287.5,65.7 "/>
<g class="st5">
	<g>
		<path class="st3" d="M52.2,14.3c0-0.5-0.2-0.7-0.6-0.7c-0.2,0-0.4,0.1-0.5,0.2c-0.1,0.2-0.2,0.4-0.2,0.8l-1.5,0
			c0-0.8,0.3-1.3,0.7-1.7c0.4-0.4,0.9-0.6,1.6-0.6c0.7,0,1.2,0.2,1.5,0.5c0.3,0.3,0.5,0.8,0.5,1.3c0,0.6-0.2,1.2-0.7,1.8
			c-0.5,0.6-1,1.1-1.7,1.5l2.4,0l0,1.2l-4.4,0l0-1.1C51.3,16.1,52.2,15.1,52.2,14.3z"/>
		<path class="st3" d="M54.8,15.5c0-1,0.2-1.7,0.6-2.3c0.4-0.6,1-0.8,1.9-0.8c0.9,0,1.5,0.3,1.9,0.8c0.4,0.6,0.6,1.3,0.6,2.3
			c0,1-0.2,1.7-0.6,2.3c-0.4,0.6-1,0.9-1.9,0.9c-0.9,0-1.5-0.3-1.9-0.8C55,17.2,54.8,16.4,54.8,15.5z M58.2,15.5
			c0-0.6-0.1-1-0.2-1.3c-0.1-0.3-0.4-0.4-0.8-0.4c-0.4,0-0.7,0.1-0.8,0.4c-0.1,0.3-0.2,0.7-0.2,1.3c0,0.6,0.1,1,0.2,1.3
			c0.1,0.3,0.4,0.5,0.8,0.5c0.4,0,0.6-0.2,0.8-0.5C58.2,16.4,58.2,16,58.2,15.5z"/>
		<path class="st3" d="M63.5,14.3c0-0.5-0.2-0.7-0.6-0.7c-0.2,0-0.4,0.1-0.5,0.2c-0.1,0.2-0.2,0.4-0.2,0.8l-1.5,0
			c0-0.8,0.3-1.3,0.7-1.7c0.4-0.4,0.9-0.6,1.6-0.6c0.7,0,1.2,0.2,1.5,0.5c0.3,0.3,0.5,0.8,0.5,1.3c0,0.6-0.2,1.2-0.7,1.8
			c-0.5,0.6-1,1.1-1.7,1.5l2.4,0l0,1.2l-4.4,0l0-1.1C62.6,16.1,63.5,15,63.5,14.3z"/>
		<path class="st3" d="M66.1,15.4c0-1,0.2-1.7,0.6-2.3c0.4-0.6,1-0.8,1.9-0.8c0.9,0,1.5,0.3,1.9,0.8c0.4,0.6,0.6,1.3,0.6,2.3
			c0,1-0.2,1.7-0.6,2.3c-0.4,0.6-1,0.9-1.9,0.9c-0.9,0-1.5-0.3-1.9-0.8C66.3,17.2,66.1,16.4,66.1,15.4z M69.5,15.4
			c0-0.6-0.1-1-0.2-1.3c-0.1-0.3-0.4-0.4-0.8-0.4c-0.4,0-0.7,0.1-0.8,0.4c-0.1,0.3-0.2,0.7-0.2,1.3c0,0.6,0.1,1,0.2,1.3
			c0.1,0.3,0.4,0.5,0.8,0.5c0.4,0,0.6-0.2,0.8-0.5C69.5,16.4,69.5,16,69.5,15.4z"/>
	</g>
</g>
</svg>
