<?xml version="1.0" encoding="utf-8"?>
<!-- Generator: Adobe Illustrator 24.2.3, SVG Export Plug-In . SVG Version: 6.00 Build 0)  -->
<svg version="1.1" id="Layer_1" xmlns="http://www.w3.org/2000/svg" xmlns:xlink="http://www.w3.org/1999/xlink" x="0px" y="0px"
	 viewBox="0 0 16 16" style="enable-background:new 0 0 16 16;" xml:space="preserve">
<style type="text/css">
	.st0{fill:#39B54A;}
</style>
<g>
	<g>
		<path class="st0" d="M11,0.4H5.2c-2.6,0-4.8,2.1-4.8,4.8v5.7c0,2.6,2.1,4.8,4.8,4.8H11c2.6,0,4.8-2.1,4.8-4.8V5.2
			C15.8,2.6,13.6,0.4,11,0.4z M14.3,10.9c0,1.8-1.5,3.4-3.4,3.4H5.2c-1.8,0-3.4-1.5-3.4-3.4V5.2c0-1.8,1.5-3.4,3.4-3.4H11
			c1.8,0,3.4,1.5,3.4,3.4V10.9z"/>
	</g>
</g>
<g>
	<g>
		<path class="st0" d="M8.1,4.2C6,4.2,4.3,6,4.3,8.1s1.7,3.8,3.8,3.8s3.8-1.7,3.8-3.8S10.2,4.2,8.1,4.2z M8.1,10.5
			c-1.3,0-2.4-1.1-2.4-2.4c0-1.3,1.1-2.4,2.4-2.4s2.4,1.1,2.4,2.4C10.5,9.4,9.4,10.5,8.1,10.5z"/>
	</g>
</g>
<g>
	<g>
		<circle class="st0" cx="12.2" cy="4" r="0.5"/>
	</g>
</g>
</svg>
