<?xml version="1.0" encoding="utf-8"?>
<!-- Generator: Adobe Illustrator 25.2.1, SVG Export Plug-In . SVG Version: 6.00 Build 0)  -->
<svg version="1.1" id="Layer_1" xmlns="http://www.w3.org/2000/svg" xmlns:xlink="http://www.w3.org/1999/xlink" x="0px" y="0px"
	 viewBox="0 0 16 16" style="enable-background:new 0 0 16 16;" xml:space="preserve">
<style type="text/css">
	.st0{fill:#39B54A;}
</style>
<path class="st0" d="M15.6,3.2c-0.6,0.3-1.2,0.4-1.8,0.5c0.7-0.4,1.2-1,1.3-1.7c-0.6,0.4-1.2,0.6-2,0.8c-0.6-0.6-1.3-1-2.3-1
	C9.2,1.6,7.8,3.1,7.8,4.8c0,0.3,0,0.5,0.1,0.7C5.3,5.4,2.9,4.1,1.4,2.2C1.1,2.7,1,3.2,1,3.8c0,1.1,0.6,2,1.4,2.6C2,6.3,1.5,6.2,1,6
	l0,0C1,7.5,2.1,8.8,3.5,9c-0.4,0.2-0.7,0.2-1,0.2c-0.2,0-0.4,0-0.6-0.1c0.4,1.2,1.5,2.1,3,2.2c-1.1,0.9-2.4,1.3-3.9,1.3
	c-0.3,0-0.5,0-0.8,0c1.3,0.9,3.1,1.4,4.8,1.4c5.8,0,8.9-4.8,8.9-8.9c0-0.1,0-0.3,0-0.4C14.7,4.3,15.1,3.8,15.6,3.2z"/>
</svg>
