<svg id="Layer_1" data-name="Layer 1" xmlns="http://www.w3.org/2000/svg" viewBox="0 0 3361.18 608.99"><defs><style>.cls-1{fill:#009444;}.cls-2{fill:#39b54a;}.cls-3{fill:#231f20;}.cls-4{fill:#fff;}.cls-5{opacity:0.75;}</style></defs><title>Logo Outline1000</title><polygon class="cls-1" points="494.41 152.53 505.63 167.77 521.02 156.75 526.99 174.71 545.02 168.98 545.15 187.9 564.07 188.03 558.35 206.07 576.3 212.04 565.28 227.42 580.52 238.65 565.28 249.87 576.3 265.26 558.35 271.23 564.07 289.26 545.15 289.39 545.02 308.31 526.99 302.59 521.02 320.55 505.63 309.52 494.41 324.76 483.18 309.52 467.8 320.55 461.83 302.59 443.79 308.31 443.66 289.39 424.74 289.26 430.47 271.23 412.51 265.26 423.53 249.87 408.29 238.65 423.53 227.42 412.51 212.04 430.47 206.07 424.74 188.03 443.66 187.9 443.79 168.98 461.83 174.71 467.8 156.75 483.18 167.77 494.41 152.53"/><polygon class="cls-2" points="494.41 477.29 463.3 435.07 420.66 465.61 404.12 415.84 354.13 431.71 353.78 379.27 301.34 378.92 317.21 328.93 267.44 312.39 297.98 269.76 255.76 238.65 297.98 207.54 267.44 164.91 317.21 148.36 301.34 98.38 353.78 98.03 354.13 45.58 404.12 61.45 420.66 11.68 463.3 42.23 494.41 0 525.51 42.22 568.15 11.68 584.69 61.45 634.67 45.58 635.03 98.03 687.47 98.38 671.6 148.36 721.37 164.91 690.83 207.54 733.05 238.65 690.83 269.76 721.37 312.39 671.6 328.93 687.47 378.92 635.03 379.27 634.67 431.71 584.69 415.84 568.15 465.61 525.52 435.07 494.41 477.29"/><polygon class="cls-3" points="5.46 606.49 150.32 421.59 5.3 245.36 358.53 245.36 358.53 606.49 5.46 606.49"/><path class="cls-4" d="M356,247.86V604H10.59L153.53,421.55,10.59,247.86H356m5-5H0L6.73,251,147.12,421.63,6.65,600.91.32,609H361V242.86Z"/><polygon class="cls-4" points="252.49 586.73 359.6 603.99 359.6 553.41 252.49 586.73"/><polygon class="cls-3" points="3002.65 606.49 3002.65 245.36 3355.89 245.36 3210.86 421.59 3355.72 606.49 3002.65 606.49"/><path class="cls-4" d="M3350.59,247.86,3207.65,421.55,3350.59,604H3005.15V247.86h345.44m10.59-5h-361V609h360.71l-6.33-8.08L3214.06,421.63,3354.45,251l6.73-8.18Z"/><polygon class="cls-4" points="3108.7 586.73 3001.58 603.99 3001.58 553.41 3108.7 586.73"/><rect class="cls-3" x="254.99" y="205.06" width="2851.21" height="379.17"/><path class="cls-4" d="M3103.7,207.56V581.73H257.48V207.56H3103.7m5-5H252.48V586.73H3108.7V202.56Z"/><path class="cls-4" d="M368.92,500q-21.28,0-33-13.44-9.52-9.8-12-26.6-.57-4.76-.7-8.4a24.84,24.84,0,0,1,.14-5V336.74q0-12.87,4.06-22.4a46.66,46.66,0,0,1,10.5-15.68,41.16,41.16,0,0,1,14.56-9.1,48.2,48.2,0,0,1,16.52-2.94q17.92,0,30.52,11.2,5.32,4.77,10.22,14.14t4.9,25.06a10,10,0,0,1-9.8,9.8,9.72,9.72,0,0,1-7.14-2.94,9.4,9.4,0,0,1-2.94-6.86q0-10.64-3.22-16.8A26.33,26.33,0,0,0,384,311a21.35,21.35,0,0,0-8.54-3.92,38,38,0,0,0-6.58-.84,25.33,25.33,0,0,0-17.36,6.44q-8.68,8.13-8.68,24.08V450.56a47.42,47.42,0,0,0,.56,6.58,45.73,45.73,0,0,0,2.1,8.4,20.23,20.23,0,0,0,4.9,7.84q6.16,6.72,18.48,6.72,13.16,0,19.32-7a24.7,24.7,0,0,0,4.76-7.56,43.44,43.44,0,0,0,2.38-7.84,46.84,46.84,0,0,0,.7-8.68V413.18h-19.6A10,10,0,0,1,366.4,403.1a9.41,9.41,0,0,1,2.94-6.86,9.72,9.72,0,0,1,7.14-2.94h39.2v54.88a21.74,21.74,0,0,1,.14,4.76,63.43,63.43,0,0,1-1,8.4q-3.08,15.4-12,25.2Q390.2,500,368.92,500Z"/><path class="cls-4" d="M530.47,488.78a8.78,8.78,0,0,1-1.4,7.14,9.63,9.63,0,0,1-5.88,4.06h-1.68a9.07,9.07,0,0,1-5.74-2.1,8.34,8.34,0,0,1-3.22-5.18L505,456.3H459.63l-7.28,36.4a8.38,8.38,0,0,1-3.22,5.18,9.46,9.46,0,0,1-6,2.1h-1.68a9.38,9.38,0,0,1-7-11.2L473.35,295.3a3.41,3.41,0,0,1,.56-1.4v-.56a4.11,4.11,0,0,1,1.4-2v-.56h.28v-.28h.28v-.28h.28V290h.28a4.42,4.42,0,0,1,1.12-.84,11.66,11.66,0,0,1,1.4-.56v-.28h.28a2.82,2.82,0,0,1,1.26-.28,2.76,2.76,0,0,0,1.26-.28h1.12a2.73,2.73,0,0,0,1.26.28,2.83,2.83,0,0,1,1.26.28h.28v.28a9.3,9.3,0,0,1,1.68.56,4.59,4.59,0,0,1,1.12.84h.28v.28H489v.28h.28v.28l.28.56a3.65,3.65,0,0,0,.7,1,3.77,3.77,0,0,1,.7,1v.56a2.24,2.24,0,0,1,.28,1.4ZM501.35,438.1,482,343.46,463.27,438.1Z"/><path class="cls-4" d="M668.51,487.66a9.64,9.64,0,0,1-2.8,6.86,9.27,9.27,0,0,1-7,2.94,10,10,0,0,1-9.8-9.8V340.1L617,402.54a9.53,9.53,0,0,1-4.76,5.6,12.9,12.9,0,0,1-4.48,1.12,8.62,8.62,0,0,1-2.38-.28,11.61,11.61,0,0,1-2.1-.84,9.34,9.34,0,0,1-5-5.6L566.59,340.1V487.66a10,10,0,0,1-9.8,9.8,9.72,9.72,0,0,1-7.14-2.94,9.4,9.4,0,0,1-2.94-6.86V297.82a.25.25,0,0,0,.28-.28v-.84a22.06,22.06,0,0,0,.84-2.24l.28-.28v-.28l.28-.28v-.28a.25.25,0,0,0,.28-.28,4.06,4.06,0,0,0,.7-.84,1.52,1.52,0,0,1,.7-.56l.28-.28a.25.25,0,0,1,.28-.28h.28v-.28h.28a.25.25,0,0,1,.28-.28h.28v-.28h.56a.25.25,0,0,1,.28-.28c.18,0,.28,0,.28-.14s.09-.14.28-.14h.28l.28-.28h.84a.25.25,0,0,1,.28-.28h3.64l.28.28A5,5,0,0,1,561,290a.79.79,0,0,0,.56.28.25.25,0,0,0,.28.28l.28.28a.83.83,0,0,1,.56.28,5.89,5.89,0,0,0,1.4,1.12.25.25,0,0,0,.28.28v.28l.28.28v.28a.25.25,0,0,1,.28.28l.28.28v.28l.28.28,42.28,82.88L650,294.46v-.28l.28-.28v-.28h.28v-.28l.28-.28a.25.25,0,0,1,.28-.28v-.28a7.9,7.9,0,0,1,1.68-1.4.25.25,0,0,1,.28-.28h.28a.25.25,0,0,1,.28-.28v-.28h.56a.25.25,0,0,1,.28-.28,1,1,0,0,1,.7-.28,2.25,2.25,0,0,0,1-.28h.56a.25.25,0,0,1,.28-.28h3.64v.28h1.12v.28h.56l.28.28h.28l.28.28h.56v.28H664v.28h.28l.28.28a.25.25,0,0,1,.28.28h.28l.28.28a3.09,3.09,0,0,1,1.12,1.4.25.25,0,0,1,.28.28l.28.28v.28l.28.28.28.28a4.54,4.54,0,0,1,.56,2v.28h.28v191Z"/><path class="cls-4" d="M786.25,480.52a9.72,9.72,0,0,1,2.94,7.14,9.4,9.4,0,0,1-2.94,6.86,9.73,9.73,0,0,1-7.14,2.94h-74.2a9.72,9.72,0,0,1-7.14-2.94,9.4,9.4,0,0,1-2.94-6.86V298.94a9.41,9.41,0,0,1,2.94-6.86,9.72,9.72,0,0,1,7.14-2.94h74.2a9.73,9.73,0,0,1,7.14,2.94,9.41,9.41,0,0,1,2.94,6.86A10,10,0,0,1,779.11,309h-64.4v86h48.44a9.27,9.27,0,0,1,7,2.94,10,10,0,0,1,2.8,7.14,9.64,9.64,0,0,1-2.8,6.86,9.27,9.27,0,0,1-7,2.94H714.71v62.72h64.4A9.72,9.72,0,0,1,786.25,480.52Z"/><path class="cls-4" d="M989.39,497.46h-37a9.27,9.27,0,0,1-7-2.94,9.63,9.63,0,0,1-2.8-6.86V298.94a9.64,9.64,0,0,1,2.8-6.86,9.27,9.27,0,0,1,7-2.94h37a48.22,48.22,0,0,1,16.52,2.94,41.26,41.26,0,0,1,14.56,9.1,46.77,46.77,0,0,1,10.5,15.68q4.05,9.52,4.06,22.4v107.8q0,13.17-4.06,22.54a48.67,48.67,0,0,1-10.5,15.68,40.31,40.31,0,0,1-14.56,9.24A48.22,48.22,0,0,1,989.39,497.46Zm-27.16-19.88h27.16a24.67,24.67,0,0,0,17.36-6.44q8.68-8.12,8.68-24.08V339.26q0-15.4-8.68-24.08a25.33,25.33,0,0,0-17.36-6.44H962.23Z"/><path class="cls-4" d="M1151.08,480.52a9.72,9.72,0,0,1,2.94,7.14,9.4,9.4,0,0,1-2.94,6.86,9.72,9.72,0,0,1-7.14,2.94h-74.2a9.73,9.73,0,0,1-7.14-2.94,9.4,9.4,0,0,1-2.94-6.86V298.94a9.41,9.41,0,0,1,2.94-6.86,9.73,9.73,0,0,1,7.14-2.94h74.2a9.72,9.72,0,0,1,7.14,2.94,9.41,9.41,0,0,1,2.94,6.86A10,10,0,0,1,1143.94,309h-64.4v86H1128a9.27,9.27,0,0,1,7,2.94,10,10,0,0,1,2.8,7.14,9.65,9.65,0,0,1-2.8,6.86,9.27,9.27,0,0,1-7,2.94h-48.44v62.72h64.4A9.72,9.72,0,0,1,1151.08,480.52Z"/><path class="cls-4" d="M1260.7,289.42a9.94,9.94,0,0,1,7.84,11.76l-37.8,186.76a10.19,10.19,0,0,1-3.64,5.6,9.63,9.63,0,0,1-6.16,2.24h-1.4a9.62,9.62,0,0,1-6.16-2.24,8.83,8.83,0,0,1-3.36-5.6l-37.8-186.76a9.56,9.56,0,0,1,1.4-7.42,9.42,9.42,0,0,1,6.16-4.34,9.28,9.28,0,0,1,7.42,1.54,9.94,9.94,0,0,1,4.34,6.3l28.84,142,28.84-142a10.09,10.09,0,0,1,4.2-6.3A8.89,8.89,0,0,1,1260.7,289.42Z"/><path class="cls-4" d="M1336.3,498.58q-19.6,0-33-11.2-5.32-4.48-10.5-13.58T1287.58,449a9.27,9.27,0,0,1,2.94-7,10,10,0,0,1,7.14-2.8,9.19,9.19,0,0,1,6.72,2.8,9.51,9.51,0,0,1,2.8,7q0,9.24,2.66,15.12a23.18,23.18,0,0,0,6.86,9.1,24.87,24.87,0,0,0,9.38,4.48A43.12,43.12,0,0,0,1336.3,479a63.74,63.74,0,0,0,8-.7,26.24,26.24,0,0,0,10.22-3.78,27.92,27.92,0,0,0,8.82-9q3.78-5.88,3.78-16.52a51.7,51.7,0,0,0-2.94-18.2,47.55,47.55,0,0,0-8.12-14,76.92,76.92,0,0,0-11.9-11.34q-6.72-5.18-14.28-10.5-6.72-4.76-13.58-10.08a87,87,0,0,1-12.46-11.76,54.31,54.31,0,0,1-13.44-35.56c0-.74,0-2.24.14-4.48a55.64,55.64,0,0,1,1-7.84q2.52-14.28,11.2-23.8,12.6-13.16,33.88-13.16,21.56,0,33.32,13.16a38.34,38.34,0,0,1,6.72,10.92,44.37,44.37,0,0,1,3.08,13.44,58.77,58.77,0,0,1,.42,8.54,16.93,16.93,0,0,1-.42,4.06,44.35,44.35,0,0,1-2,6.44,17.09,17.09,0,0,1-3.36,3.92q-2,1.68-5.88,1.12t-5.6-2.94a13.53,13.53,0,0,1-2.24-4.9,14.83,14.83,0,0,1-.28-6.44,25.8,25.8,0,0,0,0-7.56,68.16,68.16,0,0,0-1.68-6.86,19.54,19.54,0,0,0-3.64-6.86q-5.6-6.72-18.48-6.72t-19.32,7.28a20.29,20.29,0,0,0-4.62,7,37.94,37.94,0,0,0-2.1,7,26.31,26.31,0,0,0-.56,7.56v.84a33.6,33.6,0,0,0,2.24,12.6,37.06,37.06,0,0,0,6.3,10.36,72.58,72.58,0,0,0,9.8,9.38q5.74,4.62,13,9.94,8.12,5.32,15.82,11.34a93.75,93.75,0,0,1,14.42,14.14q15.12,18.48,15.12,44,0,12.88-4.34,22.26a43.85,43.85,0,0,1-11.48,15.4,47.64,47.64,0,0,1-16.24,9A59.31,59.31,0,0,1,1336.3,498.58Z"/><path class="cls-4" d="M1576.82,500.82q-21.28,0-33.32-13.44-9.24-10.08-11.76-26.6a53.84,53.84,0,0,1-.84-8.68,30.08,30.08,0,0,1,.28-5V337.58q0-12.87,4.06-22.4a48.22,48.22,0,0,1,10.5-15.82,40.18,40.18,0,0,1,14.56-9.24,48.16,48.16,0,0,1,16.52-2.94,66.53,66.53,0,0,1,13.72,2q8.67,2,17.08,9.24a57.48,57.48,0,0,1,5.6,5.88,36.92,36.92,0,0,1,5,8.26,64.29,64.29,0,0,1,3.78,11.06,58.11,58.11,0,0,1,1.54,14V453.64a48.34,48.34,0,0,1-.84,8.26q-2.8,15.4-12,25.48Q1598.1,500.82,1576.82,500.82Zm-26-52.64v3.08a48.29,48.29,0,0,0,.56,6.72,45.81,45.81,0,0,0,2.1,8.4,20.24,20.24,0,0,0,4.9,7.84q6.16,6.72,18.48,6.72,12.6,0,19.32-7a25.23,25.23,0,0,0,4.76-7.42,40,40,0,0,0,2.38-7.7,33.67,33.67,0,0,0,.7-6.16V337.58q0-10.64-3.36-16.66a26.38,26.38,0,0,0-7.84-9.1,23.51,23.51,0,0,0-9.1-3.92,42.71,42.71,0,0,0-6.86-.84,24.67,24.67,0,0,0-17.36,6.44q-8.68,8.12-8.68,24.08v110.6Z"/><path class="cls-4" d="M1735.15,292.08a9.41,9.41,0,0,1,2.94,6.86A10,10,0,0,1,1728,309h-57.4v86h41.44a9.26,9.26,0,0,1,7,2.94,10,10,0,0,1,2.8,7.14,9.64,9.64,0,0,1-2.8,6.86,9.27,9.27,0,0,1-7,2.94h-41.44v72.8a10,10,0,0,1-9.8,9.8,9.72,9.72,0,0,1-7.14-2.94,9.4,9.4,0,0,1-2.94-6.86V298.94a9.41,9.41,0,0,1,2.94-6.86,9.72,9.72,0,0,1,7.14-2.94H1728A9.72,9.72,0,0,1,1735.15,292.08Z"/><path class="cls-4" d="M1925.41,498q-21,0-33-13.44a35.06,35.06,0,0,1-7.56-11.48,68.8,68.8,0,0,1-4.2-14.84,53.86,53.86,0,0,1-.84-8.68V336.74q0-12.87,4.06-22.4a46.66,46.66,0,0,1,10.5-15.68,41.17,41.17,0,0,1,14.56-9.1,47.43,47.43,0,0,1,16.24-2.94,68.44,68.44,0,0,1,13.86,2q8.82,2,16.94,9.24,5.6,4.77,10.78,14t5.18,24.92a10.08,10.08,0,1,1-20.16,0q0-10.35-3.22-16.38a23.89,23.89,0,0,0-7.7-9,24.78,24.78,0,0,0-8.82-3.78,38.32,38.32,0,0,0-6.86-.84,25,25,0,0,0-9.1,1.68,21.12,21.12,0,0,0-7.42,4.76q-8.68,7.84-8.68,23.52V448.88a44.46,44.46,0,0,0,.56,6.44,43.09,43.09,0,0,0,2.1,8.12,22.19,22.19,0,0,0,4.62,7.7q6.16,6.72,18.2,6.72,12.6,0,18.76-7a23.44,23.44,0,0,0,4.62-7.28A43.24,43.24,0,0,0,1951,456a46.93,46.93,0,0,0,.7-8.68,9.46,9.46,0,0,1,2.52-7.28,10,10,0,0,1,7-3.36,10.32,10.32,0,0,1,10.64,9.24v4.2a49.12,49.12,0,0,1-1.12,9.24q-2.52,15.69-11.76,25.2Q1946.41,498,1925.41,498Z"/><path class="cls-4" d="M2042.17,500.82q-21.28,0-33.32-13.44-9.24-10.08-11.76-26.6a53.84,53.84,0,0,1-.84-8.68,30.08,30.08,0,0,1,.28-5V337.58q0-12.87,4.06-22.4a48.22,48.22,0,0,1,10.5-15.82,40.18,40.18,0,0,1,14.56-9.24,48.16,48.16,0,0,1,16.52-2.94,66.53,66.53,0,0,1,13.72,2q8.67,2,17.08,9.24a57.48,57.48,0,0,1,5.6,5.88,36.92,36.92,0,0,1,5,8.26,64.29,64.29,0,0,1,3.78,11.06,58.11,58.11,0,0,1,1.54,14V453.64a48.34,48.34,0,0,1-.84,8.26q-2.8,15.4-12,25.48Q2063.45,500.82,2042.17,500.82Zm-26-52.64v3.08a48.29,48.29,0,0,0,.56,6.72,45.81,45.81,0,0,0,2.1,8.4,20.24,20.24,0,0,0,4.9,7.84q6.16,6.72,18.48,6.72,12.6,0,19.32-7a25.23,25.23,0,0,0,4.76-7.42,40,40,0,0,0,2.38-7.7,33.67,33.67,0,0,0,.7-6.16V337.58q0-10.64-3.36-16.66a26.38,26.38,0,0,0-7.84-9.1,23.51,23.51,0,0,0-9.1-3.92,42.71,42.71,0,0,0-6.86-.84,24.67,24.67,0,0,0-17.36,6.44q-8.68,8.12-8.68,24.08v110.6Z"/><path class="cls-4" d="M2190.57,497.46h-74.48a10,10,0,0,1-9.8-9.8V298.94a10,10,0,0,1,9.8-9.8,9.27,9.27,0,0,1,7,2.94,9.65,9.65,0,0,1,2.8,6.86V477.58h64.68a9.41,9.41,0,0,1,6.86,2.94,9.72,9.72,0,0,1,2.94,7.14,10,10,0,0,1-9.8,9.8Z"/><path class="cls-4" d="M2258,500.82q-21.28,0-33.32-13.44-9.24-10.08-11.76-26.6a53.87,53.87,0,0,1-.84-8.68,29.8,29.8,0,0,1,.28-5V337.58q0-12.87,4.06-22.4a48.22,48.22,0,0,1,10.5-15.82,40.17,40.17,0,0,1,14.56-9.24,48.16,48.16,0,0,1,16.52-2.94,66.49,66.49,0,0,1,13.72,2q8.67,2,17.08,9.24a57.27,57.27,0,0,1,5.6,5.88,36.85,36.85,0,0,1,5,8.26,64.13,64.13,0,0,1,3.78,11.06,58.1,58.1,0,0,1,1.54,14V453.64a48.54,48.54,0,0,1-.84,8.26q-2.8,15.4-12,25.48Q2279.32,500.82,2258,500.82Zm-26-52.64v3.08a48,48,0,0,0,.56,6.72,45.65,45.65,0,0,0,2.1,8.4,20.22,20.22,0,0,0,4.9,7.84q6.16,6.72,18.48,6.72,12.6,0,19.32-7a25.15,25.15,0,0,0,4.76-7.42,40,40,0,0,0,2.38-7.7,33.82,33.82,0,0,0,.7-6.16V337.58q0-10.64-3.36-16.66a26.37,26.37,0,0,0-7.84-9.1,23.52,23.52,0,0,0-9.1-3.92,42.73,42.73,0,0,0-6.86-.84,24.67,24.67,0,0,0-17.36,6.44q-8.68,8.12-8.68,24.08v110.6Z"/><path class="cls-4" d="M2430.24,483.74a10,10,0,0,1,.28,7.7,8.4,8.4,0,0,1-5.32,5.18,7.1,7.1,0,0,1-2.1.7,13.22,13.22,0,0,1-1.82.14,10.57,10.57,0,0,1-5.46-1.4,9.54,9.54,0,0,1-3.78-4.48l-33.6-77h-29.12v73.08a9.26,9.26,0,0,1-2.94,7,10,10,0,0,1-7.14,2.8,9.63,9.63,0,0,1-6.86-2.8,9.26,9.26,0,0,1-2.94-7V299.22a9.72,9.72,0,0,1,2.94-7.14,9.4,9.4,0,0,1,6.86-2.94H2381a30.79,30.79,0,0,1,17.22,5.46,52.5,52.5,0,0,1,14.7,15.26,76.6,76.6,0,0,1,8.68,19.88,81.16,81.16,0,0,1,3.08,22.12,82.14,82.14,0,0,1-3.08,22.4,76.52,76.52,0,0,1-8.68,19.88q-7,10.64-15.12,15.4ZM2349.32,395H2381q3.64,0,7.7-3.08a31.43,31.43,0,0,0,7.42-8.4,54.19,54.19,0,0,0,6.58-14.7,61,61,0,0,0,2.38-16.94,60,60,0,0,0-2.38-16.66,54.26,54.26,0,0,0-6.58-14.7,28.36,28.36,0,0,0-7.42-8.54A13.32,13.32,0,0,0,2381,309h-31.64Z"/><path class="cls-4" d="M2669.78,480.52a9.72,9.72,0,0,1,2.94,7.14,9.4,9.4,0,0,1-2.94,6.86,9.73,9.73,0,0,1-7.14,2.94h-74.2a9.72,9.72,0,0,1-7.14-2.94,9.4,9.4,0,0,1-2.94-6.86V298.94a9.41,9.41,0,0,1,2.94-6.86,9.72,9.72,0,0,1,7.14-2.94h74.2a9.73,9.73,0,0,1,7.14,2.94,9.41,9.41,0,0,1,2.94,6.86A10,10,0,0,1,2662.64,309h-64.4v86h48.44a9.26,9.26,0,0,1,7,2.94,10,10,0,0,1,2.8,7.14,9.64,9.64,0,0,1-2.8,6.86,9.27,9.27,0,0,1-7,2.94h-48.44v62.72h64.4A9.72,9.72,0,0,1,2669.78,480.52Z"/><path class="cls-4" d="M2788.64,491.72a9.3,9.3,0,0,1-5.6,5.18,7.81,7.81,0,0,1-3.36.56,10.55,10.55,0,0,1-5.6-1.54,8.65,8.65,0,0,1-3.64-4.62l-28.28-73.08-28,73.08a8.67,8.67,0,0,1-3.64,4.62,10.56,10.56,0,0,1-5.6,1.54,7.78,7.78,0,0,1-3.36-.56,9.3,9.3,0,0,1-5.6-5.18,10,10,0,0,1-.28-7.7l29.68-77,6.44-16.24-33.32-86.24a10.42,10.42,0,0,1,.14-7.7,8.83,8.83,0,0,1,5.46-5.18,10.47,10.47,0,0,1,7.7.14,8.85,8.85,0,0,1,5.18,5.46l25.2,65.8,25.48-65.8a8.88,8.88,0,0,1,5-5.46,10.1,10.1,0,0,1,7.56-.14,9.33,9.33,0,0,1,5.6,5.18,10,10,0,0,1,.28,7.7l-33.32,86.24L2788.92,484A10,10,0,0,1,2788.64,491.72Z"/><path class="cls-4" d="M2899,309.58a76.68,76.68,0,0,1,8.68,19.88,81.22,81.22,0,0,1,3.08,22.12,82.2,82.2,0,0,1-3.08,22.4,76.6,76.6,0,0,1-8.68,19.88,50.68,50.68,0,0,1-14.7,15.12A31.34,31.34,0,0,1,2867,414.3H2835.4v73.36a9.57,9.57,0,0,1-9.8,9.8,9.63,9.63,0,0,1-6.86-2.8,9.26,9.26,0,0,1-2.94-7V299.22a9.27,9.27,0,0,1,5-8.68,7.47,7.47,0,0,1,5-1.68H2867a30.8,30.8,0,0,1,17.22,5.46A52.5,52.5,0,0,1,2899,309.58Zm-16.8,73.64a51.27,51.27,0,0,0,6.44-14.7,64.46,64.46,0,0,0,2.24-16.94,63.43,63.43,0,0,0-2.24-16.66,51.41,51.41,0,0,0-6.44-14.7,28.35,28.35,0,0,0-7.42-8.54,13.32,13.32,0,0,0-7.7-2.94H2835.4v86H2867a13.33,13.33,0,0,0,7.7-2.94A28.34,28.34,0,0,0,2882.16,383.22Z"/><path class="cls-4" d="M2978.75,500.82q-21.28,0-33.32-13.44-9.24-10.08-11.76-26.6a53.84,53.84,0,0,1-.84-8.68,30.08,30.08,0,0,1,.28-5V337.58q0-12.87,4.06-22.4a48.22,48.22,0,0,1,10.5-15.82,40.18,40.18,0,0,1,14.56-9.24,48.16,48.16,0,0,1,16.52-2.94,66.53,66.53,0,0,1,13.72,2q8.67,2,17.08,9.24a57.48,57.48,0,0,1,5.6,5.88,36.92,36.92,0,0,1,5,8.26,64.29,64.29,0,0,1,3.78,11.06,58.11,58.11,0,0,1,1.54,14V453.64a48.34,48.34,0,0,1-.84,8.26q-2.8,15.4-12,25.48Q3000,500.82,2978.75,500.82Zm-26-52.64v3.08a48.29,48.29,0,0,0,.56,6.72,45.81,45.81,0,0,0,2.1,8.4,20.24,20.24,0,0,0,4.9,7.84q6.16,6.72,18.48,6.72,12.6,0,19.32-7a25.23,25.23,0,0,0,4.76-7.42,40,40,0,0,0,2.38-7.7,33.67,33.67,0,0,0,.7-6.16V337.58q0-10.64-3.36-16.66a26.38,26.38,0,0,0-7.84-9.1,23.51,23.51,0,0,0-9.1-3.92,42.71,42.71,0,0,0-6.86-.84,24.67,24.67,0,0,0-17.36,6.44q-8.68,8.12-8.68,24.08v110.6Z"/><g class="cls-5"><path class="cls-4" d="M439.31,169.64h-20.7a3.31,3.31,0,0,1-2.5-1,3.44,3.44,0,0,1-1-2.45,37,37,0,0,1,5.3-18.4,69.42,69.42,0,0,1,5.1-7.65q2.8-3.65,5.7-7.15,2.4-3,4.65-5.85a50.76,50.76,0,0,0,4-5.75,35.16,35.16,0,0,0,2.75-5.8,17.22,17.22,0,0,0,1-5.9.29.29,0,0,1,.1-.2v-1a11.36,11.36,0,0,0-.25-2.15,13.66,13.66,0,0,0-.85-2.65,9.23,9.23,0,0,0-1.7-2.6q-2.3-2.6-7.4-2.6-4.8,0-7,2.5a6.19,6.19,0,0,0-1.4,2.55,26.31,26.31,0,0,0-.6,2.65,10.52,10.52,0,0,0,0,2.9,5.33,5.33,0,0,1-.1,2.3,3.75,3.75,0,0,1-.85,1.65,2.74,2.74,0,0,1-2,.85,2.57,2.57,0,0,1-2.1-.4,6,6,0,0,1-1.2-1.4,6.43,6.43,0,0,1-.7-2,6.13,6.13,0,0,1-.15-1.5,22.61,22.61,0,0,1,.15-3.2,15.75,15.75,0,0,1,3.6-9q4.4-4.9,12.3-4.9t12.6,4.9a13.44,13.44,0,0,1,2.7,4,25.6,25.6,0,0,1,1.35,4.1,15.37,15.37,0,0,1,.45,3.4v1.85q0,7-4.5,14.8a72.92,72.92,0,0,1-4.45,6.5q-2.45,3.2-5,6.3-2.4,2.9-4.75,5.9a72.3,72.3,0,0,0-4.3,6.1,44.77,44.77,0,0,0-3.35,6.4,27,27,0,0,0-1.9,6.9h17q3.7,0,4.5-1.2a4.73,4.73,0,0,0,.75-2.4q.15-1.6.15-3.1a3.42,3.42,0,0,1,3.5-3.5,3.44,3.44,0,0,1,2.45,1,3.31,3.31,0,0,1,1.05,2.5,32.21,32.21,0,0,1-.4,5.35,9.85,9.85,0,0,1-1.8,4.25,8.21,8.21,0,0,1-2.25,2.2,11.35,11.35,0,0,1-2.65,1.25,11.85,11.85,0,0,1-2.75.55Q440.51,169.64,439.31,169.64Z"/><path class="cls-4" d="M491.21,151.64q0,.4-.05,1.9a20,20,0,0,1-.5,3.55,23.84,23.84,0,0,1-1.45,4.35,14.46,14.46,0,0,1-2.8,4.2q-4.6,4.9-12.3,4.9t-12.1-4.9a13.68,13.68,0,0,1-2.5-3.6.58.58,0,0,0-.2-.4,21.3,21.3,0,0,1-1.6-5.7,21,21,0,0,1-.3-3.2v-42.1a20.93,20.93,0,0,1,1.45-8.15,16.36,16.36,0,0,1,3.85-5.7,15.89,15.89,0,0,1,5.35-3.35,16.93,16.93,0,0,1,5.95-1.1,25.39,25.39,0,0,1,5.1.7,14.37,14.37,0,0,1,6.3,3.4,13.86,13.86,0,0,1,1.25,1.2,12.73,12.73,0,0,1,1.25,1.6c.07.07.1.12.1.15s0,.08.1.15a18.3,18.3,0,0,1,2.2,4.65,21.17,21.17,0,0,1,.9,6.55Zm-23.6-49.9q-3.2,3-3.2,8.9v35.1l16.7-43.7a8.3,8.3,0,0,0-4.15-2.3,19.68,19.68,0,0,0-3-.4A9.31,9.31,0,0,0,467.61,101.74Zm13.7,59.2a7.86,7.86,0,0,0,1.8-2.75,16.48,16.48,0,0,0,.85-2.9,13.08,13.08,0,0,0,.25-2.3V113.64L466.41,160c.13.13.27.29.4.45a5,5,0,0,0,.4.45q2.3,2.6,6.9,2.6A9.73,9.73,0,0,0,481.31,160.94Z"/><path class="cls-4" d="M531.21,162.54a3.4,3.4,0,0,1,1,2.5,3.44,3.44,0,0,1-1,2.45,3.31,3.31,0,0,1-2.5,1h-27.3a3.59,3.59,0,0,1-3.5-3.5,3.31,3.31,0,0,1,1-2.5,3.45,3.45,0,0,1,2.45-1h10.2v-57.4l-7.3,7.4a3.54,3.54,0,0,1-5-5l13.4-13.3a3.36,3.36,0,0,1,3.8-.8,3.41,3.41,0,0,1,2.1,3.3v65.8h10.1A3.4,3.4,0,0,1,531.21,162.54Z"/><path class="cls-4" d="M575,152.84a.8.8,0,0,0-.1.5,18.37,18.37,0,0,1-3.6,10.4q-3.8,5-11.4,6.2a20.26,20.26,0,0,1-2.1.3c-.73.07-1.47.1-2.2.1h-.9a24.93,24.93,0,0,1-3.9-.3q-7.7-1.2-11.8-6.3-3.6-4.6-3.6-12.5,0-14.5,6.5-21.1a21.27,21.27,0,0,1,2.3-2,2.2,2.2,0,0,0-.5-.4,14.09,14.09,0,0,1-4.1-7,42.68,42.68,0,0,1-1.1-10.6v-2.4q0-.9.1-2a17.33,17.33,0,0,1,3.8-9q4.2-4.9,12.3-4.9h.9q8.1,0,12.4,4.9a16.16,16.16,0,0,1,3.7,9,13.34,13.34,0,0,1,.1,3.6v.8q0,3.3-.25,6a24.33,24.33,0,0,1-.85,4.65,13.56,13.56,0,0,1-4.1,7,2.13,2.13,0,0,1-.5.4l1.2,1,1.2,1q6.5,6.8,6.5,21.1v.8a3.29,3.29,0,0,1-.1.8ZM546.9,135q-4.5,4.7-4.5,16.2v.5a16.49,16.49,0,0,0,.4,2.25,11.62,11.62,0,0,0,1.7,3.85,10.3,10.3,0,0,0,7.3,5.2,18.4,18.4,0,0,0,3.4.3,20.7,20.7,0,0,0,3.6-.3,10.62,10.62,0,0,0,7.1-5,11.24,11.24,0,0,0,1.5-3.25q.4-1.55.5-2.25a6,6,0,0,0,.1-1.3q0-11.4-4.6-16.2-2.8-3-8.2-3.7A13.92,13.92,0,0,0,546.9,135Zm-1.4-25.6a2.51,2.51,0,0,1,0,1q.1,9.8,2.8,11.9a5.69,5.69,0,0,0,2.75,1.25,26.94,26.94,0,0,0,4.15.45,26.49,26.49,0,0,0,4-.45,6.42,6.42,0,0,0,2.85-1.25q2.7-2.1,2.7-12.3v-.9a14.6,14.6,0,0,0-.1-1.5,12.21,12.21,0,0,0-.4-2,17.8,17.8,0,0,0-.8-2.2,6.6,6.6,0,0,0-1.4-2q-2.4-2.6-6.9-2.6t-6.9,2.6a7.39,7.39,0,0,0-1.45,2,14.21,14.21,0,0,0-.85,2.2,11.89,11.89,0,0,0-.4,2,13.84,13.84,0,0,0-.1,1.5Z"/></g></svg>