<svg id="Layer_1" data-name="Layer 1" xmlns="http://www.w3.org/2000/svg" xmlns:xlink="http://www.w3.org/1999/xlink" viewBox="0 0 603.8 173.93"><defs><style>.cls-1{fill:none;}.cls-2{clip-path:url(#clip-path);}.cls-3{fill:#c49a6c;}.cls-4{fill:#d6af8a;}.cls-5{fill:#ddbea4;}.cls-6{fill:#009444;}.cls-7{fill:#39b54a;}.cls-8{fill:#231f20;}.cls-9{fill:#fff;}.cls-10{opacity:0.75;}.cls-11{fill:#96602e;}</style><clipPath id="clip-path"><rect class="cls-1" x="-437.99" y="410.93" width="307" height="308.83"/></clipPath></defs><title>logo</title><g class="cls-2"><polygon class="cls-3" points="118.07 774.97 108.62 720.43 -391.16 162.2 -381.7 216.74 118.07 774.97"/><polygon class="cls-4" points="122.8 737.41 113.34 682.87 -386.44 124.64 -376.98 179.18 122.8 737.41"/><polygon class="cls-5" points="134.61 707.77 125.15 653.24 -374.63 95.01 -365.17 149.54 134.61 707.77"/></g><polygon class="cls-6" points="88.81 27.4 90.83 30.14 93.6 28.16 94.67 31.39 97.91 30.36 97.93 33.76 101.33 33.78 100.3 37.02 103.53 38.09 101.55 40.85 104.28 42.87 101.55 44.89 103.53 47.65 100.3 48.72 101.33 51.96 97.93 51.99 97.91 55.39 94.67 54.36 93.6 57.58 90.83 55.6 88.81 58.34 86.8 55.6 84.03 57.58 82.96 54.36 79.72 55.39 79.7 51.99 76.3 51.96 77.33 48.72 74.1 47.65 76.08 44.89 73.35 42.87 76.08 40.85 74.1 38.09 77.33 37.02 76.3 33.78 79.7 33.76 79.72 30.36 82.96 31.39 84.03 28.16 86.8 30.14 88.81 27.4"/><polygon class="cls-7" points="88.81 85.74 83.23 78.16 75.57 83.64 72.6 74.7 63.62 77.55 63.55 68.13 54.13 68.07 56.98 59.09 48.04 56.12 53.53 48.46 45.95 42.87 53.53 37.28 48.04 29.62 56.98 26.65 54.13 17.67 63.55 17.61 63.62 8.19 72.6 11.04 75.57 2.1 83.23 7.58 88.81 0 94.4 7.58 102.06 2.1 105.03 11.04 114.01 8.19 114.08 17.61 123.5 17.67 120.65 26.65 129.59 29.62 124.1 37.28 131.69 42.87 124.1 48.46 129.59 56.12 120.65 59.09 123.5 68.07 114.08 68.13 114.01 77.55 105.03 74.7 102.06 83.64 94.4 78.16 88.81 85.74"/><polygon class="cls-8" points="0.98 108.95 27 75.73 0.95 44.08 64.41 44.08 64.41 108.95 0.98 108.95"/><path class="cls-9" d="M64,44.53v64H1.9L27.58,75.73,1.9,44.53H64m.9-.9H0L1.21,45.1,26.43,75.74,1.2,107.95.06,109.4h64.8V43.63Z"/><polygon class="cls-9" points="45.36 105.4 64.6 108.5 64.6 99.42 45.36 105.4"/><polygon class="cls-8" points="539.4 108.95 539.4 44.08 602.85 44.08 576.8 75.73 602.83 108.95 539.4 108.95"/><path class="cls-9" d="M601.9,44.53l-25.68,31.2L601.9,108.5H539.85v-64H601.9m1.9-.9H538.95V109.4h64.8l-1.14-1.45L577.38,75.74,602.6,45.1l1.21-1.47Z"/><polygon class="cls-9" points="558.45 105.4 539.21 108.5 539.21 99.42 558.45 105.4"/><rect class="cls-8" x="45.81" y="36.84" width="512.19" height="68.11"/><path class="cls-9" d="M557.55,37.29V104.5H46.25V37.29h511.3m.9-.9H45.36v69H558.45v-69Z"/><path class="cls-9" d="M66.27,89.82a7.47,7.47,0,0,1-5.94-2.41,8.44,8.44,0,0,1-2.16-4.78q-.1-.85-.13-1.51a4.48,4.48,0,0,1,0-.91V60.49a10.2,10.2,0,0,1,.73-4,8.37,8.37,0,0,1,1.89-2.82A7.39,7.39,0,0,1,63.3,52a8.66,8.66,0,0,1,3-.53,8,8,0,0,1,5.48,2A9,9,0,0,1,73.59,56a9.77,9.77,0,0,1,.88,4.5,1.8,1.8,0,0,1-1.76,1.76,1.75,1.75,0,0,1-1.28-.53,1.69,1.69,0,0,1-.53-1.23,6.58,6.58,0,0,0-.58-3A4.74,4.74,0,0,0,69,55.86a3.83,3.83,0,0,0-1.53-.7A6.8,6.8,0,0,0,66.27,55a4.55,4.55,0,0,0-3.12,1.16,5.64,5.64,0,0,0-1.56,4.33V80.94a8.47,8.47,0,0,0,.1,1.18,8.22,8.22,0,0,0,.38,1.51A3.64,3.64,0,0,0,63,85a4.28,4.28,0,0,0,3.32,1.21,4.12,4.12,0,0,0,4.33-2.62A7.79,7.79,0,0,0,71,82.22a8.44,8.44,0,0,0,.13-1.56V74.22H67.63a1.8,1.8,0,0,1-1.81-1.81,1.69,1.69,0,0,1,.53-1.23,1.75,1.75,0,0,1,1.28-.53h7v9.86a3.88,3.88,0,0,1,0,.85,11.45,11.45,0,0,1-.18,1.51,9.24,9.24,0,0,1-2.16,4.53A8,8,0,0,1,66.27,89.82Z"/><path class="cls-9" d="M95.29,87.8A1.58,1.58,0,0,1,95,89.09a1.73,1.73,0,0,1-1.06.73h-.3a1.63,1.63,0,0,1-1-.38,1.5,1.5,0,0,1-.58-.93L90.72,82H82.57l-1.31,6.54a1.5,1.5,0,0,1-.58.93,1.7,1.7,0,0,1-1.08.38h-.3a1.69,1.69,0,0,1-1.26-2L85,53a.62.62,0,0,1,.1-.25v-.1a.74.74,0,0,1,.25-.35v-.1h.05v-.05h.05v-.05h.05v-.05h.05a.77.77,0,0,1,.2-.15l.25-.1v-.05h.05a.51.51,0,0,1,.23-.05.5.5,0,0,0,.23-.05h.2a.49.49,0,0,0,.23.05.51.51,0,0,1,.23.05h.05v.05a1.65,1.65,0,0,1,.3.1.8.8,0,0,1,.2.15h.05v.05h.05v.05h.05v.05l.05.1a.65.65,0,0,0,.13.18.68.68,0,0,1,.13.18v.1a.4.4,0,0,1,.05.25Zm-5.23-9.1-3.47-17-3.37,17Z"/><path class="cls-9" d="M120.09,87.6a1.73,1.73,0,0,1-.5,1.23,1.66,1.66,0,0,1-1.26.53,1.8,1.8,0,0,1-1.76-1.76V61.1l-5.73,11.22a1.71,1.71,0,0,1-.85,1,2.32,2.32,0,0,1-.8.2,1.56,1.56,0,0,1-.43-.05,2.12,2.12,0,0,1-.38-.15,1.68,1.68,0,0,1-.91-1L101.78,61.1V87.6A1.81,1.81,0,0,1,100,89.36a1.74,1.74,0,0,1-1.28-.53,1.69,1.69,0,0,1-.53-1.23V53.5a0,0,0,0,0,.05-.05V53.3a3.81,3.81,0,0,0,.15-.4l.05-.05V52.8l.05-.05V52.7a0,0,0,0,0,.05-.05.72.72,0,0,0,.13-.15.27.27,0,0,1,.13-.1l.05-.05a0,0,0,0,1,.05-.05H99v-.05H99a0,0,0,0,1,.05-.05h.05v-.05h.1a0,0,0,0,1,.05-.05s.05,0,.05,0,0,0,.05,0h.05l.05-.05h.15a0,0,0,0,1,.05-.05h.65l.05.05a.9.9,0,0,1,.4.1.14.14,0,0,0,.1.05,0,0,0,0,0,.05.05l.05.05a.15.15,0,0,1,.1.05,1,1,0,0,0,.25.2,0,0,0,0,0,.05.05v.05l.05.05v.05a0,0,0,0,1,.05.05l.05.05v.05l.05.05,7.6,14.89,7.6-14.89v-.05l.05-.05v-.05h.05V52.7l.05-.05a0,0,0,0,1,.05-.05v-.05a1.44,1.44,0,0,1,.3-.25,0,0,0,0,1,.05-.05h.05a0,0,0,0,1,.05-.05v-.05h.1a0,0,0,0,1,.05-.05.17.17,0,0,1,.13-.05.4.4,0,0,0,.18-.05h.1a0,0,0,0,1,.05-.05h.65V52h.2V52h.1l.05.05h.05l.05.05h.1v.05h.05v.05h.05l.05.05a0,0,0,0,1,.05.05h.05l.05.05a.56.56,0,0,1,.2.25,0,0,0,0,1,.05.05l.05.05v.05l.05.05.05.05a.82.82,0,0,1,.1.35v.05h.05V87.6Z"/><path class="cls-9" d="M141.24,86.32a1.75,1.75,0,0,1,.53,1.28,1.69,1.69,0,0,1-.53,1.23,1.74,1.74,0,0,1-1.28.53H126.63a1.74,1.74,0,0,1-1.28-.53,1.69,1.69,0,0,1-.53-1.23V53.7a1.69,1.69,0,0,1,.53-1.23,1.75,1.75,0,0,1,1.28-.53H140a1.75,1.75,0,0,1,1.28.53,1.69,1.69,0,0,1,.53,1.23A1.8,1.8,0,0,1,140,55.51H128.39V71h8.7a1.67,1.67,0,0,1,1.26.53,1.8,1.8,0,0,1,.5,1.28,1.73,1.73,0,0,1-.5,1.23,1.67,1.67,0,0,1-1.26.53h-8.7V85.79H140A1.75,1.75,0,0,1,141.24,86.32Z"/><path class="cls-9" d="M177.73,89.36h-6.64a1.66,1.66,0,0,1-1.26-.53,1.73,1.73,0,0,1-.5-1.23V53.7a1.73,1.73,0,0,1,.5-1.23,1.66,1.66,0,0,1,1.26-.53h6.64a8.66,8.66,0,0,1,3,.53,7.41,7.41,0,0,1,2.62,1.63,8.41,8.41,0,0,1,1.89,2.82,10.21,10.21,0,0,1,.73,4V80.31a10.16,10.16,0,0,1-.73,4,8.74,8.74,0,0,1-1.89,2.82,7.24,7.24,0,0,1-2.62,1.66A8.65,8.65,0,0,1,177.73,89.36Zm-4.88-3.57h4.88a4.43,4.43,0,0,0,3.12-1.16,5.64,5.64,0,0,0,1.56-4.33V60.94a5.85,5.85,0,0,0-1.56-4.33,4.55,4.55,0,0,0-3.12-1.16h-4.88Z"/><path class="cls-9" d="M206.78,86.32a1.75,1.75,0,0,1,.53,1.28,1.69,1.69,0,0,1-.53,1.23,1.74,1.74,0,0,1-1.28.53H192.17a1.74,1.74,0,0,1-1.28-.53,1.69,1.69,0,0,1-.53-1.23V53.7a1.69,1.69,0,0,1,.53-1.23,1.75,1.75,0,0,1,1.28-.53H205.5a1.75,1.75,0,0,1,1.28.53,1.69,1.69,0,0,1,.53,1.23,1.8,1.8,0,0,1-1.81,1.81H193.93V71h8.7a1.67,1.67,0,0,1,1.26.53,1.8,1.8,0,0,1,.5,1.28,1.73,1.73,0,0,1-.5,1.23,1.67,1.67,0,0,1-1.26.53h-8.7V85.79H205.5A1.75,1.75,0,0,1,206.78,86.32Z"/><path class="cls-9" d="M226.47,52a1.79,1.79,0,0,1,1.41,2.11l-6.79,33.55a1.83,1.83,0,0,1-.65,1,1.73,1.73,0,0,1-1.11.4h-.25a1.73,1.73,0,0,1-1.11-.4,1.59,1.59,0,0,1-.6-1L210.58,54.1a1.72,1.72,0,0,1,.25-1.33,1.69,1.69,0,0,1,1.11-.78,1.67,1.67,0,0,1,1.33.28A1.79,1.79,0,0,1,214,53.4l5.18,25.5,5.18-25.5a1.81,1.81,0,0,1,.75-1.13A1.6,1.6,0,0,1,226.47,52Z"/><path class="cls-9" d="M240.05,89.56a8.33,8.33,0,0,1-8.75-8.9,1.67,1.67,0,0,1,.53-1.26,1.8,1.8,0,0,1,1.28-.5,1.65,1.65,0,0,1,1.21.5,1.71,1.71,0,0,1,.5,1.26,6.62,6.62,0,0,0,.48,2.72A4.16,4.16,0,0,0,236.53,85a4.47,4.47,0,0,0,1.69.81,7.75,7.75,0,0,0,1.84.23,11.5,11.5,0,0,0,1.43-.13,4.71,4.71,0,0,0,1.84-.68,5,5,0,0,0,1.58-1.61,5.48,5.48,0,0,0,.68-3,9.29,9.29,0,0,0-.53-3.27,8.54,8.54,0,0,0-1.46-2.52,13.81,13.81,0,0,0-2.14-2q-1.21-.93-2.56-1.89-1.21-.85-2.44-1.81A15.63,15.63,0,0,1,234.22,67a9.76,9.76,0,0,1-2.41-6.39c0-.13,0-.4,0-.81a10,10,0,0,1,.18-1.41,8.33,8.33,0,0,1,2-4.28,8,8,0,0,1,6.09-2.36,7.61,7.61,0,0,1,6,2.36,6.88,6.88,0,0,1,1.21,2,8,8,0,0,1,.55,2.41,10.58,10.58,0,0,1,.08,1.53,3,3,0,0,1-.08.73A8,8,0,0,1,247.5,62a3.06,3.06,0,0,1-.6.7,1.29,1.29,0,0,1-1.06.2,1.4,1.4,0,0,1-1-.53,2.43,2.43,0,0,1-.4-.88,2.67,2.67,0,0,1-.05-1.16,4.62,4.62,0,0,0,0-1.36,12,12,0,0,0-.3-1.23,3.51,3.51,0,0,0-.65-1.23,4.1,4.1,0,0,0-3.32-1.21,4.39,4.39,0,0,0-3.47,1.31,3.65,3.65,0,0,0-.83,1.26,6.81,6.81,0,0,0-.38,1.26,4.73,4.73,0,0,0-.1,1.36v.15a6,6,0,0,0,.4,2.26,6.64,6.64,0,0,0,1.13,1.86,13,13,0,0,0,1.76,1.69q1,.83,2.34,1.79t2.84,2a16.84,16.84,0,0,1,2.59,2.54,12.08,12.08,0,0,1,2.72,7.9,9.45,9.45,0,0,1-.78,4,7.88,7.88,0,0,1-2.06,2.77A8.55,8.55,0,0,1,243.35,89,10.65,10.65,0,0,1,240.05,89.56Z"/><path class="cls-9" d="M283.26,90a7.62,7.62,0,0,1-6-2.41,8.86,8.86,0,0,1-2.11-4.78,9.68,9.68,0,0,1-.15-1.56,5.39,5.39,0,0,1,.05-.91V60.64a10.2,10.2,0,0,1,.73-4,8.66,8.66,0,0,1,1.89-2.84,7.23,7.23,0,0,1,2.62-1.66,8.66,8.66,0,0,1,3-.53,12,12,0,0,1,2.46.35,7.13,7.13,0,0,1,3.07,1.66,10.33,10.33,0,0,1,1,1.06,6.65,6.65,0,0,1,.91,1.48,11.56,11.56,0,0,1,.68,2,10.45,10.45,0,0,1,.28,2.52V81.49a8.69,8.69,0,0,1-.15,1.48,9,9,0,0,1-2.16,4.58A8,8,0,0,1,283.26,90Zm-4.68-9.46v.55a8.6,8.6,0,0,0,.1,1.21,8.22,8.22,0,0,0,.38,1.51,3.64,3.64,0,0,0,.88,1.41,4.28,4.28,0,0,0,3.32,1.21,4.59,4.59,0,0,0,3.47-1.26,4.52,4.52,0,0,0,.85-1.33,7.18,7.18,0,0,0,.43-1.38,6.08,6.08,0,0,0,.13-1.11V60.64a6.19,6.19,0,0,0-.6-3A4.74,4.74,0,0,0,286.13,56a4.22,4.22,0,0,0-1.63-.7,7.65,7.65,0,0,0-1.23-.15,4.43,4.43,0,0,0-3.12,1.16,5.64,5.64,0,0,0-1.56,4.33V80.51Z"/><path class="cls-9" d="M311.7,52.47a1.69,1.69,0,0,1,.53,1.23,1.8,1.8,0,0,1-1.81,1.81H300.11V71h7.44a1.66,1.66,0,0,1,1.26.53,1.79,1.79,0,0,1,.5,1.28,1.73,1.73,0,0,1-.5,1.23,1.66,1.66,0,0,1-1.26.53h-7.44V87.6a1.81,1.81,0,0,1-1.76,1.76,1.74,1.74,0,0,1-1.28-.53,1.69,1.69,0,0,1-.53-1.23V53.7a1.69,1.69,0,0,1,.53-1.23,1.75,1.75,0,0,1,1.28-.53h12.07A1.75,1.75,0,0,1,311.7,52.47Z"/><path class="cls-9" d="M345.88,89.46A7.56,7.56,0,0,1,339.95,87,6.28,6.28,0,0,1,338.59,85a12.36,12.36,0,0,1-.75-2.67,9.68,9.68,0,0,1-.15-1.56V60.49a10.2,10.2,0,0,1,.73-4,8.37,8.37,0,0,1,1.89-2.82A7.39,7.39,0,0,1,342.91,52a8.52,8.52,0,0,1,2.92-.53,12.3,12.3,0,0,1,2.49.35,6.78,6.78,0,0,1,3,1.66,8.66,8.66,0,0,1,2.87,7,1.81,1.81,0,1,1-3.62,0,6.29,6.29,0,0,0-.58-2.94,4.29,4.29,0,0,0-1.38-1.61,4.45,4.45,0,0,0-1.58-.68,6.89,6.89,0,0,0-1.23-.15,4.49,4.49,0,0,0-1.63.3,3.79,3.79,0,0,0-1.33.85,5.41,5.41,0,0,0-1.56,4.23V80.64a8,8,0,0,0,.1,1.16,7.75,7.75,0,0,0,.38,1.46,4,4,0,0,0,.83,1.38,4.52,4.52,0,0,0,7.47-1.36,7.76,7.76,0,0,0,.4-1.36,8.4,8.4,0,0,0,.13-1.56,1.7,1.7,0,0,1,.45-1.31,1.8,1.8,0,0,1,1.26-.6,1.85,1.85,0,0,1,1.91,1.66v.75a8.81,8.81,0,0,1-.2,1.66A8.16,8.16,0,0,1,351.92,87,7.88,7.88,0,0,1,345.88,89.46Z"/><path class="cls-9" d="M366.85,90a7.62,7.62,0,0,1-6-2.41,8.86,8.86,0,0,1-2.11-4.78,9.68,9.68,0,0,1-.15-1.56,5.39,5.39,0,0,1,.05-.91V60.64a10.2,10.2,0,0,1,.73-4,8.66,8.66,0,0,1,1.89-2.84,7.23,7.23,0,0,1,2.62-1.66,8.65,8.65,0,0,1,3-.53,12,12,0,0,1,2.46.35,7.14,7.14,0,0,1,3.07,1.66,10.22,10.22,0,0,1,1,1.06,6.61,6.61,0,0,1,.91,1.48,11.48,11.48,0,0,1,.68,2,10.35,10.35,0,0,1,.28,2.52V81.49A8.79,8.79,0,0,1,375.1,83a9,9,0,0,1-2.16,4.58A7.94,7.94,0,0,1,366.85,90Zm-4.68-9.46v.55a8.6,8.6,0,0,0,.1,1.21,8.22,8.22,0,0,0,.38,1.51,3.63,3.63,0,0,0,.88,1.41,4.28,4.28,0,0,0,3.32,1.21,4.59,4.59,0,0,0,3.47-1.26,4.51,4.51,0,0,0,.86-1.33,7.18,7.18,0,0,0,.43-1.38,6,6,0,0,0,.13-1.11V60.64a6.19,6.19,0,0,0-.6-3A4.73,4.73,0,0,0,369.72,56a4.23,4.23,0,0,0-1.63-.7,7.65,7.65,0,0,0-1.23-.15,4.43,4.43,0,0,0-3.12,1.16,5.64,5.64,0,0,0-1.56,4.33V80.51Z"/><path class="cls-9" d="M393.51,89.36H380.13a1.81,1.81,0,0,1-1.76-1.76V53.7a1.81,1.81,0,0,1,1.76-1.76,1.66,1.66,0,0,1,1.26.53,1.73,1.73,0,0,1,.5,1.23V85.79h11.62a1.69,1.69,0,0,1,1.23.53,1.74,1.74,0,0,1,.53,1.28,1.81,1.81,0,0,1-1.76,1.76Z"/><path class="cls-9" d="M405.63,90a7.62,7.62,0,0,1-6-2.41,8.86,8.86,0,0,1-2.11-4.78,9.68,9.68,0,0,1-.15-1.56,5.46,5.46,0,0,1,0-.91V60.64a10.21,10.21,0,0,1,.73-4,8.67,8.67,0,0,1,1.89-2.84,7.22,7.22,0,0,1,2.62-1.66,8.66,8.66,0,0,1,3-.53,12,12,0,0,1,2.46.35,7.14,7.14,0,0,1,3.07,1.66,10.33,10.33,0,0,1,1,1.06,6.61,6.61,0,0,1,.91,1.48,11.56,11.56,0,0,1,.68,2,10.4,10.4,0,0,1,.28,2.52V81.49a8.7,8.7,0,0,1-.15,1.48,9,9,0,0,1-2.16,4.58A7.94,7.94,0,0,1,405.63,90ZM401,80.51v.55a8.67,8.67,0,0,0,.1,1.21,8.18,8.18,0,0,0,.38,1.51,3.64,3.64,0,0,0,.88,1.41,4.28,4.28,0,0,0,3.32,1.21,4.59,4.59,0,0,0,3.47-1.26,4.53,4.53,0,0,0,.86-1.33,7.17,7.17,0,0,0,.43-1.38,6,6,0,0,0,.13-1.11V60.64a6.19,6.19,0,0,0-.6-3A4.74,4.74,0,0,0,408.5,56a4.23,4.23,0,0,0-1.63-.7,7.66,7.66,0,0,0-1.23-.15,4.43,4.43,0,0,0-3.12,1.16A5.64,5.64,0,0,0,401,60.64V80.51Z"/><path class="cls-9" d="M436.57,86.9a1.81,1.81,0,0,1,.05,1.38,1.51,1.51,0,0,1-1,.93,1.27,1.27,0,0,1-.38.13l-.33,0a1.9,1.9,0,0,1-1-.25,1.72,1.72,0,0,1-.68-.8l-6-13.83H422V87.6a1.66,1.66,0,0,1-.53,1.26,1.79,1.79,0,0,1-1.28.5,1.73,1.73,0,0,1-1.23-.5,1.66,1.66,0,0,1-.53-1.26V53.75a1.74,1.74,0,0,1,.53-1.28,1.69,1.69,0,0,1,1.23-.53h7.49a5.53,5.53,0,0,1,3.09,1,9.43,9.43,0,0,1,2.64,2.74A13.81,13.81,0,0,1,435,59.23a14.6,14.6,0,0,1,.55,4,14.77,14.77,0,0,1-.55,4,13.79,13.79,0,0,1-1.56,3.57,8.57,8.57,0,0,1-2.72,2.77ZM422,71h5.68a2.32,2.32,0,0,0,1.38-.55,5.66,5.66,0,0,0,1.33-1.51,9.73,9.73,0,0,0,1.18-2.64,11,11,0,0,0,.43-3,10.79,10.79,0,0,0-.43-3,9.75,9.75,0,0,0-1.18-2.64A5.1,5.1,0,0,0,429.1,56a2.39,2.39,0,0,0-1.38-.53H422Z"/><path class="cls-9" d="M479.6,86.32a1.75,1.75,0,0,1,.53,1.28,1.69,1.69,0,0,1-.53,1.23,1.75,1.75,0,0,1-1.28.53H465a1.74,1.74,0,0,1-1.28-.53,1.69,1.69,0,0,1-.53-1.23V53.7a1.69,1.69,0,0,1,.53-1.23,1.74,1.74,0,0,1,1.28-.53h13.33a1.75,1.75,0,0,1,1.28.53,1.69,1.69,0,0,1,.53,1.23,1.8,1.8,0,0,1-1.81,1.81H466.75V71h8.7a1.66,1.66,0,0,1,1.26.53,1.79,1.79,0,0,1,.5,1.28,1.73,1.73,0,0,1-.5,1.23,1.66,1.66,0,0,1-1.26.53h-8.7V85.79h11.57A1.75,1.75,0,0,1,479.6,86.32Z"/><path class="cls-9" d="M501,88.33a1.67,1.67,0,0,1-1,.93,1.41,1.41,0,0,1-.6.1,1.89,1.89,0,0,1-1-.28,1.55,1.55,0,0,1-.65-.83L492.6,75.13l-5,13.13a1.56,1.56,0,0,1-.65.83,1.89,1.89,0,0,1-1,.28,1.4,1.4,0,0,1-.6-.1,1.67,1.67,0,0,1-1-.93,1.8,1.8,0,0,1-.05-1.38l5.33-13.83,1.16-2.92-6-15.49a1.87,1.87,0,0,1,0-1.38,1.59,1.59,0,0,1,1-.93,1.88,1.88,0,0,1,1.38,0,1.59,1.59,0,0,1,.93,1l4.53,11.82,4.58-11.82a1.59,1.59,0,0,1,.91-1,1.81,1.81,0,0,1,1.36,0,1.68,1.68,0,0,1,1,.93,1.8,1.8,0,0,1,0,1.38l-6,15.49L501,86.95A1.8,1.8,0,0,1,501,88.33Z"/><path class="cls-9" d="M520.77,55.61a13.81,13.81,0,0,1,1.56,3.57,14.6,14.6,0,0,1,.55,4,14.77,14.77,0,0,1-.55,4,13.79,13.79,0,0,1-1.56,3.57,9.1,9.1,0,0,1-2.64,2.72,5.63,5.63,0,0,1-3.09,1h-5.68V87.6a1.72,1.72,0,0,1-1.76,1.76,1.73,1.73,0,0,1-1.23-.5,1.67,1.67,0,0,1-.53-1.26V53.75a1.67,1.67,0,0,1,.91-1.56,1.34,1.34,0,0,1,.91-.3H515a5.53,5.53,0,0,1,3.09,1A9.43,9.43,0,0,1,520.77,55.61Zm-3,13.23a9.21,9.21,0,0,0,1.16-2.64,11.55,11.55,0,0,0,.4-3,11.38,11.38,0,0,0-.4-3,9.23,9.23,0,0,0-1.16-2.64A5.11,5.11,0,0,0,516.42,56a2.4,2.4,0,0,0-1.38-.53h-5.68V70.9H515a2.4,2.4,0,0,0,1.38-.53A5.11,5.11,0,0,0,517.75,68.84Z"/><path class="cls-9" d="M535.1,90a7.62,7.62,0,0,1-6-2.41A8.86,8.86,0,0,1,527,82.77a9.68,9.68,0,0,1-.15-1.56,5.46,5.46,0,0,1,0-.91V60.64a10.21,10.21,0,0,1,.73-4,8.67,8.67,0,0,1,1.89-2.84,7.22,7.22,0,0,1,2.62-1.66,8.66,8.66,0,0,1,3-.53,12,12,0,0,1,2.46.35,7.14,7.14,0,0,1,3.07,1.66,10.33,10.33,0,0,1,1,1.06,6.61,6.61,0,0,1,.91,1.48,11.56,11.56,0,0,1,.68,2,10.4,10.4,0,0,1,.28,2.52V81.49a8.7,8.7,0,0,1-.15,1.48,9,9,0,0,1-2.16,4.58A7.94,7.94,0,0,1,535.1,90Zm-4.68-9.46v.55a8.67,8.67,0,0,0,.1,1.21,8.18,8.18,0,0,0,.38,1.51,3.64,3.64,0,0,0,.88,1.41,4.28,4.28,0,0,0,3.32,1.21,4.59,4.59,0,0,0,3.47-1.26,4.53,4.53,0,0,0,.86-1.33,7.17,7.17,0,0,0,.43-1.38,6,6,0,0,0,.13-1.11V60.64a6.19,6.19,0,0,0-.6-3A4.74,4.74,0,0,0,538,56a4.23,4.23,0,0,0-1.63-.7,7.66,7.66,0,0,0-1.23-.15A4.43,4.43,0,0,0,532,56.32a5.64,5.64,0,0,0-1.56,4.33V80.51Z"/><g class="cls-10"><path class="cls-9" d="M78.94,30.47H75.22a.59.59,0,0,1-.45-.19.62.62,0,0,1-.18-.44,6.64,6.64,0,0,1,1-3.31,12.47,12.47,0,0,1,.92-1.37q.5-.66,1-1.28l.84-1.05a9.08,9.08,0,0,0,.71-1,6.33,6.33,0,0,0,.49-1,3.09,3.09,0,0,0,.19-1.06.05.05,0,0,1,0,0v-.18a2,2,0,0,0,0-.39,2.38,2.38,0,0,0-.15-.48,1.65,1.65,0,0,0-.31-.47,1.69,1.69,0,0,0-1.33-.47,1.59,1.59,0,0,0-1.26.45,1.12,1.12,0,0,0-.25.46,4.73,4.73,0,0,0-.11.48,1.9,1.9,0,0,0,0,.52,1,1,0,0,1,0,.41.68.68,0,0,1-.15.3.49.49,0,0,1-.35.15.46.46,0,0,1-.38-.07,1.08,1.08,0,0,1-.22-.25,1.16,1.16,0,0,1-.13-.36,1.1,1.1,0,0,1,0-.27,4,4,0,0,1,0-.57,2.62,2.62,0,0,1,2.86-2.5,3,3,0,0,1,2.26.88,2.41,2.41,0,0,1,.48.73,4.57,4.57,0,0,1,.24.74,2.79,2.79,0,0,1,.08.61v.33a5.34,5.34,0,0,1-.81,2.66,13,13,0,0,1-.8,1.17q-.44.58-.91,1.13t-.85,1.06a13.18,13.18,0,0,0-.77,1.1,8.06,8.06,0,0,0-.6,1.15,4.85,4.85,0,0,0-.34,1.24h3.05q.66,0,.81-.22a.85.85,0,0,0,.13-.43c0-.19,0-.38,0-.56a.61.61,0,0,1,.63-.63.62.62,0,0,1,.44.18.59.59,0,0,1,.19.45,5.77,5.77,0,0,1-.07,1,1.77,1.77,0,0,1-.32.76,1.48,1.48,0,0,1-.4.4,2,2,0,0,1-.48.22,2.12,2.12,0,0,1-.49.1Z"/><path class="cls-9" d="M88.26,27.24s0,.16,0,.34a3.64,3.64,0,0,1-.09.64,4.3,4.3,0,0,1-.26.78,2.6,2.6,0,0,1-.5.75,2.89,2.89,0,0,1-2.21.88A2.77,2.77,0,0,1,83,29.76a2.44,2.44,0,0,1-.45-.65.1.1,0,0,0,0-.07,3.82,3.82,0,0,1-.29-1,3.77,3.77,0,0,1-.05-.57V19.88a3.76,3.76,0,0,1,.26-1.46,2.93,2.93,0,0,1,.69-1,2.86,2.86,0,0,1,1-.6,3,3,0,0,1,1.07-.2,4.57,4.57,0,0,1,.92.13,2.59,2.59,0,0,1,1.13.61l.22.22a2.25,2.25,0,0,1,.22.29l0,0,0,0a3.29,3.29,0,0,1,.4.84,3.8,3.8,0,0,1,.16,1.18Zm-4.24-9a2.09,2.09,0,0,0-.57,1.6v6.31l3-7.85a1.49,1.49,0,0,0-.75-.41,3.52,3.52,0,0,0-.53-.07A1.67,1.67,0,0,0,84,18.28Zm2.46,10.63a1.42,1.42,0,0,0,.32-.49A2.89,2.89,0,0,0,87,27.9a2.34,2.34,0,0,0,0-.41V20.41l-3.2,8.34.07.08.07.08a1.57,1.57,0,0,0,1.24.47A1.75,1.75,0,0,0,86.48,28.91Z"/><path class="cls-9" d="M95.44,29.2a.61.61,0,0,1,.18.45.62.62,0,0,1-.18.44.59.59,0,0,1-.45.19h-4.9a.65.65,0,0,1-.63-.63.59.59,0,0,1,.19-.45.62.62,0,0,1,.44-.18h1.83V18.71L90.61,20a.64.64,0,0,1-.9-.9l2.41-2.39a.6.6,0,0,1,.68-.14.61.61,0,0,1,.38.59V29H95A.61.61,0,0,1,95.44,29.2Z"/><path class="cls-9" d="M99.16,30.44l-.18,0a.68.68,0,0,1-.38-.31.6.6,0,0,1-.05-.48l3.32-11.51H97.11a.59.59,0,0,1-.45-.19.62.62,0,0,1-.18-.44.61.61,0,0,1,.63-.63h5.6a.63.63,0,0,1,.5.23.66.66,0,0,1,.11.56L99.76,30a.58.58,0,0,1-.22.32A.61.61,0,0,1,99.16,30.44Z"/></g><path class="cls-11" d="M136.72,170a6,6,0,0,1-4.72-1.88,7.1,7.1,0,0,1-1.72-3.84,7.53,7.53,0,0,1-.1-1.36c0-.37,0-.59,0-.64a4.21,4.21,0,0,1,.24-.88,1.89,1.89,0,0,1,.46-.58,1,1,0,0,1,.86-.18,1.29,1.29,0,0,1,.82.38,1.52,1.52,0,0,1,.34.62,2.36,2.36,0,0,1,.08.88,5.82,5.82,0,0,0,.08,1.36,6.48,6.48,0,0,0,.3,1.2,2.88,2.88,0,0,0,.7,1.12,3.33,3.33,0,0,0,2.64,1,3.73,3.73,0,0,0,2.76-1,3.59,3.59,0,0,0,.68-1.06,5.74,5.74,0,0,0,.34-1.1,4.87,4.87,0,0,0,.1-.9V141.25a1.44,1.44,0,0,1,1.4-1.4,1.39,1.39,0,0,1,1,.42,1.34,1.34,0,0,1,.42,1l0,21.32a3.09,3.09,0,0,1,0,.68,9,9,0,0,1-.14,1.2,8.93,8.93,0,0,1-.62,2,5.36,5.36,0,0,1-1.1,1.62A6.39,6.39,0,0,1,136.72,170Z"/><path class="cls-11" d="M156.24,170a6,6,0,0,1-4.72-1.92,7,7,0,0,1-1.68-3.8,7.68,7.68,0,0,1-.12-1.24v-21.8a1.44,1.44,0,0,1,1.4-1.4,1.39,1.39,0,0,1,1,.42,1.34,1.34,0,0,1,.42,1v21.24s0,.17,0,.44a4.32,4.32,0,0,0,.08,1,8,8,0,0,0,.32,1.2,3.14,3.14,0,0,0,.66,1.12,3.4,3.4,0,0,0,2.64,1,3.7,3.7,0,0,0,2.8-1,3.58,3.58,0,0,0,.68-1.06,5.82,5.82,0,0,0,.4-2.38V141.29a1.43,1.43,0,0,1,1.44-1.44,1.34,1.34,0,0,1,1,.42,1.39,1.39,0,0,1,.42,1v21.32c0,.11,0,.33,0,.66a9,9,0,0,1-.14,1.18,6.75,6.75,0,0,1-1.72,3.64A6.24,6.24,0,0,1,156.24,170Z"/><path class="cls-11" d="M183.4,169.05l0,0a0,0,0,0,0,0,0h0l0,0a0,0,0,0,1,0,0l0,0h0a0,0,0,0,1,0,0h0v0h0l0,0a.72.72,0,0,1-.32.08.69.69,0,0,1-.28,0h-.2a.16.16,0,0,1-.12,0H182l-.1,0-.1,0a.12.12,0,0,0-.08,0,.11.11,0,0,1-.08,0l0,0,0,0h0a0,0,0,0,0,0,0l0,0,0,0,0,0,0,0a.11.11,0,0,1,0-.08s0,0,0,0l0,0a.16.16,0,0,1,0-.12s0,0,0-.06,0,0,0-.06l-9-20.64v20.12a1.38,1.38,0,0,1-.4,1,1.32,1.32,0,0,1-1,.42,1.44,1.44,0,0,1-1.4-1.4v-27.2h0v-.16l0,0v-.08a0,0,0,0,0,0,0s0,0,0,0,0,0,0,0v0h0v0a0,0,0,0,1,0,0v0l0,0,0,0a0,0,0,0,1,0,0s0,0,0,0,0,0,0,0a0,0,0,0,0,0,0h0l0,0,0,0a0,0,0,0,0,0,0h0l0,0h0l0,0h0a.23.23,0,0,1,.16-.08.36.36,0,0,0,.16,0h0a.83.83,0,0,1,.32,0h.12a0,0,0,0,1,0,0h.16a.12.12,0,0,0,.08,0l0,0h.08l0,0a.12.12,0,0,1,.08,0h0s0,0,0,0l0,0h0v0h0a0,0,0,0,0,0,0,0,0,0,0,0,0,0,.12.12,0,0,1,0,.08,0,0,0,0,1,0,0h0v0h0v0a0,0,0,0,0,0,0v0l0,0s0,0,0,0,0,0,0,0l0,.08,9,20.68V141.13a1.37,1.37,0,0,1,.4-1,1.32,1.32,0,0,1,1-.42,1.44,1.44,0,0,1,1.4,1.4v27.2l0,0v.12l0,0v.08a0,0,0,0,0,0,0v0l0,0v0a0,0,0,0,0,0,0v0h0v0l0,0a0,0,0,0,1,0,0s0,0,0,0S183.4,169,183.4,169.05Z"/><path class="cls-11" d="M202.62,167.19a1.39,1.39,0,0,1,.42,1,1.34,1.34,0,0,1-.42,1,1.39,1.39,0,0,1-1,.42H191a1.39,1.39,0,0,1-1-.42,1.34,1.34,0,0,1-.42-1v-27a1.34,1.34,0,0,1,.42-1,1.39,1.39,0,0,1,1-.42h10.6a1.39,1.39,0,0,1,1,.42,1.34,1.34,0,0,1,.42,1,1.43,1.43,0,0,1-1.44,1.44h-9.2V155h6.92a1.32,1.32,0,0,1,1,.42,1.42,1.42,0,0,1,.4,1,1.38,1.38,0,0,1-.4,1,1.33,1.33,0,0,1-1,.42H192.4v9h9.2A1.39,1.39,0,0,1,202.62,167.19Z"/><path class="cls-11" d="M236,170.29h-8.28a1.32,1.32,0,0,1-1-.42,1.37,1.37,0,0,1-.4-1,14.78,14.78,0,0,1,2.12-7.36,27.9,27.9,0,0,1,2-3.06q1.12-1.46,2.28-2.86l1.86-2.34a20.29,20.29,0,0,0,1.58-2.3,14,14,0,0,0,1.1-2.32,6.89,6.89,0,0,0,.42-2.36.12.12,0,0,1,0-.08v-.4a4.55,4.55,0,0,0-.1-.86,5.4,5.4,0,0,0-.34-1.06,3.66,3.66,0,0,0-.68-1,3.77,3.77,0,0,0-3-1,3.55,3.55,0,0,0-2.8,1,2.47,2.47,0,0,0-.56,1,10.55,10.55,0,0,0-.24,1.06,4.19,4.19,0,0,0,0,1.16,2.13,2.13,0,0,1,0,.92,1.5,1.5,0,0,1-.34.66,1.09,1.09,0,0,1-.78.34,1,1,0,0,1-.84-.16,2.41,2.41,0,0,1-.48-.56,2.57,2.57,0,0,1-.28-.8,2.45,2.45,0,0,1-.06-.6,9,9,0,0,1,.06-1.28,5.83,5.83,0,0,1,6.36-5.56,6.58,6.58,0,0,1,5,2,5.39,5.39,0,0,1,1.08,1.62,10.22,10.22,0,0,1,.54,1.64,6.15,6.15,0,0,1,.18,1.36v.74a11.9,11.9,0,0,1-1.8,5.92,29.16,29.16,0,0,1-1.78,2.6q-1,1.28-2,2.52t-1.9,2.36a28.85,28.85,0,0,0-1.72,2.44,18,18,0,0,0-1.34,2.56,10.83,10.83,0,0,0-.76,2.76H236q1.48,0,1.8-.48a1.9,1.9,0,0,0,.3-1c0-.43.06-.84.06-1.24a1.37,1.37,0,0,1,1.4-1.4,1.38,1.38,0,0,1,1,.4,1.32,1.32,0,0,1,.42,1,12.92,12.92,0,0,1-.16,2.14,4,4,0,0,1-.72,1.7,3.31,3.31,0,0,1-.9.88,4.57,4.57,0,0,1-1.06.5,4.72,4.72,0,0,1-1.1.22Q236.44,170.29,236,170.29Z"/><path class="cls-11" d="M255.52,140a1.38,1.38,0,0,1,1,.4,1.32,1.32,0,0,1,.42,1v27.72a1.4,1.4,0,0,1-2.8,0V156.61H243.4a1.41,1.41,0,0,1-1.32-1.76L245.72,141a1.42,1.42,0,0,1,.66-.86,1.29,1.29,0,0,1,1.06-.14,1.45,1.45,0,0,1,.86.64,1.24,1.24,0,0,1,.14,1l-3.2,12.12h8.88V141.37a1.32,1.32,0,0,1,.42-1A1.38,1.38,0,0,1,255.52,140Z"/><path class="cls-11" d="M259.92,172.89a1.45,1.45,0,0,1-.66-.84,1.23,1.23,0,0,1,.1-1l1.88-3.64a1.41,1.41,0,0,1,.84-.7,1.39,1.39,0,0,1,1.76.94,1.29,1.29,0,0,1-.12,1l-1.92,3.64a1.42,1.42,0,0,1-.8.7A1.35,1.35,0,0,1,259.92,172.89Z"/><path class="cls-11" d="M295.84,170.29h-8.28a1.32,1.32,0,0,1-1-.42,1.37,1.37,0,0,1-.4-1,14.78,14.78,0,0,1,2.12-7.36,27.9,27.9,0,0,1,2-3.06q1.12-1.46,2.28-2.86l1.86-2.34A20.29,20.29,0,0,0,296,151a14,14,0,0,0,1.1-2.32,6.89,6.89,0,0,0,.42-2.36.12.12,0,0,1,0-.08v-.4a4.55,4.55,0,0,0-.1-.86,5.4,5.4,0,0,0-.34-1.06,3.66,3.66,0,0,0-.68-1,3.77,3.77,0,0,0-3-1,3.55,3.55,0,0,0-2.8,1,2.47,2.47,0,0,0-.56,1,10.55,10.55,0,0,0-.24,1.06,4.19,4.19,0,0,0,0,1.16,2.13,2.13,0,0,1,0,.92,1.5,1.5,0,0,1-.34.66,1.09,1.09,0,0,1-.78.34,1,1,0,0,1-.84-.16,2.41,2.41,0,0,1-.48-.56,2.57,2.57,0,0,1-.28-.8,2.45,2.45,0,0,1-.06-.6,9,9,0,0,1,.06-1.28,5.83,5.83,0,0,1,6.36-5.56,6.58,6.58,0,0,1,5,2,5.39,5.39,0,0,1,1.08,1.62,10.22,10.22,0,0,1,.54,1.64,6.15,6.15,0,0,1,.18,1.36v.74a11.9,11.9,0,0,1-1.8,5.92,29.16,29.16,0,0,1-1.78,2.6q-1,1.28-2,2.52t-1.9,2.36a28.85,28.85,0,0,0-1.72,2.44,18,18,0,0,0-1.34,2.56,10.83,10.83,0,0,0-.76,2.76h6.8q1.48,0,1.8-.48a1.9,1.9,0,0,0,.3-1c0-.43.06-.84.06-1.24a1.37,1.37,0,0,1,1.4-1.4,1.38,1.38,0,0,1,1,.4,1.32,1.32,0,0,1,.42,1,12.92,12.92,0,0,1-.16,2.14,4,4,0,0,1-.72,1.7,3.31,3.31,0,0,1-.9.88,4.57,4.57,0,0,1-1.06.5,4.72,4.72,0,0,1-1.1.22Q296.32,170.29,295.84,170.29Z"/><path class="cls-11" d="M316.6,163.09c0,.11,0,.36,0,.76a8,8,0,0,1-.2,1.42,9.47,9.47,0,0,1-.58,1.74,5.79,5.79,0,0,1-1.12,1.68,6.43,6.43,0,0,1-4.92,2,6.18,6.18,0,0,1-4.84-2,5.48,5.48,0,0,1-1-1.44.23.23,0,0,0-.08-.16,10.15,10.15,0,0,1-.76-3.56V146.69a8.38,8.38,0,0,1,.58-3.26,6.54,6.54,0,0,1,1.54-2.28,6.34,6.34,0,0,1,2.14-1.34,6.75,6.75,0,0,1,2.38-.44,10.12,10.12,0,0,1,2,.28,5.75,5.75,0,0,1,2.52,1.36,5.67,5.67,0,0,1,.5.48,5.18,5.18,0,0,1,.5.64s0,0,0,.06,0,0,0,.06a7.32,7.32,0,0,1,.88,1.86,8.47,8.47,0,0,1,.36,2.62Zm-9.44-20a4.65,4.65,0,0,0-1.28,3.56v14l6.68-17.48a3.32,3.32,0,0,0-1.66-.92,7.85,7.85,0,0,0-1.18-.16A3.73,3.73,0,0,0,307.16,143.13Zm5.48,23.68a3.14,3.14,0,0,0,.72-1.1,6.53,6.53,0,0,0,.34-1.16,5.24,5.24,0,0,0,.1-.92V147.89l-7.12,18.56.16.18.16.18a3.49,3.49,0,0,0,2.76,1A3.89,3.89,0,0,0,312.64,166.81Z"/><path class="cls-11" d="M332.6,167.45a1.36,1.36,0,0,1,.4,1,1.38,1.38,0,0,1-.4,1,1.32,1.32,0,0,1-1,.42H320.68a1.44,1.44,0,0,1-1.4-1.4,1.32,1.32,0,0,1,.42-1,1.38,1.38,0,0,1,1-.4h4.08v-23l-2.92,3a1.41,1.41,0,0,1-2-2l5.36-5.32a1.34,1.34,0,0,1,1.52-.32,1.36,1.36,0,0,1,.84,1.32v26.32h4A1.36,1.36,0,0,1,332.6,167.45Z"/><path class="cls-11" d="M340.88,170.21a1.42,1.42,0,0,1-.4,0,1.51,1.51,0,0,1-.84-.7,1.33,1.33,0,0,1-.12-1.06l7.4-25.64h-10.6a1.32,1.32,0,0,1-1-.42,1.38,1.38,0,0,1-.4-1,1.37,1.37,0,0,1,1.4-1.4H348.8a1.4,1.4,0,0,1,1.12.52,1.48,1.48,0,0,1,.24,1.24l-8,27.48a1.3,1.3,0,0,1-.5.72A1.36,1.36,0,0,1,340.88,170.21Z"/><path class="cls-11" d="M375.72,169.61a1.33,1.33,0,0,1-1-.42,1.38,1.38,0,0,1-.4-1v-27a1.37,1.37,0,0,1,.4-1,1.32,1.32,0,0,1,1-.42,1.44,1.44,0,0,1,1.4,1.4v27a1.44,1.44,0,0,1-1.4,1.4Z"/><path class="cls-11" d="M397.56,169.05l0,0a0,0,0,0,0,0,0h0l0,0a0,0,0,0,1,0,0l0,0h0a0,0,0,0,1,0,0h0v0h0l0,0a.72.72,0,0,1-.32.08.7.7,0,0,1-.28,0h-.2a.16.16,0,0,1-.12,0h-.08l-.1,0-.1,0a.12.12,0,0,0-.08,0,.11.11,0,0,1-.08,0l0,0,0,0h0a0,0,0,0,0,0,0l0,0,0,0,0,0,0,0a.11.11,0,0,1,0-.08,0,0,0,0,1,0,0l0,0a.16.16,0,0,1,0-.12s0,0,0-.06,0,0,0-.06l-9-20.64v20.12a1.38,1.38,0,0,1-.4,1,1.33,1.33,0,0,1-1,.42,1.44,1.44,0,0,1-1.4-1.4v-27.2h0v-.16l0,0v-.08a0,0,0,0,0,0,0s0,0,0,0,0,0,0,0v0h0v0a0,0,0,0,1,0,0v0l0,0,0,0a0,0,0,0,1,0,0s0,0,0,0,0,0,0,0a0,0,0,0,0,0,0h0l0,0,0,0a0,0,0,0,0,0,0h0l0,0h0l0,0h0a.23.23,0,0,1,.16-.08.36.36,0,0,0,.16,0h0a.84.84,0,0,1,.32,0H385a0,0,0,0,1,0,0h.16a.12.12,0,0,0,.08,0l0,0h.08l0,0a.12.12,0,0,1,.08,0h0a0,0,0,0,0,0,0l0,0h0v0h0a45343.28,45343.28,0,0,0,.08.08.12.12,0,0,1,0,.08,0,0,0,0,1,0,0h0v0h0v0a0,0,0,0,0,0,0v0l0,0s0,0,0,0,0,0,0,0l0,.08,9,20.68V141.13a1.38,1.38,0,0,1,.4-1,1.32,1.32,0,0,1,1-.42,1.44,1.44,0,0,1,1.4,1.4v27.2l0,0v.12l0,0v.08a0,0,0,0,0,0,0v0l0,0v0a0,0,0,0,0,0,0v0h0v0l0,0a0,0,0,0,1,0,0s0,0,0,0S397.56,169,397.56,169.05Z"/><path class="cls-11" d="M437.84,169.05l0,0a0,0,0,0,0,0,0h0l0,0a0,0,0,0,1,0,0l0,0h0a0,0,0,0,1,0,0h0v0h0l0,0a.72.72,0,0,1-.32.08.69.69,0,0,1-.28,0h-.2a.16.16,0,0,1-.12,0h-.08l-.1,0-.1,0a.12.12,0,0,0-.08,0,.11.11,0,0,1-.08,0l0,0,0,0h0a0,0,0,0,0,0,0l0,0,0,0,0,0,0,0a.11.11,0,0,1,0-.08s0,0,0,0l0,0a.16.16,0,0,1,0-.12s0,0,0-.06,0,0,0-.06l-9-20.64v20.12a1.38,1.38,0,0,1-.4,1,1.32,1.32,0,0,1-1,.42,1.44,1.44,0,0,1-1.4-1.4v-27.2h0v-.16l0,0v-.08a0,0,0,0,0,0,0s0,0,0,0,0,0,0,0v0h0v0a0,0,0,0,1,0,0v0l0,0,0,0a0,0,0,0,1,0,0s0,0,0,0,0,0,0,0a0,0,0,0,0,0,0h0l0,0,0,0a0,0,0,0,0,0,0h0l0,0h0l0,0h0a.23.23,0,0,1,.16-.08.36.36,0,0,0,.16,0h0a.83.83,0,0,1,.32,0h.12a0,0,0,0,1,0,0h.16a.11.11,0,0,0,.08,0l0,0h.08l0,0a.12.12,0,0,1,.08,0h0s0,0,0,0l0,0h0v0h0a0,0,0,0,0,0,0,0,0,0,0,0,0,0,.12.12,0,0,1,0,.08,0,0,0,0,1,0,0h0v0h0v0a0,0,0,0,0,0,0v0l0,0s0,0,0,0,0,0,0,0l0,.08,9,20.68V141.13a1.37,1.37,0,0,1,.4-1,1.32,1.32,0,0,1,1-.42,1.44,1.44,0,0,1,1.4,1.4v27.2l0,0v.12l0,0v.08a0,0,0,0,0,0,0v0l0,0v0a0,0,0,0,0,0,0v0h0v0l0,0a0,0,0,0,1,0,0s0,0,0,0S437.84,169,437.84,169.05Z"/><path class="cls-11" d="M455.56,140a1.27,1.27,0,0,1,.78.72,1.44,1.44,0,0,1,0,1.08l-5.08,12.8v13.6a1.37,1.37,0,0,1-1.4,1.4,1.38,1.38,0,0,1-1-.4,1.32,1.32,0,0,1-.42-1v-13.6l-5.08-12.8a1.43,1.43,0,0,1,0-1.08,1.27,1.27,0,0,1,.78-.72,1.38,1.38,0,0,1,1.1,0,1.26,1.26,0,0,1,.74.78l3.84,9.76,3.84-9.76a1.26,1.26,0,0,1,.74-.78A1.38,1.38,0,0,1,455.56,140Z"/><path class="cls-11" d="M467.28,169.69a6,6,0,0,1-4.72-1.92,5,5,0,0,1-1.08-1.64,9.86,9.86,0,0,1-.6-2.12,7.67,7.67,0,0,1-.12-1.24V146.65a8.12,8.12,0,0,1,.58-3.2,6.68,6.68,0,0,1,1.5-2.24,5.89,5.89,0,0,1,2.08-1.3,6.77,6.77,0,0,1,2.32-.42,9.76,9.76,0,0,1,2,.28,5.4,5.4,0,0,1,2.42,1.32,6.89,6.89,0,0,1,2.28,5.56,1.44,1.44,0,1,1-2.88,0,5,5,0,0,0-.46-2.34,3.41,3.41,0,0,0-1.1-1.28,3.53,3.53,0,0,0-1.26-.54,5.48,5.48,0,0,0-1-.12,3.56,3.56,0,0,0-1.3.24,3,3,0,0,0-1.06.68,4.3,4.3,0,0,0-1.24,3.36v16a6.36,6.36,0,0,0,.08.92,6.1,6.1,0,0,0,.3,1.16,3.18,3.18,0,0,0,.66,1.1,3.35,3.35,0,0,0,2.6,1,3.24,3.24,0,0,0,3.34-2,6.2,6.2,0,0,0,.32-1.08,6.69,6.69,0,0,0,.1-1.24,1.35,1.35,0,0,1,.36-1,1.44,1.44,0,0,1,1-.48,1.48,1.48,0,0,1,1.52,1.32v.6a7.07,7.07,0,0,1-.16,1.32,6.49,6.49,0,0,1-1.68,3.6A6.27,6.27,0,0,1,467.28,169.69Z"/></svg>