<svg id="Layer_1" data-name="Layer 1" xmlns="http://www.w3.org/2000/svg" viewBox="0 0 603.8 109.4"><defs><style>.cls-1{fill:#009444;}.cls-2{fill:#39b54a;}.cls-3{fill:#231f20;}.cls-4,.cls-5,.cls-7{fill:#fff;}.cls-5{font-size:50.3px;letter-spacing:-0.05em;}.cls-5,.cls-7{font-family:MenschRegular, Mensch;}.cls-6{opacity:0.75;}.cls-7{font-size:17.96px;}</style></defs><title>logo</title><polygon class="cls-1" points="88.81 27.4 90.83 30.14 93.6 28.16 94.67 31.39 97.91 30.36 97.93 33.76 101.33 33.78 100.3 37.02 103.53 38.09 101.55 40.85 104.28 42.87 101.55 44.89 103.53 47.65 100.3 48.72 101.33 51.96 97.93 51.99 97.91 55.39 94.67 54.36 93.6 57.58 90.83 55.6 88.81 58.34 86.8 55.6 84.03 57.58 82.96 54.36 79.72 55.39 79.7 51.99 76.3 51.96 77.33 48.72 74.1 47.65 76.08 44.89 73.35 42.87 76.08 40.85 74.1 38.09 77.33 37.02 76.3 33.78 79.7 33.76 79.72 30.36 82.96 31.39 84.03 28.16 86.8 30.14 88.81 27.4"/><polygon class="cls-2" points="88.81 85.74 83.23 78.16 75.57 83.64 72.6 74.7 63.62 77.55 63.55 68.13 54.13 68.07 56.98 59.09 48.04 56.12 53.53 48.46 45.95 42.87 53.53 37.28 48.04 29.62 56.98 26.65 54.13 17.67 63.55 17.61 63.62 8.19 72.6 11.04 75.57 2.1 83.23 7.58 88.81 0 94.4 7.58 102.06 2.1 105.03 11.04 114.01 8.19 114.08 17.61 123.5 17.67 120.65 26.65 129.59 29.62 124.1 37.28 131.69 42.87 124.1 48.46 129.59 56.12 120.65 59.09 123.5 68.07 114.08 68.13 114.01 77.55 105.03 74.7 102.06 83.64 94.4 78.16 88.81 85.74"/><polygon class="cls-3" points="0.98 108.95 27 75.73 0.95 44.08 64.41 44.08 64.41 108.95 0.98 108.95"/><path class="cls-4" d="M64,44.53v64H1.9L27.58,75.73,1.9,44.53H64m.9-.9H0L1.21,45.1,26.43,75.74,1.2,107.95.06,109.4h64.8V43.63Z"/><polygon class="cls-4" points="45.36 105.4 64.6 108.5 64.6 99.42 45.36 105.4"/><polygon class="cls-3" points="539.4 108.95 539.4 44.08 602.85 44.08 576.8 75.73 602.83 108.95 539.4 108.95"/><path class="cls-4" d="M601.9,44.53l-25.68,31.2L601.9,108.5H539.85v-64H601.9m1.9-.9H538.95V109.4h64.8l-1.14-1.45L577.38,75.74,602.6,45.1l1.21-1.47Z"/><polygon class="cls-4" points="558.45 105.4 539.21 108.5 539.21 99.42 558.45 105.4"/><rect class="cls-3" x="45.81" y="36.84" width="512.19" height="68.11"/><path class="cls-4" d="M557.55,37.29V104.5H46.25V37.29h511.3m.9-.9H45.36v69H558.45v-69Z"/><text class="cls-5" transform="translate(54.55 89.11)">Game devs of color expo</text><g class="cls-6"><text class="cls-7" transform="translate(74.25 30.08)">2017</text></g></svg>