<svg id="Layer_1" data-name="Layer 1" xmlns="http://www.w3.org/2000/svg" xmlns:xlink="http://www.w3.org/1999/xlink" viewBox="0 0 603.8 173.93"><defs><style>.cls-1{fill:none;}.cls-2{clip-path:url(#clip-path);}.cls-3{fill:#c49a6c;}.cls-4{fill:#d6af8a;}.cls-5{fill:#ddbea4;}.cls-6{fill:#009444;}.cls-7{fill:#39b54a;}.cls-8{fill:#231f20;}.cls-9{fill:#fff;}.cls-10{fill:#96602e;}.cls-11{opacity:0.8;}.cls-12{fill:#f1f2f2;}</style><clipPath id="clip-path"><rect class="cls-1" x="-437.99" y="410.93" width="307" height="308.83"/></clipPath></defs><title>logo</title><g class="cls-2"><polygon class="cls-3" points="118.07 774.97 108.62 720.43 -391.16 162.2 -381.7 216.74 118.07 774.97"/><polygon class="cls-4" points="122.8 737.41 113.34 682.87 -386.44 124.64 -376.98 179.18 122.8 737.41"/><polygon class="cls-5" points="134.61 707.77 125.15 653.24 -374.63 95.01 -365.17 149.54 134.61 707.77"/></g><polygon class="cls-6" points="88.81 27.4 90.83 30.14 93.6 28.16 94.67 31.39 97.91 30.36 97.93 33.76 101.33 33.78 100.3 37.02 103.53 38.09 101.55 40.85 104.28 42.87 101.55 44.89 103.53 47.65 100.3 48.72 101.33 51.96 97.93 51.99 97.91 55.39 94.67 54.36 93.6 57.58 90.83 55.6 88.81 58.34 86.8 55.6 84.03 57.58 82.96 54.36 79.72 55.39 79.7 51.99 76.3 51.96 77.33 48.72 74.1 47.65 76.08 44.89 73.35 42.87 76.08 40.85 74.1 38.09 77.33 37.02 76.3 33.78 79.7 33.76 79.72 30.36 82.96 31.39 84.03 28.16 86.8 30.14 88.81 27.4"/><polygon class="cls-7" points="88.81 85.74 83.23 78.16 75.57 83.64 72.6 74.7 63.62 77.55 63.55 68.13 54.13 68.07 56.98 59.09 48.04 56.12 53.53 48.46 45.95 42.87 53.53 37.28 48.04 29.62 56.98 26.65 54.13 17.67 63.55 17.61 63.62 8.19 72.6 11.04 75.57 2.1 83.23 7.58 88.81 0 94.4 7.58 102.06 2.1 105.03 11.04 114.01 8.19 114.08 17.61 123.5 17.67 120.65 26.65 129.59 29.62 124.1 37.28 131.69 42.87 124.1 48.46 129.59 56.12 120.65 59.09 123.5 68.07 114.08 68.13 114.01 77.55 105.03 74.7 102.06 83.64 94.4 78.16 88.81 85.74"/><polygon class="cls-8" points="0.98 108.95 27 75.73 0.95 44.08 64.41 44.08 64.41 108.95 0.98 108.95"/><path class="cls-9" d="M64,44.53v64H1.9L27.58,75.73,1.9,44.53H64m.9-.9H0L1.21,45.1,26.43,75.74,1.2,108,.06,109.4h64.8V43.63Z"/><polygon class="cls-9" points="45.36 105.4 64.6 108.5 64.6 99.42 45.36 105.4"/><polygon class="cls-8" points="539.4 108.95 539.4 44.08 602.85 44.08 576.8 75.73 602.83 108.95 539.4 108.95"/><path class="cls-9" d="M601.9,44.53l-25.68,31.2L601.9,108.5h-62v-64h62m1.9-.9H539V109.4h64.8L602.61,108,577.38,75.74,602.6,45.1l1.2-1.47Z"/><polygon class="cls-9" points="558.45 105.4 539.21 108.5 539.21 99.42 558.45 105.4"/><rect class="cls-8" x="45.81" y="36.84" width="512.19" height="68.11"/><path class="cls-9" d="M557.55,37.29V104.5H46.25V37.29h511.3m.9-.9H45.36v69H558.45v-69Z"/><path class="cls-9" d="M66.27,89.82a7.45,7.45,0,0,1-5.93-2.42,8.35,8.35,0,0,1-2.17-4.78c-.07-.57-.11-1.07-.12-1.51a4.63,4.63,0,0,1,0-.9V60.49a10.12,10.12,0,0,1,.73-4,8.51,8.51,0,0,1,1.89-2.82A7.31,7.31,0,0,1,63.3,52a8.46,8.46,0,0,1,3-.53,8,8,0,0,1,5.48,2A9,9,0,0,1,73.59,56a9.7,9.7,0,0,1,.88,4.5,1.69,1.69,0,0,1-.53,1.23,1.65,1.65,0,0,1-1.23.53,1.71,1.71,0,0,1-1.28-.53,1.65,1.65,0,0,1-.53-1.23,6.67,6.67,0,0,0-.58-3A4.88,4.88,0,0,0,69,55.86a4,4,0,0,0-1.54-.7A6.79,6.79,0,0,0,66.27,55a4.51,4.51,0,0,0-3.12,1.16,5.63,5.63,0,0,0-1.56,4.32V80.94a9.83,9.83,0,0,0,.1,1.18,9,9,0,0,0,.38,1.51A3.58,3.58,0,0,0,63,85a4.3,4.3,0,0,0,3.32,1.21,4.13,4.13,0,0,0,4.33-2.62A7.37,7.37,0,0,0,71,82.22a7.77,7.77,0,0,0,.13-1.56V74.22H67.63a1.79,1.79,0,0,1-1.81-1.81,1.65,1.65,0,0,1,.53-1.23,1.75,1.75,0,0,1,1.28-.53h7v9.86a4.57,4.57,0,0,1,0,.86,11.85,11.85,0,0,1-.18,1.5,9.24,9.24,0,0,1-2.16,4.53A8,8,0,0,1,66.27,89.82Z"/><path class="cls-9" d="M95.29,87.8A1.59,1.59,0,0,1,95,89.09a1.76,1.76,0,0,1-1.05.73h-.31a1.64,1.64,0,0,1-1-.38,1.5,1.5,0,0,1-.58-.93L90.72,82H82.57l-1.31,6.54a1.5,1.5,0,0,1-.58.93,1.71,1.71,0,0,1-1.08.38h-.3a1.63,1.63,0,0,1-1-.73A1.66,1.66,0,0,1,78,87.8l7-34.75a.55.55,0,0,1,.1-.25v-.1a.79.79,0,0,1,.25-.36v-.1h.05v-.05h0v0h0v0h.06a.55.55,0,0,1,.2-.15,1.61,1.61,0,0,1,.25-.1v-.05h0a.51.51,0,0,1,.22,0,.56.56,0,0,0,.23-.05h.2a.56.56,0,0,0,.23.05.51.51,0,0,1,.22,0h.06v.05a1.73,1.73,0,0,1,.3.1.8.8,0,0,1,.2.15h0v0h0v0h.05v.05l0,.1a.46.46,0,0,0,.13.18.57.57,0,0,1,.12.18v.1a.4.4,0,0,1,0,.25Zm-5.23-9.1-3.47-17-3.37,17Z"/><path class="cls-9" d="M120.09,87.6a1.78,1.78,0,0,1-.5,1.24,1.78,1.78,0,0,1-3-1.24V61.1l-5.74,11.21a1.69,1.69,0,0,1-.85,1,2.41,2.41,0,0,1-.81.2,1.62,1.62,0,0,1-.8-.2,1.69,1.69,0,0,1-.91-1L101.78,61.1V87.6a1.73,1.73,0,0,1-.53,1.24,1.68,1.68,0,0,1-1.23.52,1.79,1.79,0,0,1-1.81-1.76V53.5a0,0,0,0,0,.05,0V53.3c0-.07.08-.2.15-.4l0,0V52.8l.05,0v0s0,0,0-.06a.52.52,0,0,0,.13-.15s.06-.06.12-.1l0,0a0,0,0,0,1,0-.05h0v0H99a0,0,0,0,1,0-.05h0v0h.11s0,0,0,0,0,0,0,0,0,0,.05,0h0l0,0h.15s0-.05,0-.05h.65l.05.05a.82.82,0,0,1,.4.1.14.14,0,0,0,.11,0s0,0,.05,0l0,.05a.19.19,0,0,1,.1,0,.93.93,0,0,0,.25.2s0,0,0,0v.05l.05,0v.06s0,0,0,0l0,0v.05l0,0,7.59,14.89,7.6-14.89v0l0-.05v0h.05v0l0-.06a0,0,0,0,1,0,0v-.05a2,2,0,0,1,.3-.25,0,0,0,0,1,0,0h.05a0,0,0,0,1,0-.05v0h.1a0,0,0,0,1,0,0,.21.21,0,0,1,.13-.05.49.49,0,0,0,.18,0h.1s0-.05,0-.05h.65V52h.2v0h.1l0,.05h0l0,0h.1v0h0v.05h0l.06,0a0,0,0,0,1,0,.05h0l.05,0a.69.69,0,0,1,.2.25s.05,0,.05.06l0,0v0l0,.05,0,0a.75.75,0,0,1,.1.35v0h0V87.6Z"/><path class="cls-9" d="M141.24,86.32a1.75,1.75,0,0,1,.53,1.28A1.79,1.79,0,0,1,140,89.36H126.63a1.74,1.74,0,0,1-1.28-.52,1.69,1.69,0,0,1-.53-1.24V53.7a1.65,1.65,0,0,1,.53-1.23,1.75,1.75,0,0,1,1.28-.53H140a1.75,1.75,0,0,1,1.28.53,1.69,1.69,0,0,1,.53,1.23,1.75,1.75,0,0,1-.53,1.28,1.71,1.71,0,0,1-1.28.53H128.39V71h8.7a1.69,1.69,0,0,1,1.26.53,1.81,1.81,0,0,1,.5,1.29,1.78,1.78,0,0,1-.5,1.23,1.69,1.69,0,0,1-1.26.53h-8.7V85.79H140A1.75,1.75,0,0,1,141.24,86.32Z"/><path class="cls-9" d="M177.73,89.36h-6.64a1.65,1.65,0,0,1-1.25-.52,1.75,1.75,0,0,1-.51-1.24V53.7a1.71,1.71,0,0,1,.51-1.23,1.65,1.65,0,0,1,1.25-.53h6.64a8.69,8.69,0,0,1,3,.53,7.58,7.58,0,0,1,2.62,1.63,8.34,8.34,0,0,1,1.88,2.82,10.12,10.12,0,0,1,.73,4V80.31a10.07,10.07,0,0,1-.73,4,8.76,8.76,0,0,1-1.88,2.82,7.52,7.52,0,0,1-2.62,1.66A8.68,8.68,0,0,1,177.73,89.36Zm-4.88-3.57h4.88a4.44,4.44,0,0,0,3.12-1.15,5.66,5.66,0,0,0,1.56-4.33V60.94a5.84,5.84,0,0,0-1.56-4.32,4.55,4.55,0,0,0-3.12-1.16h-4.88Z"/><path class="cls-9" d="M206.78,86.32a1.75,1.75,0,0,1,.53,1.28,1.79,1.79,0,0,1-1.81,1.76H192.17a1.73,1.73,0,0,1-1.28-.52,1.69,1.69,0,0,1-.53-1.24V53.7a1.65,1.65,0,0,1,.53-1.23,1.74,1.74,0,0,1,1.28-.53H205.5a1.75,1.75,0,0,1,1.28.53,1.69,1.69,0,0,1,.53,1.23,1.75,1.75,0,0,1-.53,1.28,1.71,1.71,0,0,1-1.28.53H193.93V71h8.7a1.69,1.69,0,0,1,1.26.53,1.81,1.81,0,0,1,.5,1.29,1.78,1.78,0,0,1-.5,1.23,1.69,1.69,0,0,1-1.26.53h-8.7V85.79H205.5A1.75,1.75,0,0,1,206.78,86.32Z"/><path class="cls-9" d="M226.47,52a1.78,1.78,0,0,1,1.41,2.11l-6.79,33.55a1.84,1.84,0,0,1-.65,1,1.74,1.74,0,0,1-1.11.4h-.25a1.74,1.74,0,0,1-1.11-.4,1.57,1.57,0,0,1-.6-1L210.58,54.1A1.8,1.8,0,0,1,211.94,52a1.65,1.65,0,0,1,1.33.28,1.76,1.76,0,0,1,.78,1.13l5.18,25.5,5.18-25.5a1.79,1.79,0,0,1,.75-1.13A1.59,1.59,0,0,1,226.47,52Z"/><path class="cls-9" d="M240.05,89.56a9,9,0,0,1-5.93-2,8.82,8.82,0,0,1-1.89-2.44,9,9,0,0,1-.93-4.45,1.69,1.69,0,0,1,.53-1.26,1.81,1.81,0,0,1,1.28-.5,1.68,1.68,0,0,1,1.21.5,1.74,1.74,0,0,1,.5,1.26,6.63,6.63,0,0,0,.48,2.72A4.18,4.18,0,0,0,236.53,85a4.41,4.41,0,0,0,1.69.81,7.75,7.75,0,0,0,1.83.22,12.23,12.23,0,0,0,1.44-.12,4.76,4.76,0,0,0,1.83-.68,5.09,5.09,0,0,0,1.59-1.61,5.48,5.48,0,0,0,.68-3,9.34,9.34,0,0,0-.53-3.27,8.48,8.48,0,0,0-1.46-2.51,13.41,13.41,0,0,0-2.14-2c-.8-.62-1.66-1.25-2.56-1.89s-1.62-1.17-2.44-1.81A15,15,0,0,1,234.22,67a9.77,9.77,0,0,1-2.42-6.39c0-.13,0-.4,0-.8a9.22,9.22,0,0,1,.17-1.41,8.43,8.43,0,0,1,2-4.28,8,8,0,0,1,6.08-2.36,7.64,7.64,0,0,1,6,2.36,7.15,7.15,0,0,1,1.21,2,8,8,0,0,1,.55,2.41,9.56,9.56,0,0,1,.07,1.53,2.88,2.88,0,0,1-.07.73A8.07,8.07,0,0,1,247.5,62a2.93,2.93,0,0,1-.61.7,1.27,1.27,0,0,1-1,.21,1.44,1.44,0,0,1-1-.53,2.56,2.56,0,0,1-.4-.88,2.66,2.66,0,0,1-.05-1.16,5.16,5.16,0,0,0,0-1.36q-.1-.55-.3-1.23a3.67,3.67,0,0,0-.66-1.23,4.08,4.08,0,0,0-3.32-1.21,4.4,4.4,0,0,0-3.47,1.31,3.73,3.73,0,0,0-.83,1.26,7.45,7.45,0,0,0-.38,1.25,4.91,4.91,0,0,0-.1,1.36v.15a6,6,0,0,0,.41,2.27,6.4,6.4,0,0,0,1.13,1.86,12.38,12.38,0,0,0,1.76,1.68c.69.56,1.47,1.15,2.34,1.79s1.92,1.31,2.84,2a16.31,16.31,0,0,1,2.59,2.54,12.06,12.06,0,0,1,2.72,7.89,9.45,9.45,0,0,1-.78,4,7.88,7.88,0,0,1-2.07,2.77A8.63,8.63,0,0,1,243.35,89,10.73,10.73,0,0,1,240.05,89.56Z"/><path class="cls-9" d="M283.26,90a7.63,7.63,0,0,1-6-2.42,8.86,8.86,0,0,1-2.11-4.78,9.66,9.66,0,0,1-.15-1.55,5.89,5.89,0,0,1,.05-.91V60.64a10.12,10.12,0,0,1,.73-4,8.41,8.41,0,0,1,1.89-2.84,7.12,7.12,0,0,1,2.61-1.66,8.69,8.69,0,0,1,3-.53,12.2,12.2,0,0,1,2.46.35,7.17,7.17,0,0,1,3.07,1.66,9.42,9.42,0,0,1,1,1.06,6.67,6.67,0,0,1,.9,1.48,11,11,0,0,1,.68,2,10.09,10.09,0,0,1,.28,2.51V81.49a8.81,8.81,0,0,1-.15,1.49,9,9,0,0,1-2.16,4.57A8,8,0,0,1,283.26,90Zm-4.68-9.46v.55a8.27,8.27,0,0,0,.1,1.21,8.14,8.14,0,0,0,.38,1.51,3.58,3.58,0,0,0,.88,1.41,4.3,4.3,0,0,0,3.32,1.21,4.59,4.59,0,0,0,3.47-1.26,4.49,4.49,0,0,0,.85-1.33,6.46,6.46,0,0,0,.43-1.39,5.48,5.48,0,0,0,.13-1.1V60.64a6.09,6.09,0,0,0-.61-3,4.66,4.66,0,0,0-1.4-1.63,4.27,4.27,0,0,0-1.64-.71,7.6,7.6,0,0,0-1.23-.15,4.45,4.45,0,0,0-3.12,1.16,5.63,5.63,0,0,0-1.56,4.32V80.51Z"/><path class="cls-9" d="M311.7,52.47a1.69,1.69,0,0,1,.53,1.23A1.75,1.75,0,0,1,311.7,55a1.71,1.71,0,0,1-1.28.53H300.11V71h7.44a1.68,1.68,0,0,1,1.26.53,1.77,1.77,0,0,1,.5,1.29,1.73,1.73,0,0,1-.5,1.23,1.68,1.68,0,0,1-1.26.53h-7.44V87.6a1.73,1.73,0,0,1-.53,1.24,1.68,1.68,0,0,1-1.23.52,1.74,1.74,0,0,1-1.28-.52,1.69,1.69,0,0,1-.53-1.24V53.7a1.65,1.65,0,0,1,.53-1.23,1.75,1.75,0,0,1,1.28-.53h12.07A1.75,1.75,0,0,1,311.7,52.47Z"/><path class="cls-9" d="M345.88,89.46A7.55,7.55,0,0,1,340,87.05,6.12,6.12,0,0,1,338.59,85a12.42,12.42,0,0,1-.76-2.67,9.67,9.67,0,0,1-.15-1.56V60.49a10.12,10.12,0,0,1,.73-4,8.51,8.51,0,0,1,1.89-2.82A7.31,7.31,0,0,1,342.91,52a8.35,8.35,0,0,1,2.92-.53,12.63,12.63,0,0,1,2.49.35,6.81,6.81,0,0,1,3,1.66,8.67,8.67,0,0,1,2.87,7,1.74,1.74,0,0,1-.53,1.28,1.81,1.81,0,0,1-3.09-1.28,6.21,6.21,0,0,0-.58-2.94,4.36,4.36,0,0,0-1.38-1.61,4.52,4.52,0,0,0-1.59-.68,6.92,6.92,0,0,0-1.23-.15,4.45,4.45,0,0,0-1.63.3,3.81,3.81,0,0,0-1.34.86,5.39,5.39,0,0,0-1.56,4.22V80.64a9.09,9.09,0,0,0,.1,1.15,8.31,8.31,0,0,0,.38,1.46,4,4,0,0,0,.83,1.39,4.24,4.24,0,0,0,3.27,1.2,4.28,4.28,0,0,0,3.37-1.25,4.2,4.2,0,0,0,.83-1.31,7.67,7.67,0,0,0,.4-1.36,7.91,7.91,0,0,0,.13-1.56,1.7,1.7,0,0,1,.45-1.31,1.8,1.8,0,0,1,1.26-.6,1.73,1.73,0,0,1,1.28.45,1.71,1.71,0,0,1,.63,1.21v.75a9.09,9.09,0,0,1-.2,1.66,8.2,8.2,0,0,1-2.11,4.53A7.88,7.88,0,0,1,345.88,89.46Z"/><path class="cls-9" d="M366.85,90a7.62,7.62,0,0,1-6-2.42,8.79,8.79,0,0,1-2.11-4.78,9.66,9.66,0,0,1-.15-1.55,4.82,4.82,0,0,1,.05-.91V60.64a10.12,10.12,0,0,1,.73-4,8.53,8.53,0,0,1,1.88-2.84,7.16,7.16,0,0,1,2.62-1.66,8.68,8.68,0,0,1,3-.53,12.19,12.19,0,0,1,2.47.35,7.23,7.23,0,0,1,3.07,1.66,9.38,9.38,0,0,1,1,1.06,6.33,6.33,0,0,1,.91,1.48,11.87,11.87,0,0,1,.68,2,10.61,10.61,0,0,1,.27,2.51V81.49a9.69,9.69,0,0,1-2.31,6.06A8,8,0,0,1,366.85,90Zm-4.67-9.46v.55a8.27,8.27,0,0,0,.1,1.21,8.07,8.07,0,0,0,.37,1.51,3.6,3.6,0,0,0,.89,1.41,4.28,4.28,0,0,0,3.31,1.21,4.61,4.61,0,0,0,3.48-1.26,4.7,4.7,0,0,0,.85-1.33,7.82,7.82,0,0,0,.43-1.39,6.2,6.2,0,0,0,.12-1.1V60.64a6.21,6.21,0,0,0-.6-3A4.58,4.58,0,0,0,369.72,56a4.23,4.23,0,0,0-1.63-.71,7.82,7.82,0,0,0-1.24-.15,4.41,4.41,0,0,0-3.11,1.16,5.63,5.63,0,0,0-1.56,4.32V80.51Z"/><path class="cls-9" d="M393.51,89.36H380.13a1.68,1.68,0,0,1-1.23-.52,1.73,1.73,0,0,1-.53-1.24V53.7a1.81,1.81,0,0,1,1.76-1.76,1.66,1.66,0,0,1,1.26.53,1.7,1.7,0,0,1,.5,1.23V85.79h11.62a1.79,1.79,0,0,1,0,3.57Z"/><path class="cls-9" d="M405.63,90a7.62,7.62,0,0,1-6-2.42,8.79,8.79,0,0,1-2.11-4.78,9.66,9.66,0,0,1-.15-1.55,4.82,4.82,0,0,1,.05-.91V60.64a10.12,10.12,0,0,1,.73-4,8.53,8.53,0,0,1,1.88-2.84,7.08,7.08,0,0,1,2.62-1.66,8.68,8.68,0,0,1,3-.53,12.19,12.19,0,0,1,2.47.35,7.23,7.23,0,0,1,3.07,1.66,9.38,9.38,0,0,1,1,1.06,6.33,6.33,0,0,1,.91,1.48,11.87,11.87,0,0,1,.68,2,10.58,10.58,0,0,1,.28,2.51V81.49a9.88,9.88,0,0,1-2.32,6.06A8,8,0,0,1,405.63,90ZM401,80.51v.55a8.27,8.27,0,0,0,.1,1.21,8.07,8.07,0,0,0,.37,1.51,3.6,3.6,0,0,0,.89,1.41,4.28,4.28,0,0,0,3.31,1.21,4.61,4.61,0,0,0,3.48-1.26,4.7,4.7,0,0,0,.85-1.33,7.82,7.82,0,0,0,.43-1.39,6.2,6.2,0,0,0,.12-1.1V60.64a6.21,6.21,0,0,0-.6-3A4.58,4.58,0,0,0,408.5,56a4.23,4.23,0,0,0-1.63-.71,7.82,7.82,0,0,0-1.24-.15,4.41,4.41,0,0,0-3.11,1.16A5.63,5.63,0,0,0,401,60.64V80.51Z"/><path class="cls-9" d="M436.57,86.9a1.79,1.79,0,0,1,.05,1.38,1.51,1.51,0,0,1-1,.93,1.27,1.27,0,0,1-.37.13l-.33,0a1.86,1.86,0,0,1-1-.25,1.7,1.7,0,0,1-.68-.8l-6-13.83H422V87.6a1.63,1.63,0,0,1-.53,1.26,1.76,1.76,0,0,1-1.28.5,1.7,1.7,0,0,1-1.23-.5,1.66,1.66,0,0,1-.53-1.26V53.75a1.75,1.75,0,0,1,.53-1.28,1.69,1.69,0,0,1,1.23-.53h7.5a5.56,5.56,0,0,1,3.09,1,9.5,9.5,0,0,1,2.64,2.74A14,14,0,0,1,435,59.23a14.82,14.82,0,0,1,0,8,13.7,13.7,0,0,1-1.56,3.57,8.47,8.47,0,0,1-2.72,2.77ZM422,71h5.69a2.33,2.33,0,0,0,1.38-.55,5.69,5.69,0,0,0,1.33-1.51,9.35,9.35,0,0,0,1.18-2.64,10.74,10.74,0,0,0,.43-3,10.5,10.5,0,0,0-.43-3,9.54,9.54,0,0,0-1.18-2.65A5.09,5.09,0,0,0,429.1,56a2.42,2.42,0,0,0-1.38-.53H422Z"/><path class="cls-9" d="M479.6,86.32a1.75,1.75,0,0,1,.53,1.28,1.79,1.79,0,0,1-1.81,1.76H465a1.73,1.73,0,0,1-1.28-.52,1.69,1.69,0,0,1-.53-1.24V53.7a1.65,1.65,0,0,1,.53-1.23,1.74,1.74,0,0,1,1.28-.53h13.33a1.75,1.75,0,0,1,1.28.53,1.69,1.69,0,0,1,.53,1.23A1.75,1.75,0,0,1,479.6,55a1.71,1.71,0,0,1-1.28.53H466.75V71h8.7a1.69,1.69,0,0,1,1.26.53,1.81,1.81,0,0,1,.5,1.29,1.78,1.78,0,0,1-.5,1.23,1.69,1.69,0,0,1-1.26.53h-8.7V85.79h11.57A1.75,1.75,0,0,1,479.6,86.32Z"/><path class="cls-9" d="M501,88.33a1.62,1.62,0,0,1-1,.93,1.4,1.4,0,0,1-.61.1,1.9,1.9,0,0,1-1-.27,1.57,1.57,0,0,1-.66-.83L492.6,75.13l-5,13.13a1.56,1.56,0,0,1-.65.83,1.93,1.93,0,0,1-1,.27,1.33,1.33,0,0,1-.6-.1,1.63,1.63,0,0,1-1-.93,1.79,1.79,0,0,1-.05-1.38l5.33-13.83,1.16-2.92-6-15.49a1.91,1.91,0,0,1,0-1.39,1.59,1.59,0,0,1,1-.93,1.88,1.88,0,0,1,1.38,0,1.58,1.58,0,0,1,.94,1l4.52,11.82,4.58-11.82a1.59,1.59,0,0,1,.9-1,1.82,1.82,0,0,1,1.36,0,1.69,1.69,0,0,1,1,.93,1.81,1.81,0,0,1,.05,1.39l-6,15.49L501,87A1.79,1.79,0,0,1,501,88.33Z"/><path class="cls-9" d="M520.77,55.61a14,14,0,0,1,1.56,3.57,14.82,14.82,0,0,1,0,8,13.7,13.7,0,0,1-1.56,3.57,9.05,9.05,0,0,1-2.64,2.72,5.6,5.6,0,0,1-3.09,1h-5.69V87.6a1.76,1.76,0,0,1-3,1.26,1.66,1.66,0,0,1-.53-1.26V53.75a1.67,1.67,0,0,1,.91-1.56,1.32,1.32,0,0,1,.9-.3H515a5.56,5.56,0,0,1,3.09,1A9.5,9.5,0,0,1,520.77,55.61Zm-3,13.23a9.32,9.32,0,0,0,1.16-2.64,11.48,11.48,0,0,0,.4-3,11.35,11.35,0,0,0-.4-3,9.57,9.57,0,0,0-1.16-2.64A5.09,5.09,0,0,0,516.42,56a2.42,2.42,0,0,0-1.38-.53h-5.69V70.9H515a2.4,2.4,0,0,0,1.38-.52A5.27,5.27,0,0,0,517.75,68.84Z"/><path class="cls-9" d="M535.1,90a7.61,7.61,0,0,1-6-2.42A8.87,8.87,0,0,1,527,82.77a9.66,9.66,0,0,1-.15-1.55,5.89,5.89,0,0,1,0-.91V60.64a10.3,10.3,0,0,1,.73-4,8.71,8.71,0,0,1,1.89-2.84,7.08,7.08,0,0,1,2.62-1.66,8.68,8.68,0,0,1,3-.53,12.19,12.19,0,0,1,2.47.35,7.23,7.23,0,0,1,3.07,1.66,9.38,9.38,0,0,1,1,1.06,6.33,6.33,0,0,1,.91,1.48,11.87,11.87,0,0,1,.68,2,10.61,10.61,0,0,1,.27,2.51V81.49a9.69,9.69,0,0,1-2.31,6.06A8,8,0,0,1,535.1,90Zm-4.67-9.46v.55a8.27,8.27,0,0,0,.1,1.21,8.07,8.07,0,0,0,.37,1.51,3.7,3.7,0,0,0,.88,1.41,4.31,4.31,0,0,0,3.32,1.21,4.57,4.57,0,0,0,3.47-1.26,4.53,4.53,0,0,0,.86-1.33,7.82,7.82,0,0,0,.43-1.39,6.2,6.2,0,0,0,.12-1.1V60.64a6.21,6.21,0,0,0-.6-3A4.58,4.58,0,0,0,538,56a4.23,4.23,0,0,0-1.63-.71,7.82,7.82,0,0,0-1.24-.15A4.41,4.41,0,0,0,532,56.32a5.63,5.63,0,0,0-1.56,4.32V80.51Z"/><path class="cls-10" d="M148.74,167.14a5.91,5.91,0,0,1-4.66-1.86,8,8,0,0,1-1.8-5.14c0-.37,0-.58,0-.63a4.25,4.25,0,0,1,.23-.87,1.9,1.9,0,0,1,.46-.57,1,1,0,0,1,.85-.18,1.24,1.24,0,0,1,.81.38,1.55,1.55,0,0,1,.34.61,2.45,2.45,0,0,1,.07.87,6,6,0,0,0,.08,1.34,6.69,6.69,0,0,0,.3,1.19,2.81,2.81,0,0,0,.69,1.1,3.29,3.29,0,0,0,2.61,1,3.69,3.69,0,0,0,2.73-1,3.49,3.49,0,0,0,.67-1,5.88,5.88,0,0,0,.34-1.09,5.24,5.24,0,0,0,.09-.89v-21.6a1.42,1.42,0,0,1,1.39-1.38,1.37,1.37,0,0,1,1,.41,1.36,1.36,0,0,1,.41,1l0,21.07a3,3,0,0,1,0,.67,8.13,8.13,0,0,1-.14,1.18,8.47,8.47,0,0,1-.61,2,5.33,5.33,0,0,1-1.09,1.6A6.3,6.3,0,0,1,148.74,167.14Z"/><path class="cls-10" d="M168,167.18a6,6,0,0,1-4.67-1.9,7,7,0,0,1-1.66-3.75,8.82,8.82,0,0,1-.11-1.23V138.76a1.4,1.4,0,0,1,1.38-1.38,1.37,1.37,0,0,1,1,.41,1.36,1.36,0,0,1,.41,1v21s0,.17,0,.43a4.92,4.92,0,0,0,.08.95,7.87,7.87,0,0,0,.32,1.19,3,3,0,0,0,.65,1.1,3.34,3.34,0,0,0,2.61,1,3.68,3.68,0,0,0,2.77-1,3.49,3.49,0,0,0,.67-1,5.93,5.93,0,0,0,.39-2.35V138.8a1.37,1.37,0,0,1,.42-1,1.34,1.34,0,0,1,1-.41,1.29,1.29,0,0,1,1,.41,1.37,1.37,0,0,1,.42,1v21.07c0,.1,0,.32,0,.65a8,8,0,0,1-.14,1.16,6.67,6.67,0,0,1-1.7,3.6A6.14,6.14,0,0,1,168,167.18Z"/><path class="cls-10" d="M191.86,166.78H181.35A1.4,1.4,0,0,1,180,165.4V138.76a1.39,1.39,0,0,1,2.37-1,1.38,1.38,0,0,1,.39,1V164h9.13a1.36,1.36,0,0,1,1,.41,1.38,1.38,0,0,1,.42,1,1.42,1.42,0,0,1-1.39,1.38Z"/><path class="cls-10" d="M205.18,137.53a1.25,1.25,0,0,1,.77.72,1.34,1.34,0,0,1,0,1.06L201,152V165.4a1.33,1.33,0,0,1-1.38,1.38,1.38,1.38,0,0,1-1-.39,1.32,1.32,0,0,1-.41-1V152l-5-12.65a1.39,1.39,0,0,1,0-1.06,1.25,1.25,0,0,1,.77-.72,1.42,1.42,0,0,1,1.09,0,1.31,1.31,0,0,1,.73.78l3.79,9.64,3.8-9.64a1.26,1.26,0,0,1,.73-.78A1.4,1.4,0,0,1,205.18,137.53Z"/><path class="cls-10" d="M242.85,164.65a1.31,1.31,0,0,1,.4,1,1.35,1.35,0,0,1-.4,1,1.32,1.32,0,0,1-1,.41H231.07a1.42,1.42,0,0,1-1.38-1.38,1.29,1.29,0,0,1,.42-1,1.35,1.35,0,0,1,1-.4h4V141.57l-2.89,2.92a1.4,1.4,0,0,1-2-2l5.3-5.25a1.33,1.33,0,0,1,1.5-.32,1.35,1.35,0,0,1,.83,1.31v26h4A1.35,1.35,0,0,1,242.85,164.65Z"/><path class="cls-10" d="M258,137.49a1.39,1.39,0,0,1,1,.4,1.28,1.28,0,0,1,.41,1v27.39a1.32,1.32,0,0,1-.41,1,1.38,1.38,0,0,1-2.35-1V153.94h-10.6a1.4,1.4,0,0,1-1.3-1.74l3.6-13.68a1.39,1.39,0,0,1,.65-.85,1.33,1.33,0,0,1,1.05-.14,1.48,1.48,0,0,1,.85.64,1.22,1.22,0,0,1,.13,1l-3.16,12h8.78V138.88a1.32,1.32,0,0,1,.41-1A1.39,1.39,0,0,1,258,137.49Z"/><path class="cls-10" d="M262.38,170a1.36,1.36,0,0,1-.65-.83,1.21,1.21,0,0,1,.09-1l1.86-3.6a1.42,1.42,0,0,1,.83-.69,1.38,1.38,0,0,1,1.74.93,1.21,1.21,0,0,1-.12,1l-1.89,3.6a1.4,1.4,0,0,1-.79.69A1.31,1.31,0,0,1,262.38,170Z"/><path class="cls-10" d="M297.87,167.46h-8.18a1.31,1.31,0,0,1-1-.42,1.38,1.38,0,0,1-.39-1,14.55,14.55,0,0,1,2.09-7.27,27.86,27.86,0,0,1,2-3c.73-1,1.49-1.91,2.25-2.83l1.84-2.31a20.08,20.08,0,0,0,1.56-2.28,13.61,13.61,0,0,0,1.09-2.29,6.93,6.93,0,0,0,.41-2.33s0-.05,0-.08v-.39a4.12,4.12,0,0,0-.1-.85,5.47,5.47,0,0,0-.33-1,3.44,3.44,0,0,0-3.6-2.06,3.5,3.5,0,0,0-2.77,1,2.44,2.44,0,0,0-.55,1,8.56,8.56,0,0,0-.24,1.05,4.35,4.35,0,0,0,0,1.14,2.13,2.13,0,0,1,0,.91,1.39,1.39,0,0,1-.33.65,1.09,1.09,0,0,1-.77.34,1,1,0,0,1-.83-.16,2.29,2.29,0,0,1-.48-.55,2.85,2.85,0,0,1-.28-.79,3,3,0,0,1-.05-.6,8.27,8.27,0,0,1,.05-1.26,5.76,5.76,0,0,1,6.29-5.49,6.49,6.49,0,0,1,5,1.93,5.54,5.54,0,0,1,1.07,1.6,11.27,11.27,0,0,1,.53,1.62,6.13,6.13,0,0,1,.18,1.35v.73a11.75,11.75,0,0,1-1.78,5.85,27.91,27.91,0,0,1-1.76,2.57c-.64.84-1.31,1.67-2,2.49s-1.26,1.54-1.88,2.33a28.6,28.6,0,0,0-1.7,2.41A17.48,17.48,0,0,0,291.9,162a10.62,10.62,0,0,0-.75,2.73h6.72c1,0,1.57-.16,1.78-.48a1.83,1.83,0,0,0,.3-.94c0-.43.06-.83.06-1.23a1.37,1.37,0,0,1,.39-1,1.36,1.36,0,0,1,1-.39,1.38,1.38,0,0,1,1,.39,1.31,1.31,0,0,1,.41,1,13.45,13.45,0,0,1-.15,2.12,4,4,0,0,1-.72,1.67,3.19,3.19,0,0,1-.89.87,4.53,4.53,0,0,1-1,.5,4.79,4.79,0,0,1-1.09.22C298.52,167.44,298.19,167.46,297.87,167.46Z"/><path class="cls-10" d="M318.39,160.34c0,.11,0,.36,0,.75a8.48,8.48,0,0,1-.2,1.41,9.52,9.52,0,0,1-.57,1.71,5.89,5.89,0,0,1-1.11,1.66,6.31,6.31,0,0,1-4.86,1.94,6.09,6.09,0,0,1-4.79-1.94,5.45,5.45,0,0,1-1-1.42.27.27,0,0,0-.08-.16,8.33,8.33,0,0,1-.63-2.25,8.21,8.21,0,0,1-.12-1.26V144.14a8.36,8.36,0,0,1,.57-3.23,6.43,6.43,0,0,1,1.52-2.25,6.29,6.29,0,0,1,2.12-1.32,6.65,6.65,0,0,1,2.35-.44,9.57,9.57,0,0,1,2,.28,5.56,5.56,0,0,1,2.49,1.34,4.4,4.4,0,0,1,.5.48,4.75,4.75,0,0,1,.49.63s0,.05,0,.06,0,0,0,.06a7.33,7.33,0,0,1,.87,1.84,8.2,8.2,0,0,1,.36,2.58Zm-9.33-19.72a4.57,4.57,0,0,0-1.27,3.52V158l6.6-17.27a3.19,3.19,0,0,0-1.64-.91,7.09,7.09,0,0,0-1.16-.16A3.68,3.68,0,0,0,309.06,140.62Zm5.41,23.4a3,3,0,0,0,.71-1.09,6.65,6.65,0,0,0,.34-1.15,4.74,4.74,0,0,0,.1-.91V145.32l-7,18.34a.93.93,0,0,1,.16.18l.16.18a3.48,3.48,0,0,0,2.73,1A3.84,3.84,0,0,0,314.47,164Z"/><path class="cls-10" d="M334.2,164.65a1.34,1.34,0,0,1,.39,1,1.38,1.38,0,0,1-.39,1,1.35,1.35,0,0,1-1,.41H322.42a1.36,1.36,0,0,1-1-.41,1.33,1.33,0,0,1-.42-1,1.29,1.29,0,0,1,.42-1,1.39,1.39,0,0,1,1-.4h4V141.57l-2.89,2.92a1.41,1.41,0,0,1-2,0,1.43,1.43,0,0,1,0-2l5.29-5.25a1.36,1.36,0,0,1,2.34,1v26h4A1.38,1.38,0,0,1,334.2,164.65Z"/><path class="cls-10" d="M351.51,160.82s0,.09,0,.19a7.31,7.31,0,0,1-1.42,4.11,6.69,6.69,0,0,1-4.51,2.45,5.35,5.35,0,0,1-.83.12,8.44,8.44,0,0,1-.87,0h-.35a9.83,9.83,0,0,1-1.55-.12,7.06,7.06,0,0,1-4.66-2.49,7.8,7.8,0,0,1-1.42-4.94c0-3.82.85-6.6,2.57-8.34a9.42,9.42,0,0,1,.9-.79.8.8,0,0,0-.19-.16,5.45,5.45,0,0,1-1.62-2.76,16.92,16.92,0,0,1-.44-4.19V143a7.59,7.59,0,0,1,0-.79,6.84,6.84,0,0,1,1.5-3.56,6.07,6.07,0,0,1,4.87-1.94h.35a6.16,6.16,0,0,1,4.9,1.94,6.32,6.32,0,0,1,1.46,3.56,4.92,4.92,0,0,1,0,1.42v.32c0,.87,0,1.65-.09,2.35a9.76,9.76,0,0,1-.34,1.84,5.38,5.38,0,0,1-1.62,2.76.76.76,0,0,1-.2.16l.48.4.47.39q2.56,2.68,2.57,8.34v.32a1.22,1.22,0,0,1,0,.32Zm-11.11-7c-1.18,1.24-1.78,3.37-1.78,6.4v.2a7.82,7.82,0,0,0,.16.89,4.75,4.75,0,0,0,.67,1.52,4.07,4.07,0,0,0,2.89,2.06,7.18,7.18,0,0,0,1.34.12,8.19,8.19,0,0,0,1.43-.12,4.2,4.2,0,0,0,2.8-2,4.26,4.26,0,0,0,.59-1.28,7.13,7.13,0,0,0,.2-.89,2.21,2.21,0,0,0,0-.52c0-3-.6-5.14-1.82-6.4a5.12,5.12,0,0,0-3.24-1.46A5.49,5.49,0,0,0,340.4,153.78Zm-.55-10.12a1.33,1.33,0,0,1,0,.4c0,2.58.39,4.15,1.11,4.7a2.17,2.17,0,0,0,1.08.49,9.22,9.22,0,0,0,1.64.18,9,9,0,0,0,1.6-.18,2.49,2.49,0,0,0,1.13-.49c.71-.55,1.07-2.17,1.07-4.86v-.36c0-.16,0-.35,0-.59a5,5,0,0,0-.16-.77,5.8,5.8,0,0,0-.32-.87,2.59,2.59,0,0,0-.55-.81,3.51,3.51,0,0,0-2.73-1,3.41,3.41,0,0,0-2.72,1,3.08,3.08,0,0,0-.58.81,5.89,5.89,0,0,0-.33.87,4.07,4.07,0,0,0-.16.77,4.71,4.71,0,0,0,0,.59Z"/><path class="cls-10" d="M376.88,166.78a1.28,1.28,0,0,1-1-.41,1.35,1.35,0,0,1-.4-1V138.76a1.35,1.35,0,0,1,.4-1,1.28,1.28,0,0,1,1-.41,1.3,1.3,0,0,1,1,.41,1.33,1.33,0,0,1,.42,1V165.4a1.33,1.33,0,0,1-.42,1A1.3,1.3,0,0,1,376.88,166.78Z"/><path class="cls-10" d="M398.47,166.23l0,0s0,0,0,0h0l0,0a0,0,0,0,1,0,0l0,0h0a0,0,0,0,1,0,0h0v0h0l0,0a.72.72,0,0,1-.32.08.82.82,0,0,1-.27,0h-.2a.21.21,0,0,1-.12,0H397a.22.22,0,0,0-.1,0l-.09,0a.12.12,0,0,0-.08,0,.12.12,0,0,1-.08,0l0,0,0,0h0a0,0,0,0,0,0,0l0,0,0,0,0,0,0,0a.1.1,0,0,1,0-.08s0,0,0,0l0,0a.17.17,0,0,1,0-.12l0,0a.07.07,0,0,0,0-.06l-8.85-20.4v19.88a1.35,1.35,0,0,1-.4,1,1.28,1.28,0,0,1-1,.41,1.3,1.3,0,0,1-1-.41,1.33,1.33,0,0,1-.42-1V138.4h0v-.15l0,0v-.08a0,0,0,0,0,0,0s0,0,0,0,0,0,0,0v0h0v0s0,0,0,0v0l0,0,0,0a0,0,0,0,1,0,0s0,0,0,0,0,0,0,0a0,0,0,0,0,0,0h0l0,0,0,0a0,0,0,0,0,0,0h0l0,0h0l0,0h0a.22.22,0,0,1,.16-.08.47.47,0,0,0,.16,0h0a.76.76,0,0,1,.32,0h.11s0,0,0,0h.16s0,0,.08,0l0,0h.08l0,0a.12.12,0,0,1,.08,0h0s0,0,0,0l0,0h0v0h0s0,0,0,0a0,0,0,0,0,0,0,.12.12,0,0,1,0,.08,0,0,0,0,1,0,0h0v0h0v0a0,0,0,0,0,0,0v0l0,0s0,0,0,0,0,0,0,0l0,.08,8.85,20.43V138.64a1.39,1.39,0,0,1,.4-1,1.32,1.32,0,0,1,1-.41,1.4,1.4,0,0,1,1.38,1.38v26.88l0,0v.12l0,0v.08s0,0,0,0v0l0,0v0a0,0,0,0,0,0,0v0h0v0l0,0s0,0,0,0,0,0,0,0S398.47,166.2,398.47,166.23Z"/><path class="cls-10" d="M438.27,166.23l0,0s0,0,0,0h0l0,0s0,0,0,0l0,0h0a0,0,0,0,1,0,0h0v0h0l0,0a.71.71,0,0,1-.31.08.94.94,0,0,1-.28,0H437a.21.21,0,0,1-.12,0h-.08l-.09,0-.1,0a.12.12,0,0,0-.08,0s-.05,0-.08,0l0,0,0,0h0s0,0,0,0l0,0,0,0,0,0,0,0s0-.05,0-.08a0,0,0,0,1,0,0l0,0a.17.17,0,0,1,0-.12s0,0,0,0,0,0,0-.06l-8.86-20.4v19.88a1.38,1.38,0,0,1-.39,1,1.39,1.39,0,0,1-2.37-1V138.4h0v-.15l0,0v-.08a0,0,0,0,0,0,0s0,0,0,0,0,0,0,0v0h0v0a0,0,0,0,1,0,0v0l0,0,0,0a0,0,0,0,1,0,0s0,0,0,0,0,0,0,0,0,0,0,0h0l0,0,0,0a0,0,0,0,0,0,0h0l0,0h0l0,0h0a.19.19,0,0,1,.15-.08.42.42,0,0,0,.16,0h0a.76.76,0,0,1,.32,0h.12a0,0,0,0,1,0,0h.15a.2.2,0,0,0,.08,0l0,0h.08l0,0a.1.1,0,0,1,.08,0h0s0,0,0,0l0,0h0v0h0s0,0,0,0,0,0,0,0a.2.2,0,0,1,0,.08,0,0,0,0,1,0,0h0v0h0v0s0,0,0,0v0l0,0s0,0,0,0,0,0,0,0l0,.08,8.86,20.43V138.64a1.38,1.38,0,0,1,.39-1,1.34,1.34,0,0,1,1-.41,1.36,1.36,0,0,1,1,.41,1.32,1.32,0,0,1,.41,1v26.88l0,0v.12l0,0v.08a0,0,0,0,0,0,0v0l0,0v0a0,0,0,0,0,0,0v0h0v0l0,0a0,0,0,0,1,0,0s0,0,0,0S438.27,166.2,438.27,166.23Z"/><path class="cls-10" d="M455.78,137.53a1.28,1.28,0,0,1,.77.72,1.44,1.44,0,0,1,0,1.06l-5,12.65V165.4a1.31,1.31,0,0,1-.4,1,1.33,1.33,0,0,1-1,.39,1.36,1.36,0,0,1-1-.39,1.29,1.29,0,0,1-.42-1V152l-5-12.65a1.44,1.44,0,0,1,0-1.06,1.28,1.28,0,0,1,.77-.72,1.42,1.42,0,0,1,1.09,0,1.28,1.28,0,0,1,.73.78l3.8,9.64,3.79-9.64a1.26,1.26,0,0,1,.73-.78A1.42,1.42,0,0,1,455.78,137.53Z"/><path class="cls-10" d="M467.36,166.86a6,6,0,0,1-4.67-1.89,5.06,5.06,0,0,1-1.06-1.62,10.09,10.09,0,0,1-.6-2.1,8.57,8.57,0,0,1-.11-1.23V144.1a8.08,8.08,0,0,1,.57-3.17,6.69,6.69,0,0,1,1.48-2.21,5.7,5.7,0,0,1,2.06-1.28,6.57,6.57,0,0,1,2.29-.42,9.35,9.35,0,0,1,2,.28,5.35,5.35,0,0,1,2.39,1.3,7.42,7.42,0,0,1,1.52,2,7.17,7.17,0,0,1,.73,3.52,1.42,1.42,0,0,1-2.43,1,1.34,1.34,0,0,1-.42-1,5,5,0,0,0-.45-2.32,3.34,3.34,0,0,0-1.09-1.26,3.23,3.23,0,0,0-1.24-.53,5.35,5.35,0,0,0-1-.12,3.63,3.63,0,0,0-1.28.23,3,3,0,0,0-1.05.68,4.22,4.22,0,0,0-1.23,3.32v15.83a6.6,6.6,0,0,0,.08.9,5.6,5.6,0,0,0,.3,1.15,3.1,3.1,0,0,0,.65,1.09,4,4,0,0,0,5.22,0,3.43,3.43,0,0,0,.65-1,6.79,6.79,0,0,0,.32-1.07,7.16,7.16,0,0,0,.09-1.22,1.42,1.42,0,0,1,1.35-1.5,1.35,1.35,0,0,1,1,.35,1.39,1.39,0,0,1,.49.95v.59a6.58,6.58,0,0,1-.16,1.31A6.41,6.41,0,0,1,472.1,165,6.18,6.18,0,0,1,467.36,166.86Z"/><g class="cls-11"><path class="cls-12" d="M78.51,30.79H74.69a.63.63,0,0,1-.47-.19.65.65,0,0,1-.18-.46,6.87,6.87,0,0,1,1-3.4A13.29,13.29,0,0,1,76,25.33c.35-.45.7-.89,1.06-1.32l.85-1.08a7.81,7.81,0,0,0,.73-1.07,6.13,6.13,0,0,0,.51-1.07,3.14,3.14,0,0,0,.2-1.09s0,0,0,0v-.19a2.28,2.28,0,0,0,0-.4,2.32,2.32,0,0,0-.16-.49,1.79,1.79,0,0,0-.31-.48,1.75,1.75,0,0,0-1.37-.48,1.66,1.66,0,0,0-1.29.46,1.13,1.13,0,0,0-.26.48,3.38,3.38,0,0,0-.11.49,1.57,1.57,0,0,0,0,.53,1,1,0,0,1,0,.43.73.73,0,0,1-.16.3.51.51,0,0,1-.36.16.48.48,0,0,1-.39-.08,1.31,1.31,0,0,1-.22-.25,1.63,1.63,0,0,1-.13-.37,1.69,1.69,0,0,1,0-.28c0-.16,0-.36,0-.59a3,3,0,0,1,.67-1.67,2.9,2.9,0,0,1,2.27-.9,3.05,3.05,0,0,1,2.33.9,2.65,2.65,0,0,1,.5.75,5.59,5.59,0,0,1,.25.76,3.19,3.19,0,0,1,.08.63v.34a5.59,5.59,0,0,1-.83,2.74c-.25.4-.52.8-.82,1.2s-.62.78-.94,1.16-.59.72-.87,1.09a13.72,13.72,0,0,0-.8,1.13,8.32,8.32,0,0,0-.62,1.18,5.05,5.05,0,0,0-.35,1.28h3.14c.46,0,.74-.08.83-.22a.85.85,0,0,0,.14-.45q0-.3,0-.57a.65.65,0,0,1,.65-.65.61.61,0,0,1,.45.19.59.59,0,0,1,.19.46,5.9,5.9,0,0,1-.07,1,1.81,1.81,0,0,1-.33.78,1.48,1.48,0,0,1-.42.41,2.17,2.17,0,0,1-1,.33Z"/><path class="cls-12" d="M88.1,27.46c0,.05,0,.17,0,.36a2.87,2.87,0,0,1-.09.65,3.84,3.84,0,0,1-.27.81,2.58,2.58,0,0,1-.51.77,3,3,0,0,1-2.28.91,2.82,2.82,0,0,1-2.23-.91,2.21,2.21,0,0,1-.46-.66s0-.05,0-.08a3.62,3.62,0,0,1-.3-1,5,5,0,0,1,0-.59V19.89a3.88,3.88,0,0,1,.27-1.51,2.83,2.83,0,0,1,.71-1.05,2.71,2.71,0,0,1,1-.62,3,3,0,0,1,1.1-.21,5.27,5.27,0,0,1,.94.13,2.72,2.72,0,0,1,1.16.63,2.34,2.34,0,0,1,.23.22,2.37,2.37,0,0,1,.23.3s0,0,0,0l0,0a3.36,3.36,0,0,1,.41.85,4,4,0,0,1,.16,1.22Zm-4.36-9.22a2.17,2.17,0,0,0-.59,1.65v6.48l3.09-8.07a1.5,1.5,0,0,0-.77-.43,3.36,3.36,0,0,0-.54-.07A1.77,1.77,0,0,0,83.74,18.24Zm2.53,10.94a1.39,1.39,0,0,0,.34-.51,3.06,3.06,0,0,0,.15-.53,2.58,2.58,0,0,0,0-.43V20.44L83.52,29a.27.27,0,0,1,.07.08.6.6,0,0,0,.08.08,1.61,1.61,0,0,0,1.27.48A1.79,1.79,0,0,0,86.27,29.18Z"/><path class="cls-12" d="M95.5,29.48a.63.63,0,0,1,.18.46.64.64,0,0,1-.18.45.63.63,0,0,1-.47.2H90a.69.69,0,0,1-.65-.65.61.61,0,0,1,.2-.46.65.65,0,0,1,.45-.19h1.88V18.69l-1.34,1.36a.66.66,0,0,1-.93,0,.68.68,0,0,1,0-.92l2.48-2.46a.61.61,0,0,1,.7-.15.64.64,0,0,1,.39.61V29.29H95A.67.67,0,0,1,95.5,29.48Z"/><path class="cls-12" d="M103.59,27.69a.14.14,0,0,0,0,.09,3.42,3.42,0,0,1-.66,1.92,3.13,3.13,0,0,1-2.11,1.15l-.39,0-.4,0h-.17a4.2,4.2,0,0,1-.72-.06,3.27,3.27,0,0,1-2.18-1.16,3.63,3.63,0,0,1-.67-2.31,5.39,5.39,0,0,1,1.2-3.9,5,5,0,0,1,.43-.37l-.09-.07a2.59,2.59,0,0,1-.76-1.3,7.67,7.67,0,0,1-.2-2v-.44c0-.11,0-.23,0-.37a3.19,3.19,0,0,1,.71-1.66,2.79,2.79,0,0,1,2.27-.91H100a2.88,2.88,0,0,1,2.29.91A3,3,0,0,1,103,19a2.56,2.56,0,0,1,0,.67v.14c0,.41,0,.78,0,1.1a4.62,4.62,0,0,1-.15.86,2.51,2.51,0,0,1-.76,1.3l-.09.07.22.19.22.18a5.49,5.49,0,0,1,1.2,3.9v.15a.77.77,0,0,1,0,.15ZM98.4,24.4a4.24,4.24,0,0,0-.83,3v.09a2.74,2.74,0,0,0,.07.42,2.17,2.17,0,0,0,.31.71,1.91,1.91,0,0,0,1.35,1,3.21,3.21,0,0,0,.63.06,3.55,3.55,0,0,0,.67-.06,2,2,0,0,0,1.31-.92,2.29,2.29,0,0,0,.28-.6,3.27,3.27,0,0,0,.09-.42,1.25,1.25,0,0,0,0-.24,4.29,4.29,0,0,0-.85-3,2.46,2.46,0,0,0-1.52-.69A2.6,2.6,0,0,0,98.4,24.4Zm-.26-4.73a.54.54,0,0,1,0,.18c0,1.21.18,1.94.52,2.2a1,1,0,0,0,.5.23,5.37,5.37,0,0,0,.77.08,5.07,5.07,0,0,0,.75-.08,1.17,1.17,0,0,0,.53-.23c.33-.26.5-1,.5-2.27v-.17c0-.07,0-.17,0-.28a1.82,1.82,0,0,0-.08-.36,2.4,2.4,0,0,0-.14-.4,1.28,1.28,0,0,0-.26-.38,1.66,1.66,0,0,0-1.28-.48,1.59,1.59,0,0,0-1.27.48,1.31,1.31,0,0,0-.27.38,2.56,2.56,0,0,0-.16.4,1.75,1.75,0,0,0-.07.36c0,.11,0,.21,0,.28Z"/></g></svg>