<?xml version="1.0" encoding="utf-8"?>
<!-- Generator: Adobe Illustrator 21.1.0, SVG Export Plug-In . SVG Version: 6.00 Build 0)  -->
<svg version="1.1" id="Layer_1" xmlns="http://www.w3.org/2000/svg" xmlns:xlink="http://www.w3.org/1999/xlink" x="0px" y="0px"
	 viewBox="0 0 326 51" style="enable-background:new 0 0 326 51;" xml:space="preserve">
<style type="text/css">
	.st0{fill:#CB272C;}
</style>
<title>Humble Bundle Red</title>
<desc>Created with Sketch.</desc>
<g id="Page-1">
	<g id="Humble-Bundle-Red">
		<g>
			<path class="st0" d="M205.3,20.9c0,0,7-0.2,8.6-9.7c1.3-7.6-6.3-10.8-14.3-10.8c-10.6,0-16.4,4.2-18.3,5.8
				c-2,1.7-2.4,2.3-3.2,3.8l1.3,2c4.4-3.4,8-4.3,8-4.3c-2,6.7-4.7,18.2-4.5,28.6c0.2,10,3.1,13.1,11.6,13.1
				c9.3,0,17.1-3.8,20.3-13.3c0.3-0.9,0.6-1.9,0.8-2.9C217,23.8,211.7,20.9,205.3,20.9z M194.3,6.6c0,0,2.3-0.4,5.9-0.4
				c3.5,0,8.3,0.6,6.7,5.9c-1.8,6.1-7.4,6.8-15.9,7.3C191.4,13.1,194.3,6.6,194.3,6.6z M207.4,31.3c-0.8,5.6-4.2,9.2-14.1,9.2
				c-3.9,0-4-6.9-2.8-15.2c0,0,3-0.5,8.7-0.5C207,24.8,207.8,28.7,207.4,31.3z"/>
			<path class="st0" d="M323.9,41.2c-1.2,1.4-3.3,2.6-6.6,2.6c-0.8,0-1.3-0.2-1.8-0.5c4.9-4.7,7.9-9.8,8-11.4
				c0.1-0.5,0.2-0.9,0.2-1.4c0-4.6-2.7-6.5-5.9-6.5c-6.8,0-10.8,5.5-10.6,13c0,2.3,0.3,4.2,0.6,5.8c-1.3,0.7-2.3,1.1-2.6,1.1
				c-7,0,3.6-42.3,3.6-42.3h-5.9c0,0-6,15.8-6.6,31.9c-0.4,3.9-1.3,10.6-4.1,10.4c-7-0.6,3.6-42.3,3.6-42.3h-5.9
				c0,0-4.3,11.2-6,24.4c-1.1-1.3-2.7-2-4.5-2c-5.3,0-9.1,3.8-10.4,11.2c-0.2,1.3-0.3,2.4-0.4,3.5c-1.3,1.4-2.7,2.6-3.2,2.6
				c-0.9,0-0.9-1.2-0.5-4.3c0,0,0.8-4.3,0.8-6.5c0-4.6-2.7-6.5-5.9-6.5c-6.5,0-9.3,4.9-9.5,5.3l0,0h0c0,0,0,0,0,0l0.3-4.3l-7.1,0
				L242,42.2c-1.1,1.5-2.1,2.5-3,2.5c-1.9,0,0.7-17.2,1-19.8h-2.6h-3.2c0,0-2.7,19-8.1,19c-4.6,0-1.6-15.1-1-19c-0.8,0-5.4,0-6.8,0
				c-0.6,4.2-1,7.7-0.9,12.1c0.2,9.8,3.4,12.6,7.1,12.8c2.8,0.1,5.7-1.4,7.6-3.1c0.6-0.5,1.1-1,1.5-1.6c0.7,3.4,2.3,4.9,4.1,4.9
				c1.3,0,2.6-0.6,3.7-1.5l-0.1,0.7h7.8l1-11.6h0c0.4-5.5,4.6-8.3,6.8-8.3c1.6,0,1.7,2.8,1.3,7.1l-0.1,0.6
				c-1.2,9.5-1.5,13.2,1.4,13.2c2,0,4.1-1.5,5.5-3.1c0.7-0.9,2.2-3,3.5-5c0.8,6,4.4,8.3,7.2,8.3c3.6,0,6.3-2.3,8.2-5.4
				c1.3,4.2,3.9,5.5,8,5.5c2.8,0,4.7-1.5,6-3.4c2.9,5.5,8.5,3.1,11.8,1c3.4,4.3,9,2,12.1-0.8c2-1.7,3.1-3.4,3.8-4.9L323.9,41.2z
				 M276.5,44c-2.4,0-2.3-5.9-1.2-9.5c0.8-2.7,1.7-4.5,4.6-4.5c1.4,0,2.5,0.9,2.5,2.9C282.5,32.9,281,44,276.5,44z M312.8,39.6
				c-1.3-4.3,0.2-10.8,3.7-10.8c2.1,0,2.3,1.8,2.3,2.5C318.8,34.8,312.8,39.6,312.8,39.6z"/>
		</g>
		<path id="Humble" class="st0" d="M48.3,25c0-0.2,0.1-0.4,0.1-0.5c1.4,0,5.9,0,6.8,0c-0.6,3.8-3.6,19,1,19c5.4,0,8.1-19,8.1-19h3.2
			H70c-0.3,2.6-2.9,19.8-1,19.8c1.1,0,2.5-1.7,3.9-3.9l1.3-15.9l7.1,0L81,28.8c0,0,2.8-5.3,9.5-5.3c2.8,0,5.1,1.4,5.7,4.8
			c0.9-1.3,3.8-4.8,9.2-4.8c3.2,0,5.9,1.9,5.9,6.5c0,2.1-0.8,6.5-0.8,6.5c-0.4,3.1-0.5,4.3,0.5,4.3c0.5,0,2.1-1.6,3.8-3.7
			c0-0.2,0-0.4,0-0.6c-0.3-17.2,6.6-35.4,6.6-35.4h5.9c0,0-5,14.8-6.4,26.5c0,0,2.7-4.1,9.4-4.1c3.2,0,5.9,2,5.9,6.5
			c0,5.4-3.5,12.5-8,16.5c-4.1,3.6-11.5,6.5-13.1-5.5c-1.9,2.6-3.6,4.8-4.2,5.5c-1.4,1.6-3.5,3.1-5.5,3.1c-2.9,0-2.6-3.6-1.4-13.2
			l0.1-0.6c0.4-4.3,0.3-7.1-1.3-7.1c-2,0-5.8,2.4-6.7,7.1c-0.5,4.3-1.4,8.2-2.1,12.8h-6.5c1.3-10.5,3.3-19.9,0.4-19.9
			c-2.2,0-6.4,2.8-6.8,8.3l-1,11.6h-7.8l0.1-1.5c-1.3,1.2-3,2.2-4.6,2.2c-1.8,0-3.5-1.4-4.1-4.9c-0.4,0.5-0.9,1.1-1.5,1.6
			c-1.9,1.7-4.8,3.3-7.6,3.1c-3.2-0.1-6.1-2.3-6.9-9.4c-1.4,2.6-3.2,5-5.2,6.7c-4.5,3.9-14.5,7.2-14.8-10c-0.1-3.2,0.1-6.4,0.5-9.4
			h-6c-1.9,11.9-5.6,21.6-5.6,21.6H9.2c0,0,10.9-38.9,3.8-38.9C6,9.7,3.7,20,3.7,20s-3-0.7-3.4-0.8C0.7,14,4.1,7.3,8.3,3.5
			c4.5-3.9,14.5-7.2,14.8,10c0,2.2,0,4.3-0.2,6.5h6.3c2-10.4,5.1-18.4,5.1-18.4h7.3c0,0-10.8,38.7-3.8,38.7
			C44.5,40.3,47.5,29.1,48.3,25z M150.9,47.2c-4.6,3-13.4,6.3-13.7-10.8C136.9,19.2,143.8,1,143.8,1h5.9c0,0-10.6,42.3-3.6,42.3
			c0.4,0,1.4-0.5,2.6-1.1c-0.4-1.6-0.6-3.5-0.6-5.8c-0.1-7.5,3.9-13,10.6-13c3.2,0,5.9,2,5.9,6.5c0,0.5-0.1,0.9-0.2,1.4
			c-0.1,1.6-3.1,6.7-8,11.4c0.5,0.3,1,0.5,1.8,0.5c3.3,0,5.4-1.2,6.6-2.6l1.9,0.9c-0.7,1.5-1.9,3.2-3.8,4.9
			C159.9,49.1,154.2,51.5,150.9,47.2z M159.8,30.9c0-0.7-0.2-2.5-2.3-2.5c-3.5,0-5,6.5-3.7,10.8C153.8,39.1,159.8,34.3,159.8,30.9z
			 M122.2,43.4c3.3,0,6.2-5.9,7.5-8.9c1.6-3.7,0.9-5.7-2.2-5.7c-2.2,0-7,1.3-7,6.8C120.6,38.4,120.9,43.4,122.2,43.4z"/>
	</g>
</g>
</svg>
